<?xml version="1.0" standalone="no"?>
<!DOCTYPE svg PUBLIC "-//W3C//DTD SVG 1.1//EN" "http://www.w3.org/Graphics/SVG/1.1/DTD/svg11.dtd" >
<svg xmlns="http://www.w3.org/2000/svg">
<metadata></metadata>
<defs>
<font id="safe_from_harmregular" horiz-adv-x="1014" >
<font-face units-per-em="2048" ascent="1638" descent="-410" />
<missing-glyph horiz-adv-x="508" />
<glyph unicode="&#xd;" horiz-adv-x="508" />
<glyph horiz-adv-x="0" />
<glyph horiz-adv-x="0" />
<glyph unicode=" "  horiz-adv-x="508" />
<glyph unicode="&#x09;" horiz-adv-x="508" />
<glyph unicode="&#xa0;" horiz-adv-x="508" />
<glyph unicode="!" horiz-adv-x="608" d="M114 1079q6 24 6 48l-6 54q0 12 6 12l-6 60v102q0 65 72 65q0 6 6 6h204q34 -13 48 -47q11 -269 11 -348q-6 -42 -6 -47l12 -90q0 -173 -59 -323q-30 -138 -66 -138q-23 -18 -54 -18h-24q-46 0 -54 60v54q0 73 -48 149q-36 179 -36 204v108q0 37 -6 89zM126 162v43 q15 42 48 42h240q12 -90 12 -106q0 -185 -48 -185h-6q-63 0 -192 7q-48 48 -48 178q-6 0 -6 21z" />
<glyph unicode="&#x22;" horiz-adv-x="836" d="M65 1186h6q0 6 -6 6q6 81 6 120v30q0 54 42 54q18 -6 18 -12l54 24h35l18 -12h18q72 0 72 -144q0 -6 -6 -18q6 -51 6 -84v-24q0 -20 -6 -29q6 -24 6 -42q0 -84 -48 -156l-36 -6q12 0 -12 6q-39 -6 -77 -6q-84 0 -84 210q-6 0 -6 83zM472 1156l6 12l-6 12l6 60 q-6 52 -6 90q5 20 35 36h65q11 -2 11 -12q19 12 36 12h10q42 -12 47 -12l12 6q35 -14 35 -24v-30q-11 -18 -17 -42q17 -77 23 -174q6 0 6 -17v-36q-26 -174 -53 -174q-74 6 -140 6h-5q-26 8 -53 66v6q0 46 -12 215z" />
<glyph unicode="#" horiz-adv-x="972" d="M51 515v12q0 156 71 164q20 -12 36 -12q61 7 42 42l18 78v34q-2 12 -30 24l-24 -6q-101 3 -101 29v120q18 20 18 30l121 -13q22 13 22 103l12 315q4 0 30 24h30q-23 -18 10 -18q30 0 30 12l12 -6h6q6 0 6 6q72 -20 72 -54q-6 -83 -6 -108q0 -41 6 -115l-12 -6 q6 -29 -4 -92v-48q21 -27 51 -18h18q42 8 42 96q0 54 12 54q-12 -20 -12 -4v18q0 16 12 -14q6 77 6 183v42q8 66 42 66q0 -6 6 -6q0 6 6 6q9 -17 -12 -30q72 6 108 6q42 0 59 -36v-6q0 -24 -23 -90q6 -72 6 -108q-12 -85 -12 -27v-54l-12 -18v-12q14 -72 47 -72h84 q9 0 27 -62l-9 -82q0 -9 -24 -23h-91q-34 0 -34 -52l-6 -60q0 -46 36 -63l65 3h48q8 0 24 -136v-6q-13 -34 -48 -48h-66q-63 0 -83 -177q12 -2 12 -12v-122l-12 -42q18 0 18 -66q0 -27 -48 -42q-85 6 -54 6h-42q-39 20 -42 36v365q0 54 -42 54h-24q-59 0 -59 -66 q12 -92 12 -197q-18 -86 -18 -108v-24q-14 -34 -48 -48h-16q-15 12 -18 12q-20 -12 -36 -12h-30q-36 16 -36 24v274q0 65 6 6q-6 3 -6 93l6 24q-4 32 -36 42h-101q-9 0 -18 18zM396 733q4 -60 47 -60q78 0 78 96v28q0 42 -54 42q-9 0 -24 12q-29 -16 -29 -66 q-18 -21 -18 -22v-30z" />
<glyph unicode="$" horiz-adv-x="877" d="M98 274v12q1 133 0 144l35 31l30 1q60 2 180 1q0 -9 19 -24l3 -96l-11 -18q13 -32 37 -40q22 16 33 90l-1 18q-13 43 -13 48l-3 60q-3 95 -70 129q-55 74 -93 81q-111 97 -112 133q-8 0 -25 35l-3 78q-6 174 16 216q-2 62 39 98q-1 33 52 43q8 1 117 94q58 2 130 31 l39 81l32 -7l28 -73q95 4 132 -73q38 1 89 -153l3 -77q0 -25 -5 -48q7 -23 8 -48v-18q3 -60 -69 -62l-161 13q-16 -20 -8.5 51t-21.5 68l-18 -40l-18 -124l1 -24q0 -6 6 -6l-11 -24l13 -24q-6 0 -6 -6q20 -20 75 -81q41 -43 142 -121q69 -85 72 -165v-12q-1 -156 1 -210 q-19 -17 -33 -85q-127 -124 -157 -125q-83 -25 -83 -33q-26 -1 -39 -61l-18 -13l-36 -1q-20 4 -44 70q-117 46 -128 56q-142 130 -145 210zM343 978q7 -24 25 -24q41 8 47 8v18q-2 44 14 102h-6l6 12l-1 12q-12 15 -13 30l-48 -2q-41 -25 -24 -156z" />
<glyph unicode="%" horiz-adv-x="1361" d="M50 1078q6 23 6 48q0 30 -6 89q6 47 6 96q14 0 36 72q12 0 71 24q0 12 48 12q121 -6 168 -6q0 -18 66 -18h101q61 -60 150 -84q61 -7 72 -18l18 -20q5 0 48 -18h107q78 -32 78 -90v-24q0 -13 -6 -24q6 20 6 -4v24q0 -17 -6 -17l6 30v-18q-46 -77 -78 -102 q0 -14 -101 -150q0 -67 -60 -89q-12 0 -18 -102q-37 -51 -72 -162q-12 -25 -36 -137l-84 -419q0 -22 -24 -30h-71q-60 19 -60 53v6q0 132 36 282q1 45 24 78l-6 12l36 89q-6 0 -6 6q7 0 47 138q9 0 54 102q36 52 72 78q0 55 78 179q13 37 72 120q12 57 12 62q-6 24 -30 24 q-111 44 -162 74q-48 23 -48 -154l6 -42v-42q0 -16 -12 -36q12 -20 12 -36v-12l-12 -18v-60q0 -4 -18 -18q6 -53 6 -65q-65 -66 -119 -66q-15 -12 -18 -12h-120l-18 12h-42q-167 24 -167 66q-36 29 -36 107v120q0 38 -6 90zM271 1233q6 -86 18 -125v-66q0 -14 -6 -24 q6 -12 6 -18q-12 -2 -12 -12v-36l12 -18q-12 -42 -12 -48v-54q0 -13 30 -18q60 20 60 102v138l18 60v96q0 44 -42 65h-18q-28 -12 -54 -42zM732 192l6 54q-6 37 -6 84q9 0 24 24v24l-12 18v89q0 11 54 90q0 46 84 54q0 6 6 6h42l17 -12q0 13 72 18q35 -4 54 -18h42 q90 -15 144 -96q-6 -257 -6 -395v-12q0 -167 -78 -191l-84 -42h-96q-14 12 -60 18q-23 34 -23 48l6 36h-6q-12 0 -12 -12h6q-18 -48 -36 -48q-18 1 -42 54l-36 6h-30q-24 31 -24 41v6q0 56 -6 156zM798 1141h12q9 0 18 24q-9 24 -18 24q-12 -2 -12 -12v-36zM959 72 q0 -32 30 -36q72 15 72 42q-12 12 -18 114q18 47 18 60v84q0 6 18 83v6q0 46 -48 72h-30q-42 -17 -42 -60v-365zM1103 90q0 -12 12 -12h12q12 2 12 12v30h-18q-9 0 -18 -18v-12z" />
<glyph unicode="&#x26;" horiz-adv-x="1052" d="M89 471h6q-6 11 -6 18q6 17 12 17q-12 20 -12 36q10 42 78 126q0 22 100 66v36q-100 23 -100 72v18q0 38 6 77l-6 24l18 250q-6 0 -6 18v83q56 126 192 126q42 -20 42 -24q47 24 65 24q109 -6 138 -6q0 -7 36 -30l24 18h6q126 -50 126 -125q0 -30 -12 -30q12 -20 32 -36 l-24 -42v-6l12 -18q-6 -42 -6 -52q4 -83 4 -156q-16 -29 -24 -30v-59v-24q-17 -35 -114 -72q0 -28 -78 -48q0 -5 -18 -48q59 -70 66 -120q42 -53 72 -53q37 0 62 171v6q0 10 24 24h30l139 -49l38 -39q0 -38 -72 -207q0 -57 -36 -126q-30 -6 -30 -108q25 0 36 -77 q54 -17 54 -30v-12q0 -42 -42 -52h-12q-15 0 -161 -32q-47 77 -54 78q0 -12 -144 -54h-48l-18 -12h-83q-49 16 -96 48l-18 -12h-48q-59 21 -72 42q-66 68 -66 209v72q0 13 6 24q-6 62 -18 106zM309 746l18 -12h12q0 31 -18 36h-6q0 -3 -6 -24zM353 341q0 -120 78 -156h29 q33 22 78 42l12 60q0 16 -96 166q0 18 -47 48v5q-24 0 -54 -77q0 -6 6 -6q-6 -40 -6 -70v-12zM413 1123q12 -27 12 -78v-60q18 -77 35 -77h30q84 34 84 107q0 25 -6 66q6 47 6 76q-10 90 -84 90h-6q-71 0 -71 -124z" />
<glyph unicode="'" horiz-adv-x="446" d="M71 1102v78q0 3 23 30v18l-12 18v47q0 32 -6 102l24 18h66q43 0 66 12q9 0 68 -22q0 12 18 12q24 -9 24 -18q6 -166 6 -181q-12 -57 -12 -90v-48q0 -30 -12 -30l6 -30v-36q-18 -40 -42 -54v-6l-12 6h-146q-39 0 -48 60q-11 102 -11 114zM142 1246q12 -15 12 -24h30l6 24 q-6 0 -6 6q24 34 48 53v18h-24q-49 -17 -66 -47v-30z" />
<glyph unicode="(" horiz-adv-x="629" d="M150 198v71q0 6 12 48v36q0 5 -12 48l12 42v138q0 6 -6 6q12 23 12 66v155q0 72 -12 72l12 24l-6 72q0 20 6 30q-6 32 -6 54v53q0 25 6 48q-6 23 -6 48v6q0 107 89 210q75 36 150 47q0 6 6 6h78q32 0 48 -95v-18q0 -32 -108 -126v-12q0 -31 18 -54v-18q-12 -42 -12 -48 v-42q-18 -21 -18 -41l30 -42v-30q-12 -43 -12 -48v-18l12 -18v-114q0 -78 6 -161q-6 -64 -18 -108v-42q12 -43 12 -48l-12 -42q12 -30 18 -119l-6 -36q0 -61 66 -78q6 0 6 -6v-84q0 -54 -42 -54q0 -6 -6 -6h-54l-18 12h-6q-6 0 -6 -6l-12 6h-12q-6 0 -6 -6q-42 14 -72 48 q-42 14 -42 24q-63 48 -83 144q-6 0 -6 6z" />
<glyph unicode=")" horiz-adv-x="610" d="M64 -48q6 105 6 126q29 34 78 60q18 37 24 113q6 0 6 6h-6l6 12l-6 12l12 30q-6 101 -6 156v18q0 6 -6 6l6 12q-12 20 -12 36v6q0 5 12 48v54q0 6 -6 6q10 25 18 71l-6 42v317q0 17 -12 36q12 39 12 54v30q0 71 -60 84q-12 -6 -18 -6l-18 24v102q0 32 24 42h42 q51 0 72 -18h42q48 0 143 -126q6 0 36 -108q0 -59 -12 -102q6 -10 6 -24l-6 -59q12 -51 12 -60l-6 -72q0 -30 12 -30q-12 -50 -30 -72q0 -21 24 -131v-96q0 -39 -30 -60q0 -20 18 -42v-24q-24 -26 -24 -30q6 -18 42 -54l-6 -12v-60q0 -77 -36 -113v-36q0 -55 -60 -102 q-9 -26 -77 -48q0 -25 -150 -42q0 -6 -6 -6h-30q-24 13 -24 30zM232 407q19 -12 30 -12l12 18v6q-10 0 -24 12q0 -9 -18 -24z" />
<glyph unicode="*" horiz-adv-x="803" d="M80 1178l4 50l14 24q6 11 65 27q55 -33 179 -106l-26 46l16 50q11 35 19 32q-17 29 -4 52q-3 36 37 30l51 -5q12 -7 29 -62q-18 -79 11 -149q13 1 24 1l71 16q32 22 116 35l29 -41l5 -27q2 -13 -34 -63q-70 -34 -144 -65q41 -28 79 -50l-12 8l16 -15l39 -20 q18 -28 -6 -71q-32 -30 -49 -27l-52 29l4 -11l12 -8l-17 17l-6 3l-21 6l-51 29l-33 24l13 -74q-19 -30 -27 -32q13 6 19 -31q5 -28 -30 -49l-45 -9q-14 -1 -41 23q-8 71 -5 207l-3 -6l-16 -16l-116 -63q-19 -15 -59 8q-64 37 -32 93l120 55l-3 12l15 22l-71 44 q-19 19 -84 57z" />
<glyph unicode="+" horiz-adv-x="800" d="M26 680l14 19l-1 26q0 4 2 8q23 17 9 28l1 17q-13 58 65 35l28 8l41 -1l31 10l56 -1q-4 146 -13 153l3 100q0 14 35 42l11 -13l46 -3q6 0 11 -2q17 12 47 13q40 -11 48 -26l27 6l40 -2q16 -12 15 -68l-3 -101l11 -34l-2 -70q87 4 92 11l91 -3q13 0 38 -35l-11 -11l-3 -46 q0 -5 -1 -9q3 -12 4 -29q1 -42 -19 -60l7 -35l-1 -40q-11 -16 -62 -15l-91 3l-31 -11l-21 1l5 -53l-2 -67q7 -111 -6 -117l-2 2v-2l-45 -13l-88 -1q-10 0 -38 25q-19 -8 -31 -24l-17 2q-58 18 -55 104l12 32l1 45l-10 34l1 35h-6q-10 1 -10 7l-51 -5l-131 2q-30 3 -26 66 l-8 12q7 33 -7 51z" />
<glyph unicode="," horiz-adv-x="449" d="M61 66v24q18 112 18 120v77q1 9 30 24q38 0 90 6l24 -6q39 6 78 6h30q48 0 48 -60q0 -34 -12 -71q6 -51 6 -84v-48q0 -227 -36 -227q0 -14 -72 -54q0 6 -6 6q0 -12 -90 -30h-30q-36 0 -36 42q-6 39 -6 77q0 16 84 48q18 48 18 60q0 54 -54 54q-70 0 -84 36z" />
<glyph unicode="-" horiz-adv-x="629" d="M48 758l1 18q12 60 67 57l20 -13l29 -1l22 11l57 -2l21 -13q2 12 14 11h8q21 -1 21 -7q173 4 179 16l64 -3q9 0 27 -37l-8 -11l-2 -48q0 -14 -8 -24q7 -11 6 -24l-1 -24q-1 -20 -8 -30l5 -36l-1 -42q-8 -17 -44 -16l-64 3l-22 -11l-78 3q-58 3 -136 0q-7 1 -7 7l-36 -5 l-43 2q-71 3 -68 69l8 12q-9 35 -19 54l15 30q-3 34 -19 54z" />
<glyph unicode="." horiz-adv-x="449" d="M47 272v30q23 36 54 35q126 -8 174 -9q77 -22 77 -44q4 -110 3 -161q12 -2 12 -12l-1 -24q-23 -54 -103 -52q-134 -10 -156 -9q-53 9 -52 55l3 144q-11 42 -11 47z" />
<glyph unicode="/" horiz-adv-x="566" d="M-4 -65q30 164 96 317q0 19 24 72q44 263 72 263q57 199 83 228q48 176 48 203q28 108 48 108q12 2 30 90q-6 32 -6 66q0 37 54 59v24q-12 15 -12 18v24q20 90 42 90h6q9 0 24 -24q34 5 54 30h18q12 -2 12 -12v-30q0 -20 -6 -30q6 -24 6 -42q0 -68 -48 -197 q0 -21 -12 -54q6 0 6 -6q-36 -28 -36 -60v-12q0 -13 6 -24q-24 -48 -36 -137l6 -12v-6q-52 -132 -84 -180l-60 -221q-30 -65 -72 -228q-16 -28 -83 -251q-44 -79 -66 -90q-35 -4 -54 -18h-24q-36 17 -36 42z" />
<glyph unicode="0" horiz-adv-x="1004" d="M158 144q10 227 30 227q-6 129 -18 162v6q0 12 12 60q-10 12 -18 101q6 63 6 102q0 51 -6 108q6 41 6 126v12l12 17v24q0 6 -12 48v72q35 46 48 120q78 90 173 90q0 10 60 12h60l18 12h18l78 -30h60q44 -18 72 -54q77 -18 77 -54q36 -103 36 -120v-137q0 -104 -36 -156 v-6q36 -30 36 -54q-20 0 -42 -84l18 -72l-6 -41l18 -30v-12q0 -11 -30 -78q42 -129 42 -162q0 -49 -6 -96q6 -57 6 -113q0 -72 -113 -186q-17 0 -108 -36q-69 -6 -132 -6h-120q-155 44 -209 144q-4 0 -18 30l6 12q-10 0 -18 42zM409 994q0 -14 24 -54q6 -10 6 -30l-6 -60 q6 -32 6 -54q0 -6 -6 -18l12 -173q-6 -67 -18 -132q6 -81 6 -120q0 -19 -12 -84l48 -89q35 -4 54 -18h12q39 15 60 54q20 101 24 101l-6 42v150q0 26 96 36v12q-12 0 -12 6l-12 -6h-36q-15 12 -24 12v18q0 30 -6 89q30 23 30 66q-30 109 -30 114v108q0 54 12 101 q0 19 -30 66q0 37 -36 66q0 11 -30 12q0 -11 -84 -66q-36 -59 -36 -83v-18q0 -6 6 -6q-12 -20 -12 -36v-6zM553 1275q12 0 12 -6q12 6 18 6v18l-24 6l-6 -12v-12zM625 1281q0 -9 24 -24h30v30q0 9 -24 24h-6q-10 0 -24 -24v-6zM739 1065q31 -47 35 -47h6l6 30v29 q0 30 -29 42q0 -12 -18 -12v-42zM774 952q6 -12 6 -18h6q12 0 12 18q-6 11 -6 18h-6q-12 0 -12 -18z" />
<glyph unicode="1" horiz-adv-x="666" d="M71 1312v18q0 10 78 63q116 67 131 67q0 6 6 6h174q48 -29 48 -55q-6 -166 -6 -205q12 -208 12 -265v-329q0 -39 6 -92q-4 -38 -12 -267l6 -44q-12 -105 -12 -166q-32 -44 -42 -44h-24q-15 13 -18 13l-18 -13q-110 -6 -138 -6q-54 0 -54 31q0 61 12 106q-6 33 -6 54v93 q0 18 12 38q-12 20 -12 37v19q0 5 12 49q0 85 6 118q-6 82 -6 173v93q0 21 6 31l-6 37v223q0 47 -54 68h-47q-48 0 -48 37q-6 59 -6 112z" />
<glyph unicode="2" horiz-adv-x="895" d="M112 30v12q0 20 6 30l-6 36v24q0 69 18 114h-6l6 11l-6 12q12 0 30 84q6 0 6 6h-6q6 30 95 114q0 13 114 156q0 6 60 59q102 118 102 216q6 0 6 6h-6l6 12q0 5 -12 48v113q0 156 -54 186l-12 6q-72 -20 -72 -78l-12 -54v-30q24 -78 24 -83q0 -41 -72 -54q0 -6 -6 -6h-155 q-9 0 -36 36l6 30v95q0 6 -12 48v72l48 126q88 113 155 113q50 14 66 24h126q10 -13 137 -36q6 -17 66 -59q54 -68 54 -132q0 -31 12 -72v-24q-12 -42 -12 -48v-101q12 -43 12 -48v-90q-32 -139 -72 -228q6 0 6 -6q-11 0 -36 -59q-47 -65 -179 -186q-67 -111 -72 -156 q24 -41 54 -41q36 0 48 -12q37 12 125 18q0 6 6 6v-6q12 6 18 6q54 -16 54 -48q0 -198 -60 -198q0 -6 -6 -6h-84q-35 14 -35 18q-77 -6 -120 -18q-20 12 -36 12h-48l-18 -12h-12q-42 12 -48 12h-12l-18 -12h-89q0 7 -36 42z" />
<glyph unicode="3" horiz-adv-x="964" d="M112 335v18q0 17 12 36h-6q10 27 36 42h30l18 -12l17 12h36l18 -12q2 12 12 12h60q14 -11 66 -18q0 -197 72 -197q0 -6 12 -6q68 0 84 125l-6 54l12 60q-32 144 -54 144q-69 42 -120 48l-6 12v59q0 156 30 156q120 42 120 90q24 6 24 66q0 21 -6 53q6 40 6 78 q-11 108 -90 108q-84 0 -84 -114v-30q0 -8 -18 -18h-78q-24 0 -48 6q-23 -6 -47 -6h-54q-9 0 -18 18v36q0 20 6 30q-12 69 -12 108q24 115 72 144q0 35 149 53q0 6 6 6h54q33 0 84 6q11 -6 18 -6q31 6 60 6q197 -42 197 -83q39 -30 60 -90v-126q0 -30 -12 -30q18 -28 18 -90 v-89q0 -30 -12 -30l6 -12l-42 -108q-48 -52 -48 -78q0 -31 66 -119q26 -56 36 -156q-6 -52 -6 -90v-66q0 -30 -12 -30l6 -12q-12 -21 -12 -47q18 -32 18 -84q0 -97 -120 -150q-54 -17 -72 -36l-12 6q-63 -30 -119 -30q-19 0 -114 6l-30 -6q-48 13 -48 30h-6l-12 -6 q-65 42 -155 120q-24 51 -36 221q-6 0 -6 18zM261 -138q0 9 18 18h18q12 -1 12 -12v-6q0 -9 -24 -23v5l-12 -5q-12 0 -12 11v12zM291 -275q0 8 18 18h30q9 0 18 -18v-42h-42q-24 10 -24 42z" />
<glyph unicode="4" horiz-adv-x="999" d="M90 479q0 60 66 185q0 22 35 84q24 30 36 90q6 0 6 6q-6 0 -6 6q11 0 66 156l78 173q41 132 108 246h155l18 -12h114q36 -9 36 -72q6 -47 6 -144v-54q0 -20 -6 -30l6 -36v-107q0 -14 -6 -24q11 -78 18 -78l-6 -12v-42l6 -12q-6 0 -6 -6h6q-6 -30 -12 -30l12 -36 q-6 -10 -6 -24h6q-6 -30 -12 -30q16 -137 48 -137h6l18 12h30q77 -18 77 -48q-6 -94 -6 -138q0 -24 -12 -24l6 -12v-12q-8 -24 -53 -24h-54q-30 -8 -42 -53q6 -60 6 -90v-192q0 -9 -24 -24h-275q-33 0 -48 30v138q-12 14 -12 24q0 20 -6 102q6 11 6 18q0 35 -42 35h-287 q-42 22 -42 42q0 38 -12 156zM311 575q6 -26 30 -36h96q36 11 36 72q-6 53 -6 65l12 24q-12 20 -12 36v84q1 30 12 30q-10 12 -18 102h-6q-20 0 -66 -180q0 -11 -48 -90q0 -17 -30 -107z" />
<glyph unicode="5" horiz-adv-x="1007" d="M141 1383q7 27 42 42h48q49 -11 66 -24q66 16 66 24h119l18 -12h12l18 12h24q29 -23 54 -36l42 24h66l18 12h12q54 -15 54 -96q20 0 23 -114v-18q0 -8 -29 -24h-102l-18 -12l-12 6v-6q-20 12 -36 12l-18 -12q-6 0 -6 6l-12 -6h-6q-43 12 -48 12h-96q-71 0 -71 -78 q0 -10 12 -35h-6l6 -12v-78q0 -15 12 -54h29q58 36 66 36q51 -6 84 -6l84 6q46 -24 96 -30q0 -14 48 -30q62 -58 95 -287v-6q-6 -78 -6 -126v-12q0 -106 6 -221q0 -168 -48 -210q-37 -53 -155 -84q-66 -15 -66 -24h-48q-32 0 -54 -6q-31 6 -60 6h-53q-62 32 -132 48 q0 14 -96 120l-24 48l6 12q-12 19 -12 36v125l12 42q-6 0 -6 6q9 0 24 24q60 -6 90 -6h108q77 -27 77 -84v-12q0 -13 -6 -24q23 -101 66 -101q102 0 102 90v77q-18 113 -18 120q0 39 6 120q-31 113 -96 113q-36 0 -66 -77l-18 -12h-71l-18 -12h-84q-9 10 -78 18l-6 30v89 q0 116 -6 342q-12 0 -12 11v24q0 192 -12 294z" />
<glyph unicode="6" horiz-adv-x="1051" d="M150 814l12 72l-6 54q6 53 6 66l-6 42q0 6 6 17q-6 51 -12 180q19 100 84 150q47 52 185 72h48l18 11h24l18 -11h60q21 0 96 -18q24 0 131 -114q50 -80 72 -216q-11 -48 -78 -48q0 -6 -77 -6h-78q-48 0 -48 90q-24 66 -78 66h-30q-36 -10 -54 -66q-10 0 -12 -60v-209 q0 -34 30 -42q65 20 72 30q12 -6 18 -6q20 12 36 12h36l18 -12h24l30 6q0 -6 6 -6q0 6 6 6q52 -42 125 -72q72 -47 72 -161q12 0 12 -30v-12q0 -306 18 -353q0 -168 -42 -168q-28 -61 -114 -108q-62 -18 -89 -18h-30l-18 -12h-18l-18 12q-21 -18 -72 -18h-48q-67 0 -161 48 l-66 54q-78 50 -78 144q-12 0 -12 12v6q11 13 18 53q-12 60 -18 60l6 30v84q0 6 -6 6q12 20 12 36q0 38 -24 96q0 5 6 48q-6 53 -6 65l6 12q-6 30 -12 126zM324 269q8 -53 23 -53h6q18 0 18 24q-8 41 -24 41h-5zM455 437q10 -251 42 -251q25 -24 72 -30q102 22 102 78v89 q18 24 18 36q-30 41 -30 60l12 18q-30 78 -30 186q-15 18 -48 18h-42q-69 0 -96 -102v-102z" />
<glyph unicode="7" horiz-adv-x="824" d="M85 1251v18q0 132 24 132q13 0 24 6q44 -48 47 -48h18q0 7 18 48q53 -10 72 -24h12q23 18 54 18q12 0 12 -6l42 6h143q6 0 48 12h6l36 -6q24 6 42 18h30q66 -26 66 -114q6 0 6 -18v-66q-51 -80 -114 -227q-27 -32 -78 -216q-57 -37 -65 -66h6l-6 -12l12 -18v-59l-12 -18 v-24q0 -6 6 -6q-6 -6 -12 -90l12 -30q-25 -87 -48 -96q0 -29 6 -72q-11 -151 -30 -185v-6q0 -25 18 -48q0 -138 -36 -138q-79 -18 -96 -18l-54 6q-33 -6 -48 -6q-66 6 -66 24v30q18 22 18 42l-12 6q-30 -24 -36 -24l-6 12v6q0 26 12 48q-18 51 -18 66q0 17 36 96 q-6 10 -6 24q36 96 36 107h18q14 0 24 -6q30 8 30 18q-16 0 -24 78q-12 0 -12 12v12q0 20 30 132l48 125l-6 12q6 0 30 66q6 0 12 18q-24 35 -24 42q3 60 18 60l-6 12q7 2 54 120q8 0 18 18q-6 0 -6 6q24 8 24 53q0 6 -12 60h-24q-15 -48 -30 -48h-78q-21 0 -54 -6 q-24 6 -42 18l-18 -12h-18q-47 14 -47 54q0 48 -24 72zM480 1000h18q9 0 18 24q-11 41 -24 41l-12 -17v-48z" />
<glyph unicode="8" horiz-adv-x="1040" d="M151 114v24q0 16 12 36q-12 19 -12 36q12 32 12 36q-12 19 -12 35v12q0 25 6 48q-6 23 -6 48v24q0 5 12 48v30q0 6 -12 48v12q28 76 42 90q66 35 78 35v24q-84 67 -84 84q-12 0 -18 78l6 84q0 7 -6 60q12 45 12 83v132q61 156 137 156l78 36h78q6 0 48 12h84 q102 -17 102 -54q19 -12 35 -12h54q40 -16 60 -54q0 -21 48 -66q18 -71 18 -84q-4 -54 -12 -54l6 -30v-35q0 -22 -6 -54q12 -32 12 -66q-12 -39 -12 -54v-48q-33 -39 -84 -126v-41q66 -39 66 -66q0 -18 12 -60q0 -51 6 -162q-8 0 -30 -30l24 -30v-191q-12 -10 -24 -102 q-49 -65 -60 -72q-86 -60 -161 -60q0 -6 -6 -6h-48l-18 12h-6q-15 -12 -18 -12h-126q-137 26 -209 108q-51 38 -72 126zM474 156q0 -84 72 -84q72 9 72 84v90q12 43 18 119q0 174 -54 174h-36q-66 0 -66 -102q-6 -153 -6 -281zM480 964q6 -46 18 -60h-6q20 -60 66 -60 q78 0 78 150q0 68 6 125q-30 84 -66 84q-12 6 -18 6q-78 0 -78 -126q6 -86 6 -95z" />
<glyph unicode="9" horiz-adv-x="1033" d="M134 1088q0 168 42 168q28 61 114 108q62 18 89 18h30l18 11h18l18 -11q21 17 72 17h48q67 0 161 -47l66 -54q78 -50 78 -144q12 0 12 -12v-6q-11 -13 -18 -54q12 -60 18 -60l-6 -30v-83q0 -6 6 -6q-12 -20 -12 -36q0 -38 24 -96q0 -5 -6 -48q6 -53 6 -66l-6 -12 q6 -30 12 -125l-12 -72l6 -54q-6 -53 -6 -66l6 -42q0 -6 -6 -18q6 -50 12 -179q-19 -100 -84 -150q-47 -52 -185 -72h-48l-18 -12h-24l-18 12h-60q-21 0 -96 18q-24 0 -131 114q-50 79 -72 215q11 48 78 48q0 6 77 6h78q48 0 48 -90q24 -65 78 -65h30q36 10 54 65 q11 0 12 60v210q0 33 -30 42q-65 -20 -72 -30q-12 6 -18 6q-20 -12 -36 -12h-36l-18 12h-24l-30 -6q0 6 -6 6q0 -6 -6 -6q-52 42 -125 72q-72 46 -72 161q-12 0 -12 30v12q0 305 -18 353zM379 975q30 -41 30 -60l-12 -18q30 -78 30 -186q15 -18 48 -18h42q69 0 96 102v102 q-10 251 -42 251q-25 24 -72 30q-102 -22 -102 -78v-90q-18 -23 -18 -35zM697 1094q8 -42 24 -42h6l17 12q-8 54 -23 54h-6q-18 0 -18 -24z" />
<glyph unicode=":" horiz-adv-x="509" d="M93 133q6 74 6 144v6q3 12 30 24l54 -6q76 4 90 18h30l18 -12q0 15 72 18q20 -5 35 -36v-18q-11 -43 -11 -48v-66q0 -66 -60 -78h-42q-25 -18 -90 -18l-12 6l-36 -6h-54q-22 0 -30 72zM105 1029v24q20 54 29 54h62q57 0 171 5q2 12 12 12h11q51 -7 51 -53v-18 q-11 -43 -11 -48v-96q0 -60 -46 -60l-182 6q-5 0 -45 -6q-36 12 -40 30v102q-12 42 -12 48z" />
<glyph unicode=";" horiz-adv-x="495" d="M88 -128q0 9 24 30l12 -6l12 6v-6q96 37 96 78q6 11 6 24q0 66 -54 66h-60q-10 0 -18 42h-6q12 65 12 203q15 30 54 30q72 -6 108 -6q2 -12 12 -12h101q12 0 18 -48q-6 -129 -18 -239q6 -63 6 -102q-19 -113 -60 -113q0 -29 -107 -48l-54 -12h-42q-42 23 -42 113z M108 861q5 60 5 68q0 5 -5 89q0 62 93 62q2 14 10 14h83q28 0 72 7q14 0 31 -42l-5 -82v-54q-10 -103 -57 -103h-82q-5 0 -42 -14h-15l-16 14h-51q-10 0 -21 41z" />
<glyph unicode="&#x3c;" horiz-adv-x="1121" d="M32 618v24q12 15 12 18v42q-12 15 -12 18v18l12 18v35l-12 -12v16q15 48 64 48q89 0 185.5 31t112.5 31l24 14q146 26 285 56q21 0 216 65q18 0 74 24h44q8 0 17 -18v-29q-10 -11 13 -72q-6 0 -6 -6q6 0 6 24q-6 0 -6 -6q11 -2 11 -12v-4q0 24 -8 -18v-36 q-14 -36 -52 -36q-47 -30 -105 -30q-8 0 -128 -36l-41 6q-29 -24 -192 -59q0 -7 -6 -18q19 -23 169 -36q0 -6 6 -6q31 6 52 6h18q31 0 87 -18q34 18 81 18q47 -6 100 -8q0 6 6 6q11 -39 11 -52q-6 -82 -6 -52q5 -44 -2 -60v-12q20 -36 -7 -36v-18l-3 -14v-12h-3 q-61 -10 -96 12h-17q-50 20 -157 16q-21 16 -29 16h-6q-26 -16 -53 14h-69q-22 21 -117 40q-32 -6 -47 -6q-25 0 -210 42q-20 14 -192 40z" />
<glyph unicode="=" horiz-adv-x="728" d="M46 454l7 11l3 38v26q0 6 8 18l-3 24l1 42q7 17 40 16l60 -3l20 11l211 -3q53 -3 126 0q6 -1 6 -7l33 5l86 -2q20 -3 17 -69l-7 -12q0 -1 1 -2q13 -14 4 -46l2 -6l-3 -7q3 -2 7 -7l-1 -18q-11 -60 -52 -57l-18 13l-28 1l-20 -11l-52 2l-20 13q-1 -12 -13 -11h-7 q-20 1 -20 7q-299 6 -304 -6l-59 3q-8 0 -25 37zM56 504q1 -2 2 -9v5zM64 814v38q0 10 14 24q-3 9 -7 16l4 7q-3 2 -7 7l1 18q10 60 23 57l54 -3l25 -1l20 11l49 -2l20 -13q2 12 12 11h7q18 -1 18 -7q285 -16 290 -4l57 -3q8 0 24 -37l-7 -11l-2 -28q0 -8 -2 8v-10 q-1 -16 -5 -26q10 -11 10 -42q0 -61 -47 -61h-71l-6 -3l-201 3q-51 3 -120 0q-6 1 -6 7l-32 -5l-38 2q-38 -8 -52 17q-16 4 -25 30z" />
<glyph unicode="&#x3e;" horiz-adv-x="1103" d="M32 808q16 82 16 52q-5 44 -8 60v12q-10 36 7 36v18l2 3v12h24q41 0 75 -11h18q50 -10 157 -16q21 -36 29 -36h6q26 36 53 16h69q22 -21 117 -40q32 6 46 6q26 0 211 -22q20 -14 172 -30l24 -24v-24q-12 -15 -12 -18l10 -72q12 -15 12 -18v-18l-12 -18v-36l12 13v-16 q-15 -48 -64 -48q-79 0 -175.5 -31t-112.5 -31l-24 -14q-146 -26 -285 -56q-21 0 -216 -66q-18 0 -74 -24h-24q-8 0 -17 18v30q10 11 -13 72q6 0 16 36q-6 0 -16 -54q6 0 6 6q-12 2 -12 12v4q0 -24 -1 48v36q14 36 42 36h105q8 0 128 35l41 -6q29 24 192 60q0 7 6 18 q-20 23 -169 36q0 6 -6 6q-31 -6 -52 -6h-18q-31 0 -87 18q-34 -18 -82 -18q-46 6 -69 18q0 -6 -6 -6q-41 29 -41 42z" />
<glyph unicode="?" horiz-adv-x="920" d="M29 1091q0 150 60 228q40 71 167 71q0 6 18 6h42q51 0 72 18h18q6 0 48 -12l12 6q13 -10 84 -18q141 -33 167 -77q66 -22 66 -114q6 -36 24 -66q0 -15 -18 -42v-42q18 -57 18 -72v-30q0 -5 -6 -5q0 -6 6 -6q-6 -99 -6 -150v-36q-24 -132 -84 -168q-43 -52 -143 -71 q-18 -37 -18 -114v-18q-10 0 -24 -12h-210q0 14 -24 24l6 30v96q0 6 -12 65v72q0 66 78 66q114 58 114 84q6 11 6 18q0 6 -6 18q12 41 12 72v173q0 90 -78 90h-12v12h-42q-54 -23 -54 -108q-6 0 -6 -6l6 -36v-12q0 -11 -42 -36h-203l-18 24q-10 0 -18 78zM268 -40l6 12v132 q0 21 18 59h102q180 0 180 -47q-6 -60 -6 -90v-48q0 -60 -60 -60q-28 0 -186 6z" />
<glyph unicode="@" horiz-adv-x="2706" d="M128 375q36 36 42 54q0 4 -24 30v24q18 22 18 42q-30 21 -30 60v96q24 110 24 131q-18 22 -30 72q12 0 12 30l-6 72q0 9 12 60l-6 59q0 14 6 24q-12 43 -12 102q30 108 36 108q95 126 143 126h42q21 18 72 18h42q24 -10 24 -42v-102l-18 -24q-6 0 -18 6q-60 -13 -60 -84 v-30q0 -15 12 -54q-12 -19 -12 -36v-317l-6 -42q8 -46 18 -71q-6 0 -6 -6v-54q12 -43 12 -48v-6q0 -16 -12 -36l6 -12q-6 0 -6 -6v-18q0 -55 -6 -156l12 -30l-6 -12l6 -12h-6q0 -6 6 -6q6 -76 24 -113q49 -26 78 -60q0 -21 6 -126q0 -17 -24 -30h-30q-6 0 -6 6 q-150 17 -150 42q-68 22 -77 48q-60 47 -60 102v36q-36 36 -36 113v60zM221 535q19 -12 30 -12l12 18v6q-10 0 -24 12q0 -9 -18 -24zM553 75q26 100 60 181q0 36 -6 73l12 74q51 184 72 232l-6 11q0 14 10 62q0 34 42 40v5q-12 27 -12 51l50 198l-6 28q0 6 18 68v11l-6 12 q15 22 18 22q0 82 44 147v29l-12 17l40 45q12 50 12 66q0 7 48 23h18q75 -10 185 -4q18 0 42 -125q32 -165 48 -215l16 -192q0 -17 -6 -39q29 -68 44 -68q0 -6 -6 -6q54 -144 54 -226q47 -160 65 -300v-51q16 -27 24 -28q0 -31 36 -175v-6q0 -34 -48 -34h-30q-34 0 -95 6 q-11 -6 -24 -6q-3 0 -24 6q-32 -6 -60 -6h-24q-43 25 -60 113q0 16 2 34l-12 23q12 21 12 45q0 7 -44 45h-108q-40 0 -65 -237v3l6 -11l-24 -12q-41 6 -66 6l-84 -10q-25 0 -66 -6q-9 -4 -36 -4q-48 0 -48 85zM953 572q1 -94 25 -96h12l52 6q28 0 14 181v5l-36 30 q-32 0 -32 12q-48 -30 -35 -138zM991 1015q0 -48 36 -48h6q26 6 35 30q0 14 -53 42h-12q0 -12 -12 -12v-12zM1434 1274l6 42q-6 81 -6 113q26 44 35 44q31 -6 96 0q20 -12 36 -12t36 12q0 -6 6 -6q2 12 12 12l108 -10l18 -12v6q18 -6 18 -2l36 2q21 -2 47 -2l6 2l12 -6h18 l12 6q0 3 116 -4q0 8 36 4q0 -6 6 -6q0 6 6 6q0 -6 6 -6v6l12 -6h6q6 0 6 6l10 -112q0 -5 3 -40t3 -61q-12 -28 -24 -30h-36q-68 -4 -84 -4q-18 0 -66 -14q-13 0 -18 -30q36 0 48 -150q-12 -108 -24 -108v-23l18 -24v-72q-24 -141 -24 -186v-30q0 -13 -6 -24q6 -10 6 -30 q0 -85 -12 -149q12 -48 12 -102v-215q0 -44 -30 -54q-42 12 -47 12h-42q0 6 -39 3t-57 -3h-60q-9 0 -18 18v143q0 20 6 30l-6 36v126l-18 72q6 61 6 95v144q0 6 12 48v30q0 5 -12 48q18 29 24 227q-6 24 -6 42q0 6 6 18q0 138 -48 138h-73.5h-52.5q-31 0 -41 42zM1772 1237 q0 1 24 -7q0 5 18 5q162 50 162 71q-9 23 -18 23h-12q-33 -40 -48 -40l-42 -24q0 -9 -42 -23l-24 6q-18 0 -18 -11zM2187 1q6 105 6 126q29 34 78 60q18 37 24 113q6 0 6 6h-6l6 12l-6 12l12 30q-6 101 -6 156v18q0 6 -6 6l6 12q-12 20 -12 36v6q0 5 12 48v54q0 6 -6 6 q10 25 18 71l-6 42v317q0 17 -12 36q12 39 12 54v30q0 71 -60 84q-12 -6 -18 -6l-18 24v102q0 32 24 42h42q51 0 72 -18h42q48 0 143 -126q6 0 36 -108q0 -59 -12 -102q6 -10 6 -24l-6 -59q12 -51 12 -60l-6 -72q0 -30 12 -30q-12 -50 -30 -72q0 -21 24 -131v-96 q0 -39 -30 -60q0 -20 18 -42v-24q-24 -26 -24 -30q6 -18 42 -54l-6 -12v-60q0 -77 -36 -113v-36q0 -55 -60 -102q-9 -26 -77 -48q0 -25 -150 -42q0 -6 -6 -6h-30q-24 13 -24 30z" />
<glyph unicode="A" horiz-adv-x="941" d="M9 56q26 100 60 181q0 36 -6 73l12 74q51 184 72 232l-6 11q0 14 10 62q0 34 42 40v5q-12 27 -12 51l50 198l-6 28q0 6 18 68v11l-6 12q15 22 18 22q0 82 44 147v29l-12 17l40 45q12 50 12 66q0 7 48 23h18q47 -6 107 -6q36 0 78 2q18 0 42 -125q32 -165 48 -215l16 -192 q0 -17 -6 -39q29 -68 44 -68q0 -6 -6 -6q54 -144 54 -226q47 -160 65 -300v-51q16 -27 24 -28q0 -31 36 -175v-6q0 -34 -48 -34h-30q-34 0 -95 6q-11 -6 -24 -6q-3 0 -24 6q-32 -6 -60 -6h-24q-43 25 -60 113q0 16 2 34l-12 23q12 21 12 45q0 7 -44 45h-108q-40 0 -65 -237 v3l6 -11l-24 -12q-41 6 -66 6l-84 -10q-25 0 -66 -6q-9 -4 -36 -4q-48 0 -48 85zM302 1081q0 1 24 -7q0 5 18 5q162 50 162 71q-9 23 -18 23h-12q-33 -40 -48 -40l-42 -24q0 -9 -42 -23l-24 6q-18 0 -18 -11zM409 553q1 -94 25 -96h12l52 6q19 0 19 80q0 40 -5 101v5l-36 30 q-32 0 -32 12q-38 -24 -38 -96q0 -19 3 -42z" />
<glyph unicode="B" horiz-adv-x="1043" d="M107 857q0 13 6 66q-7 25 -7 47q0 19 5 37v120q0 34 24 59v18q-16 0 -24 178q6 37 6 90l12 6h266q7 8 56 8h21q0 6 6 6h18l18 -12h12l18 12h102l135 -49q39 -46 74 -101q34 -49 34 -84l8 -60q0 -13 6 -24q-6 -65 -6 -113v-60q-16 -15 -24 -126q-73 -98 -91 -98 q-15 0 -48 -26v-12q108 -65 145 -139q20 -18 48 -84v-78l12 -78v-29q-6 -28 -6 -54q-30 -135 -102 -168q-69 -72 -125 -72q-13 0 -66 6l-78 -42q-49 0 -60 -12h-12l-18 12h-107q-60 0 -60 18h-6q-15 -12 -24 -12q-12 0 -132 -6q-18 24 -18 36q6 72 12 78q0 6 -6 6 q-4 81 -4 120v78l6 35q-6 12 -6 18q6 134 6 216q-2 141 -26 269zM401 91h12q11 0 11 12v6h-11q-12 -2 -12 -12v-6zM407 1186q0 -41 19 -65v-54q0 -11 -13 -66q0 -94 41 -94q15 -1 28 -1q68 0 68 27l6 20v6q0 6 -6 6l6 12v6q0 6 -6 6l20 102l-6 30l6 24v8q0 105 -74 105 q1 0 -14 12h-34q-41 -8 -41 -72v-12zM409 316q0 -28 49 -60q0 -9 18 -17h-2q35 0 83 29l-1 12v36q12 22 12 42q2 34 2 67l-4 70v6q10 43 10 48v6q-12 24 -36 36l-54 -1l-39 -25q-30 -22 -29 -84l1 -83v-9q0 -47 -10 -73zM692 334q6 -11 6 -18h50l6 30q-6 11 -6 24h-50z" />
<glyph unicode="C" horiz-adv-x="953" d="M101 303v149q0 135 12 168q-6 10 -6 24v24q2 42 12 42q-12 142 -18 335q4 48 12 48l-6 24q0 166 54 227q19 49 108 90q2 9 89 48h18l18 -12h6q0 10 42 30h48q21 -18 72 -18h36q47 -28 60 -48q26 0 63 -30l12 -6q0 8 20 -30h12q10 0 24 -24v-72q28 0 32 -173q18 0 18 -84 q-4 -26 -48 -42h-179q-14 11 -60 18q-12 15 -12 18v42q1 30 12 30q0 6 -6 6l6 24l-14 63q-11 0 -66 36h-6q-21 -18 -30 -18q-5 0 -28 6l-18 -24q22 -25 22 -36v-12q-24 -30 -24 -57v-24l-24 -36v-6h30v-36l-12 -18v-6q0 -144 -30 -144l30 -54l-18 -59q24 -59 24 -102l-6 -24 q6 -11 12 -54l-24 -90q6 -11 6 -18q-6 0 -6 -6q16 0 44 -65l-12 -18v-6q3 -16 22 -36h18q-4 3 -4 5q0 8 58 13q40 20 40 64q0 9 -2 19q13 0 30 42l-8 96v18q0 19 60 30q2 -12 12 -12h191q30 -16 30 -24v-126q0 -84 -48 -185q-7 0 -14 -42q-15 0 -15 -29q0 -17 5 -43 q-55 -13 -55 -54q0 -26 -154 -36l-66 -24h-12l-18 12q-169 0 -215 54q-108 48 -108 108q0 27 -18 54v36l6 12q-36 15 -36 48zM201 887q6 -26 30 -36h12q57 11 95 72v12q0 8 -17 18h-30q-90 -28 -90 -66zM641 1125q0 -4 54 -54h12q0 15 30 18v36q-63 14 -84 24 q-12 -2 -12 -12v-12z" />
<glyph unicode="D" horiz-adv-x="953" d="M111 1376q0 70 35 107q61 0 113 -18h112q30 0 89 -6q34 18 53 18h12l18 -12h23q34 0 101 -24q136 -89 136 -136q23 -81 41 -189v-17q14 -101 14 -148v-59l4 -36q6 -9 6 -29q0 -50 -6 -260q0 -11 -12 -30h6q0 -6 -6 -6l6 -12v-47l-6 -12h6q0 -11 -36 -59q6 0 6 -6v-23 q0 -24 12 -77q-5 -53 -18 -53q-47 -130 -82 -130q-1 -32 -113 -89h-59l-17 -12h-83l-36 18q0 -6 -5 -6h-42l-18 12q-37 -24 -59 -24h-154q-35 18 -35 53v42q0 16 12 35q-10 0 -12 12v36q0 16 12 35q6 235 11 248q-5 9 -11 65q0 105 29 142q-23 19 -23 59v166l5 29 q-5 0 -5 18v41l5 30l-23 124v12q0 5 12 47v47q-12 39 -18 124zM181 292h24q42 0 42 12q42 -12 47 -12h12v6q0 12 -12 12h-101q-10 0 -12 -12v-6zM393 543q20 -91 20 -120v-41q0 -38 -12 -83q0 -47 59 -47h18q29 21 65 77q41 52 59 202l-6 83q-16 54 -16 78q0 12 4 17h-6 q10 5 16 5q0 6 -12 48v47q0 33 6 83v71q6 0 6 6q0 5 -6 5q-14 107 -29 107q0 6 6 6q-22 70 -42 104q-28 36 -81 48q-29 -14 -29 -30l6 -12q0 -194 2 -252l6 -24q0 -38 -34 -378zM660 790q18 0 18 -12q14 12 23 12v6q-9 18 -17 18h-6q-18 -10 -18 -18v-6z" />
<glyph unicode="E" horiz-adv-x="792" d="M101 1387q0 27 52 45l12 20q12 0 12 -11q41 11 46 11l35 -20q47 0 111 6q33 -8 46 -17l18 11h87q3 0 18 -11h105q40 0 40 -46v-23q0 -20 -3 -52v-22l-2 -23v-45q0 -19 -18 -40q-48 0 -96 -7q-24 -6 -61 13h-53q-52 0 -52 -52v-17q0 -5 12 -46v-33q-15 -39 -15 -63 q0 -21 20 -40q47 0 47 -35h87l18 12h76q29 -9 29 -74v-80q0 -19 -9 -56q0 -4 3 -30v-34h-187l-29 6q-40 -21 -40 -28l10 -137l-24 -46q0 -11 14 -94l-12 -40q15 -62 29 -62h18l23 17h221l10 -29q10 -14 10 -19q0 -3 -3 -3q0 -6 -1 -40l-10 -118q-12 -51 -29 -51h-76l-17 12 l-88 10q-5 0 -46 -12h-6l-18 12h-75q-16 0 -35 1q0 -10 -29 -11q-130 0 -163 17v62l5 29q-5 0 -11 46q6 62 6 108v256q0 31 5 81q-5 1 -5 56v46q0 27 5 57q-5 21 -5 51v52q0 48 5 102l-5 28q0 9 5 92q0 64 -11 193q6 31 6 52q0 32 -12 63zM340 1318q0 -11 12 -13h30 q18 9 18 18v30h-36q-14 -12 -24 -12v-23z" />
<glyph unicode="F" horiz-adv-x="776" d="M101 1393q10 39 39 39h147q16 0 16 -6l28 6h289q62 0 77 -28v-5q0 -6 -6 -6q6 -9 17 -65q0 -135 -55 -135q-30 -5 -44 -5q-96 5 -114 5q-81 0 -81 -45v-99q11 -53 11 -60v-31q0 -73 39 -82h80q12 0 22 -5q71 6 80 6h63q12 -2 24 -33q5 -129 5 -125q-5 -93 -22 -93h-156 l-66 11h-22l-11 -6v6q-30 -14 -30 -55v-49q-16 -80 -16 -180q0 -25 1 -52l-5 -11q11 -78 11 -268q0 -21 -100 -33q0 -6 -17 -6h-22l-16 11h-60l-16 -11h-22q-44 16 -44 77q-11 230 -11 323q-5 11 -5 16h5q-11 18 -11 33q20 28 31 28q-11 17 -11 32v131q0 47 -5 99q5 21 5 43 q-5 49 -5 60q0 6 5 17l-5 38q0 42 5 76l-11 246q6 30 6 44q-11 100 -11 147h-6z" />
<glyph unicode="G" horiz-adv-x="977" d="M101 309v158q0 140 17 154l-11 17v39q13 34 17 34l-6 29v57q-11 40 -11 45v130q0 6 6 6q-12 19 -12 34v17q2 11 12 11l-6 12q6 17 11 17q-11 18 -11 34v17l23 136q71 114 107 114q98 63 142 68l23 -12l51 29h45q46 -16 46 -23l11 6h57q108 -63 153 -108h17q9 0 23 -23 v-68q21 0 34 -113q9 0 22 -97q6 0 6 -6h-6l6 -11v-11q-11 -29 -23 -29v-51q-7 -22 -51 -22h-22q-13 0 -23 5q-39 -7 -51 -17l-115 10q-23 8 -33 41v34h23q-11 15 -11 17v40q0 5 11 46v28q-11 10 -17 85q-11 0 -68 40h-11q-22 -17 -63 -17q-22 -50 -22 -57v-23 q-23 -32 -23 -85v-23l-23 -28v-11h29v-17q0 -19 -17 -40l11 -335q0 -10 -11 -28q13 0 17 -57q0 -6 -23 -68v-6q0 -25 23 -107v-6q-12 -23 -17 -23q4 -21 45 -39h17q8 9 74 17v-12h17q91 34 91 114q0 153 -29 153q-91 0 -122 40h-6l6 68q18 119 40 119h145q20 0 51 -6l11 6 q39 -6 62 -6h57q28 -17 40 -79l-6 -57q0 -50 17 -74v-51q0 -5 -11 -45v-51q17 -68 17 -91q-6 -55 -6 -108q-11 0 -17 -40l6 -56q0 -17 -63 -40l-11 6h-28q-82 -46 -176 -46q-72 6 -85 6v-6l-12 6q-188 0 -261 79q-46 0 -68 63q0 45 -22 68v6q0 15 11 34q-40 23 -40 34z M621 578q5 -32 36 -42q35 0 84 72v12q0 8 -18 18h-18q-51 0 -84 -60zM651 1068q0 -5 60 -54h12v66h-42l-18 12q-12 -2 -12 -12v-12z" />
<glyph unicode="H" horiz-adv-x="1037" d="M101 394q0 6 6 6q0 183 12 345q-6 10 -6 23q0 20 6 30q-6 40 -6 64v65q0 37 6 76l-6 23l12 369q9 0 23 12h18q41 -12 46 -12h100q24 17 64 18q47 0 47 -71q-6 -76 -6 -123v-251l-5 -41q17 -41 76 -41q27 0 58 5q53 0 53 211q-6 133 -6 164l-12 41v35q0 44 41 65h59 q41 -12 47 -12h41l17 12h12l18 -12h41l17 12h18q3 0 29 -24q0 -89 12 -269q-12 -292 -12 -351l-12 -41v-18q0 -11 12 -59q-23 -70 -23 -76q11 -46 23 -64v-23q-12 -42 -12 -47v-182q0 -287 -47 -287h-35q-3 0 -17 12h-88q-60 0 -94 6q-33 0 -47 35v17q18 26 18 41 q0 18 -18 77v29q0 94 -11 187q6 89 6 123q0 24 -6 47q0 53 -53 53h-53q-52 0 -52 -47q0 -6 5 -18q-5 -70 -11 -76q6 -40 6 -64v-111q0 -26 -12 -47h6q0 -38 6 -117q0 -10 -6 -71q0 -37 -59 -58h-12q-46 0 -123 -6q-11 6 -17 6l-29 -12q0 6 -24 6q-29 0 -29 58q0 20 6 30 l-6 29q6 188 6 217q0 82 -18 82z" />
<glyph unicode="I" horiz-adv-x="583" d="M121 147q0 3 12 90v113q0 109 -6 306q0 6 6 6l-6 29v90q0 25 6 48l-12 84q6 72 6 108q0 52 -6 287q6 12 6 18q-6 10 -6 30v18q0 60 72 60h12l60 -18q5 0 47 12h30l18 -12h54q10 0 24 -24q0 -33 -6 -84q12 -182 18 -497q-6 -215 -12 -215q6 -33 6 -54v-54q0 -59 6 -144 l-6 -12l6 -36v-29q0 -18 -6 -18l6 -30v-18q0 -70 -12 -96l6 -36q-18 -60 -42 -60h-245q-30 10 -30 42q-6 34 -6 96z" />
<glyph unicode="J" horiz-adv-x="885" d="M-3 522q18 78 36 78h179l66 -24q18 0 18 -78v-30q0 -25 -6 -66q32 -137 90 -137h42q60 19 60 48q0 11 24 83q-6 60 -6 90v180l6 36q-6 10 -6 30v6l6 35q-8 41 -18 54v60q0 109 -6 305q6 12 6 18q-11 35 -18 198q9 24 18 24l60 -6l35 6q53 -6 90 -6h48q30 -18 30 -42 q4 -377 24 -377q-12 -22 -12 -54q12 -20 12 -36v-24q0 -13 -6 -24q12 -19 12 -36q0 -30 -12 -30l6 -30v-18q0 -13 -6 -23l6 -12q-12 -25 -12 -36l18 -54q0 -79 -12 -132q12 -19 12 -30q0 -18 -6 -18l6 -60v-107q0 -12 -12 -12l6 -12q-55 -148 -186 -216q-43 -19 -119 -30 q0 -6 -6 -6h-90q-14 14 -78 18q0 9 -48 24q0 -6 -6 -6q-6 9 -125 78q-76 64 -84 138q-20 0 -30 257q-6 0 -6 6z" />
<glyph unicode="K" horiz-adv-x="926" d="M102 1379v12q13 30 60 30h54q14 -1 24 -7q11 6 24 6h60q49 0 49 -48l-1 -121q0 -30 -13 -30q13 -19 13 -36l-1 -72l6 -42l6 -1l61 132q18 53 43 169q14 30 36 30q18 0 18 -6l72 5h120l18 12h12q15 -12 25 -13v-36q-1 -32 -117 -246q-24 -90 -79 -180q0 -11 -54 -132 q-1 -6 -7 -18q0 -25 42 -72q15 -48 136 -302l55 -96q0 -12 73 -157q32 -97 48 -97l-1 -30q-10 -24 -42 -24t-54 6q-57 -5 -109 -5h-48q-6 0 -6 -6q-42 0 -95 85q0 69 -50 145q1 21 -29 48l6 12q-12 15 -12 30h-24q-12 0 -18 -35q-1 -49 -1 -87q0 -137 14 -137v-6 q-1 -43 -43 -53v6q-20 -12 -37 -12h-48l-18 12l-78 1q-48 0 -48 36q-5 32 -5 60l10 67q0 30 -12 30l6 12l1 30q0 5 -12 48v30q0 14 6 24q-6 20 -17 126l6 42l-5 277q1 14 7 24l-18 48q6 12 6 18h-6q12 22 12 49q-18 30 -18 48l1 48q1 30 12 30q-12 20 -12 36v72q2 30 13 30 q-17 20 -17 165v16z" />
<glyph unicode="L" horiz-adv-x="740" d="M101 1175v188q1 90 17 89h88q20 0 29 -6l36 5h102q19 -1 19 -72v-7v-6v-48q0 -101 3 -239l-6 -72q5 -40 5 -78q-13 -38 -13 -48q0 -4 24 -66v-6q-19 -25 -19 -48l5 -83l-6 -60q6 -54 17 -54l-6 -12l9 -180q-11 -44 -11 -66q0 -23 12 -23l118 -11l18 12h12q42 7 48 7h53 q44 -1 53 -31v-66q11 -53 11 -58v-94q-22 -22 -49 -26q-157 8 -233 9q-69 -1 -135 -5q-54 -4 -128 -3h-34q-28 13 -28 69q0 17 3 38q-4 173 -12 216q1 119 1 338v258l1 78q0 35 19 103v12q0 12 -18 10z" />
<glyph unicode="M" horiz-adv-x="1366" d="M103 323v101q0 17 12 36q-12 22 -12 48v6q0 16 12 36q0 6 -12 48v78q12 42 12 48v24q0 5 -12 47v48l24 192q-6 10 -6 24v6q-13 55 -13 87q0 19 5 29l-6 35v18q0 51 6 162q31 30 54 30l85 -10l18 12h12q30 -6 72 -6q25 0 54 2q42 -23 42 -42h-6q0 -6 6 -6q12 -66 24 -66 q32 -129 66 -173q0 -6 -6 -6q12 -15 12 -30q75 -264 113 -264q12 0 42 48q21 83 60 132q20 102 30 102q24 61 60 125q26 96 48 96q0 34 24 72l36 24q51 0 233 6q54 -5 54 -42l-12 -216l12 -29q-6 -118 -6 -156q0 -47 6 -168q-6 -11 -6 -18l12 -65q-6 0 -32 -18l4 -102 q-6 -57 -6 -108l20 -96q-6 -26 -6 -70q0 -82 20 -229q1 -17 1 -32q0 -100 -57 -100q-20 0 -30 6q-51 -6 -83 -6h-108q-48 0 -60 60v78q0 16 12 36q-24 82 -24 213q0 35 2 74q-13 18 -18 18h-6q-18 0 -24 -66q-10 -70 -16 -173q-19 -89 -36 -138q0 -80 -42 -96h-84l-17 12 h-96q-29 0 -54 246q-44 251 -68 251h-12q-9 0 -18 -24q6 0 6 -6v-48l-6 -30q6 0 6 -6l-12 -24l12 -41l-6 -12q12 0 18 -78q-6 -105 -6 -132q0 -4 6 -78q-6 0 -6 -6q0 -30 -154 -30h-77q-56 0 -78 60v54q0 16 12 36q-12 0 -12 30v108q0 16 -8 36q-6 0 -6 6z" />
<glyph unicode="N" horiz-adv-x="1025" d="M101 542l6 31l-6 37q0 10 18 69q-12 44 -12 68q0 28 6 37q-6 53 -6 87v69q0 26 18 68l-18 112q6 53 6 87v112q0 98 60 112h197q60 0 98 -168q4 0 18 -56q-6 0 -6 -6q10 0 30 -100h6l-6 -12q17 -27 36 -126q24 -73 52 -73q31 12 36 44l-6 31q0 -44 6 -2q-6 107 -6 213 l6 43q-6 8 -6 44q0 21 6 31l-6 37q0 63 24 93q110 7 161 7h54q33 0 48 -31v-13q0 -42 -6 -74q6 -33 6 -38q-6 -77 -6 -81q6 -77 6 -87q-6 -59 -18 -111q18 -67 18 -230v-7q0 -52 -12 -80q12 -109 12 -230l-6 -13q6 -13 12 -56l-12 -174q6 -34 6 -50l-6 -55q6 -44 6 -75 l-36 -25q-103 6 -120 6q-74 -6 -77 -6q-102 0 -102 62q-22 135 -36 149l-54 131l6 12q-15 0 -42 183q-12 75 -30 75h-18q-13 -11 -42 -106q20 0 24 -201q-12 -43 -12 -75q18 -56 18 -93v-25q0 -89 -48 -112h-101q-126 0 -126 44q-6 10 -6 24q6 159 6 187q9 0 18 19v31 q-30 0 -30 56v6q0 80 -6 174z" />
<glyph unicode="O" horiz-adv-x="888" d="M101 1161v90q0 84 66 192q79 59 240 59q2 12 12 12h12q40 -12 131 -24q44 0 108 -71q50 -27 78 -90l-6 -12q14 0 18 -60q0 -56 -6 -114l12 -341l-6 -36q6 -32 6 -54q0 -13 -6 -24q6 -32 6 -53v-132l12 -42q0 -38 6 -156q-16 -132 -72 -191q-105 -69 -192 -78l-41 6 l-54 -6q-21 0 -48 18q0 -12 -12 -12h-18q-12 12 -72 18q0 10 -48 24q-77 77 -102 138q-12 44 -12 59q0 14 6 24q0 14 -6 24q6 85 6 144v36q0 33 -6 84q0 6 6 6l-6 42v47q0 129 -6 282q6 51 6 84q-12 59 -12 107zM353 1042q12 -179 12 -521v-6q0 -14 -6 -24q6 -11 6 -24v-102 q0 -16 12 -36q-6 0 -6 -6l42 -24h60q39 11 59 72v54q0 5 -12 48v168q0 5 12 47q-12 15 -12 18v30l12 42q-12 20 -12 36q0 11 12 30q-10 0 -24 204l6 12q-6 10 -6 23v6q0 14 6 24q-14 126 -65 126q-7 0 -18 6q-78 0 -78 -108l6 -54q0 -18 -6 -41z" />
<glyph unicode="P" horiz-adv-x="930" d="M101 1364v18q1 30 12 30l-6 12q19 36 48 36q15 0 48 -6l36 6q27 0 54 -18h17l18 12h42q0 6 30 -10h36q0 12 66 16q103 -36 215 -66q11 -4 42 -42q34 0 66 -60h-6l36 -95h-6q12 -20 12 -36v-48q-17 -25 -17 -80q0 -23 3 -52q8 -42 18 -42l-6 -12l6 -12l-18 -30v-24 q0 -31 18 -53l-6 -12h6q-10 -6 -34 -36q1 -8 1 -18q0 -47 -25 -116q-27 -24 -119 -64q-106 -50 -210 -52q-14 2 -25 2q-43 0 -43 -30q0 -33 6 -65q8 -67 8 -98q0 -26 -6 -26l6 -12v-42q-12 -42 -12 -48v-24q0 -12 12 -60q-12 -19 -12 -46v-47q0 -12 -12 -12h-125l-18 -12 l-6 10q-35 0 -96 -6q-30 8 -30 41v72q0 65 -6 108q6 38 6 102q0 24 -6 108q0 6 6 6l-6 29v24q0 25 6 48l-6 24l12 108l-12 263l6 72q-6 111 -6 162l6 12l-18 72v65q0 6 6 6q-12 22 -12 48zM394 808q0 -36 42 -54q0 -6 24 -18h12q102 51 102 90q-12 47 -12 71q0 49 12 138 l-24 156q-28 30 -96 30q-42 -9 -42 -24v-72l-12 -18v-18q24 -25 24 -48v-12l-12 -18v-54l-18 -24v-30l18 -24v-30q-12 -18 -18 -41z" />
<glyph unicode="Q" horiz-adv-x="984" d="M101 343q14 144 14 229v11l-1 48q18 19 17 29q0 9 -4 247q-1 58 -13 58l6 12v18q0 6 -6 6q12 19 11 35l-1 94v17q0 241 109 273q54 36 118 37q0 6 6 6l198 4l115 -58h1q54 0 102 -74q30 1 50 -152q6 0 6 -18l1 -17l-12 -18v-35q10 -31 10 -179q0 -124 -7 -332 q-12 -20 -12 -36l13 -41l1 -41q0 -41 -11 -64q14 -88 14 -108q0 -66 -52 -175q-50 -19 -70 -66q-6 0 -5 -12l-18 -1q-36 -4 -36 -17v-18q4 -18 49 -47l173 -10q3 0 58 19h18l12 6l24 -22l1 -41q-8 -15 -23 -84q-84 -35 -93 -36h-7q-193 0 -371 53q0 6 -6 6l-42 -1 q-12 0 -73 4q-9 0 -24 12q-6 0 -6 -6l-12 5h-12q-5 0 -5 -6q-34 38 -48 47q8 53 66 87l-44 26h-1q-54 0 -145 132q-25 23 -33 194zM360 576q3 -41 13 -41l-6 -12v-12q13 -40 13 -46l1 -53l-12 -42q36 -99 68 -99q18 -5 18 -11l12 6q6 0 6 -6q66 15 65 66l10 129q-6 23 -7 47 v5q0 47 16 107v12l-12 17q-1 53 -1 95q0 152 9 152q-8 88 -8 129l-2 89q0 58 11 58q-17 52 -59 52h-2h-36q-60 -1 -58 -71q-14 -36 -18 -36l7 -29l1 -94l-12 -18l1 -23q0 -38 -2 -242q12 -22 13 -64v-17q0 -4 -29 -31v-17z" />
<glyph unicode="R" horiz-adv-x="954" d="M102 1377q-1 20 16 43q50 -1 87 -1t63 1l29 1q49 2 78 9q25 -3 54 -3q14 0 30 1l102 4q14 -11 121 -25q0 -6 17 -11v6q103 -20 105 -68q12 1 13 -17q4 -111 30 -142l1 -30l15 -78q2 -53 2 -96q0 -160 -32 -180l-40 -68q-22 -19 -98 -52v-18q41 -178 67 -177v-12l49 -159 q12 -2 13 -12q0 -6 -6 -6l26 -53l66 -153l3 -53q-7 -19 -53 -39l-143 -6q-18 15 -58 15h-14h-12q-1 12 -20 41h6q-19 29 -43 160q-18 14 -69 213q-6 0 -6 6l-2 41q-2 64 -30 64h-2h-6q-40 -2 -40 -181v-18q9 1 19 -17l4 -108q-11 -155 -11 -167l1 -24q1 -9 -17 -19l-131 -6 l-18 12l-96 -4q-25 8 -26 40l-10 233q13 20 16 55l-22 83q12 20 11 36q-13 19 -14 35l-7 186l18 133l-16 100l4 54q-8 38 -10 84q0 6 5 18l-6 12q-1 25 4 48q-11 111 -14 197zM406 1119q13 -30 14 -45q2 -39 12 -124l-11 -23q12 -12 22 -106l67 -26l12 1q35 27 49 47 q8 11 8 21q0 9 -6 18l-2 28v71q0 64 -1 99q-6 0 -6 6l-2 28q-3 80 -70 99l-30 -1q-53 -20 -52 -47q-4 -18 -4 -38v-8z" />
<glyph unicode="S" horiz-adv-x="958" d="M48 997v36l8 84l-6 12v12q10 138 40 174q0 37 90 113q79 30 90 30h30l18 -12h12q11 12 83 34q0 6 6 6l84 -10q54 -42 98 -42l96 -185l36 12q0 5 -24 60q0 8 18 18h17q42 -104 42 -114q24 -51 24 -186q-5 -20 -36 -36h-247q-18 0 -30 126q6 41 6 66q-29 30 -54 30h-6 q-50 0 -72 -60l-12 -36q6 -12 6 -18h-6q12 -20 12 -36v-18q0 -21 -6 -54q0 -17 48 -65q50 -69 120 -96q0 -8 66 -54q0 -10 60 -48q0 -10 99 -78q60 -100 60 -108q0 -11 30 -47v-84q0 -51 6 -162l-24 -90l-66 -113q-112 -66 -119 -66q0 6 -16 6q0 -11 -60 -24q-30 0 -210 -6 q-20 0 -95 54q-87 0 -106 72q-32 8 -54 65v6h6q-24 54 -42 132v48l12 42q-12 20 -12 36v6q12 14 12 24l36 40l60 -10h24q18 -18 141 -18h12q30 -12 30 -48l-12 -60q12 -23 12 -66q0 -6 -6 -18q0 -38 63 -98l59 20q28 0 54 108v126q0 25 -24 66q0 41 -92 71l-137 132 q-28 0 -66 66q-9 0 -48 42q-61 0 -96 132q0 5 6 47h-36q-12 2 -12 12zM631 1386l12 6h30q0 -9 12 -24v-41h-18z" />
<glyph unicode="T" horiz-adv-x="738" d="M23 1199q0 26 3 121t3 100q0 -26 50 2q0 -6 6 -6h6l12 6v-6q6 0 6 6q6 0 6 -6q6 0 6 6q36 -6 36 -14q66 7 66 14l12 -6h18l12 6l6 -12q26 0 47 12l36 -12q0 6 18 12v-6l18 12h108q10 0 12 -12q6 0 6 6q20 -12 36 -12t36 12l36 -24h12q7 18 38 24q9 0 35 -24 q0 -32 -6 -133l6 -42q-10 -42 -41 -42q-23 0 -38 -6h-18q-16 6 -60 6q-48 0 -48 -118q6 -12 6 -18q0 -18 -6 -42q6 -198 24 -227q-12 -43 -12 -48v-30q12 -42 12 -48v-144q0 -34 6 -95l-18 -72v-126l-6 -36q6 -10 6 -30v-143q-9 -18 -18 -18h-60q-18 0 -57 3t-39 -3h-42 q-5 0 -47 -12q-30 10 -30 54l10 215q0 54 12 102q-12 64 -12 149q0 20 6 30q-6 11 -6 24v30q0 45 -24 186v72l18 24v23q-12 0 -14 108q-1 24 -1 43q0 87 29 87q-5 30 -18 30q-48 24 -66 24q-16 0 -84 -6h-26q-12 2 -24 30z" />
<glyph unicode="U" horiz-adv-x="1037" d="M101 352q6 63 6 138v131q0 6 12 48v60q-12 42 -12 48v18l12 42q0 5 -12 48v23q13 17 24 72q-12 45 -12 54q0 30 6 72q-6 31 -6 36q6 73 6 144v18q0 17 6 17q6 108 29 108h102l18 -12h36l18 12h18q84 -12 84 -36q0 -21 -6 -54q6 -31 6 -35q-6 -36 -18 -36l6 -12v-6l-6 -12 q11 0 12 -60l-12 -18l6 -12q-12 0 -12 -12v-30l12 -18l-6 -36l6 -12l-12 -30l12 -24q0 -6 -6 -18q6 0 6 -6v-71q0 -26 -12 -48q0 -12 18 -78v-204q0 -16 -12 -36l6 -12h-6q12 -19 12 -35v-24q0 -12 -12 -12q0 -6 6 -6q0 -17 -12 -36l12 -30q-6 0 -6 -6l12 -18l-6 -36 q6 -30 12 -30q0 -53 131 -72q17 6 42 108q48 33 48 54v6q-31 28 -42 54q6 109 6 137q0 30 -6 90q10 0 12 42v36q-36 125 -36 191v12l18 24v24l-12 18v24l18 24v84q0 16 -12 36q6 0 6 6v221q10 18 18 18h54q38 0 90 -6q53 8 66 12l6 -12l60 6h12q13 0 18 -30q0 -36 -6 -107 l6 -42q-12 -45 -12 -84v-60q0 -6 -12 -48v-72q0 -12 12 -12q12 -302 12 -329q0 -51 -12 -78q12 -37 12 -48q-6 -179 -30 -179v-24l18 -30q-13 -23 -30 -180q0 -26 -126 -101h-6l-48 -6q0 -6 -6 -6l-66 -24h-209l-60 30h-90q-72 78 -149 131q-6 49 -24 114q0 88 -6 120z M140 1127h18q10 0 12 12q0 10 -12 12h-6q-12 0 -12 -12v-12zM204 547q27 0 30 -24l12 6l12 -6l6 12v18l-42 12h-18v-18zM234 440q0 -10 36 -24q0 10 30 18l-6 12q-6 0 -6 -6q-12 0 -12 12q-18 0 -42 -12zM631 1103q0 -12 12 -12q57 30 66 30v18q-6 0 -18 6q-60 -18 -60 -42z M685 1277q0 -11 30 -18q68 6 96 18v30q-26 -6 -36 -30q-21 0 -60 30h-18q-12 0 -12 -12v-18zM739 1331h18l42 -6l6 12v12q-7 0 -18 6q-11 -6 -24 -6h-24v-18z" />
<glyph unicode="V" horiz-adv-x="902" d="M-7 1400v23q0 9 18 18h30q10 -11 72 -18q0 -6 6 -6q0 6 6 6q0 -6 6 -6q2 12 12 12h83q6 0 -2 12h36q36 -15 36 -53q30 -46 30 -105q0 -8 36 -128l-6 -41q24 -28 60 -192q6 0 28 -96q22 20 46 209q6 0 6 6q-6 32 -6 53v17q0 32 18 87q-18 34 -18 132q6 47 18 70q-6 0 -6 6 q28 40 72 40q81 -5 101 -5q44 -6 60 7h12l78 1h12v-43q0 -41 -22 -76v-18q0 -49 -26 -157v-87v-70q-21 -22 -60 -116q6 -33 6 -47q0 -26 -42 -151l-12 -53v-12q18 -60 18 -87q-20 -15 -38 -41v-40l-38 -257q-14 -20 -29 -192l-24 -23h-24q-15 11 -18 11h-32q-15 -11 -18 -11 h-18l-18 11h-36l-18 -11h-66q-48 14 -48 64q0 89 -24 157q-12 82 -30 105q6 0 6 6h-6l26 11v18l-6 12h6q-14 32 -29 122q-18 0 -18 11l-20 53q-12 85 -12 93v53q-24 71 -24 87l6 23q-66 147 -66 286q0 21 -66 215q0 18 -24 105z" />
<glyph unicode="W" horiz-adv-x="1474" d="M35 1382q0 34 29 42q22 0 54 -6l36 6q52 -6 90 -6h78l12 -6q24 0 48 -203q0 -15 -36 -42q4 -30 18 -30q16 -102 30 -102q26 -191 36 -215q0 -7 -6 -18l6 -12q0 -3 -6 -24q20 -42 30 -42q29 5 29 72v59q0 6 6 6q54 233 54 312v6q30 36 30 185q0 28 42 54h6q42 -12 48 -12 h102v12h84l29 -6q26 0 30 -383q18 -31 18 -114q0 -16 -12 -36q19 -41 24 -41h24q0 24 18 59h-6q24 127 66 240q-6 0 -6 6v42q18 22 18 54q13 149 72 149h72l18 12h185q0 -12 18 -42q0 -18 -12 -18q-25 -221 -66 -221q0 -156 -36 -222q-65 -129 -65 -203q12 -39 12 -54v-18 q-10 -108 -30 -108q0 -100 -30 -173l6 -12h-6q-24 -156 -36 -156q0 -215 -66 -215q-83 6 -108 6q-9 0 -24 12h-36q-143 0 -143 77q0 39 6 78l-6 30q6 53 6 66q0 14 -30 90q0 13 6 24q-24 72 -42 161v6l18 24v18q-14 0 -24 6q-32 0 -36 -84v-41q-15 -17 -24 -66q6 -33 6 -48 q0 -44 -42 -72q0 -38 6 -78q0 -12 -6 -12q-8 -209 -66 -221h-6q-37 24 -60 24h-24q-43 -24 -131 -30q-43 0 -66 90h6l-12 17v48q-49 294 -60 294q-6 125 -24 125l6 12v42q0 14 -66 276q-26 179 -36 209l6 12q-12 20 -12 36v66z" />
<glyph unicode="X" horiz-adv-x="970" d="M1 1v42q15 24 24 24q59 143 78 143l66 148q22 49 48 54l-6 36q11 83 35 107q64 133 90 160v36q-20 22 -30 83q0 13 -72 125q-20 72 -59 137q-60 123 -60 173q-78 107 -78 148v6q24 15 24 24h173q11 0 12 -12q6 0 48 12h30l30 -18l42 -89q8 -89 24 -89q16 -58 48 -90 q25 9 42 54q24 104 54 167q0 53 95 53q51 0 150 -6q32 6 54 6q24 -9 24 -18v-29q0 -16 -30 -84q-78 -78 -78 -101q-36 -68 -36 -149v-11q-1 -11 -54 -36q0 -12 18 -42l-6 -12q-48 -41 -48 -47q6 -32 6 -54v-6q0 -14 -18 -77q18 -83 30 -107l-6 -12q31 -60 36 -60l-6 -11 q0 -6 6 -6q12 -72 30 -72q28 -65 36 -65q14 -95 54 -149q27 -95 42 -95q12 -63 66 -161v-47q-7 0 -18 -6q-66 6 -114 6h-156q-42 54 -71 65q-20 95 -30 95q-18 130 -30 149l6 12q-12 0 -12 24h-36q-48 -132 -48 -143q-56 -185 -96 -185h-24q-12 0 -12 12q-18 -12 -66 -23 q0 6 -5 6h-6l-18 -12h-48q-43 12 -48 12h-36q-16 0 -36 -12q-24 0 -24 17z" />
<glyph unicode="Y" horiz-adv-x="803" d="M3 1400v47l293 -10q22 0 42 -121q20 -97 36 -147l8 -40l28 102q41 175 90 206q129 -4 191 -4l18 12l48 10q15 -12 24 -12v-43l-108 -254l6 -12q-24 -31 -29 -31q-54 -167 -84 -218q-54 -145 -54 -212q6 0 12 -19q-6 0 -6 -6v-18l6 -12q-12 0 -12 -103v-24q0 -40 12 -85 q-12 0 -18 -49q6 -41 6 -66v-249q-11 -22 -36 -30q-66 6 -114 6h-114q-16 2 -47 54l10 37l8 24v18q-14 26 -14 73q0 70 2 176q-11 0 -18 72q12 96 12 128v139q0 42 -6 73q-72 191 -72 243q-42 85 -42 115q-62 159 -78 230z" />
<glyph unicode="Z" horiz-adv-x="760" d="M57 85q9 35 2 35l6 11v6q0 6 -6 6q6 11 6 18q-6 11 -6 17q8 41 46 180q78 287 126 414q0 5 -6 5l36 88l-6 11q8 1 36 76q0 6 -6 6q12 15 29 110h6l-6 12q51 71 58 108q-46 -6 -31 7h-244q-25 6 -25 39q0 24 13 61q0 6 -6 18h6q-8 26 -18 122l36 17h92l18 -11l18 11h83 l18 -11h110q6 0 6 5q24 -11 42 -11q20 0 48 17h12q110 -11 110 -15q3 -120 9 -177q0 -53 -71 -279q0 -15 -12 -29l6 -12q-10 0 -30 -87q-11 0 -36 -116q-18 -52 -36 -70q-12 -78 -30 -99l6 -12q-8 0 -30 -75q-6 0 -6 -6h6q-22 -51 -68 -219q20 1 80 2q5 0 144 6q68 0 73 -64 q6 0 18 -39l-26 -41q6 -50 6 -82q0 -36 -27 -40h-282v-12h-87q-3 0 -18 12h-138q-54 0 -54 87z" />
<glyph unicode="[" horiz-adv-x="572" d="M124 452v36l5 27q11 4 18 8q1 5 2 9l-14 58q0 7 1 13q-7 18 -7 29v59q0 30 4 59q-4 23 -9 91l14 58q-8 32 -14 167q9 68 9 158q14 32 8 163q0 60 27 72q72 0 95 5q70 -5 122 -5q57 0 106 5q20 -3 36 -50v-41q10 -3 1 -36v-50q-8 -22 -41 -22h-40q-4 0 14 -9h-9l-14 9h-39 q-18 0 -31 -67v-136l4 -9q-7 0 -11 -29q9 -14 9 -36v-4q0 -50 1 -115l1 -1v-6q0 -44 2 -95l-4 -54q4 -31 4 -59q-9 -29 -9 -36q0 -3 18 -50v-5q-13 -19 -13 -36l4 -63l-4 -45q5 -41 13 -41l-4 -9v-136q13 -67 31 -67h59l14 9h9q32 -9 36 -9h-30q33 0 41 -22v-50 q-1 -33 -1 -36v-41q-16 -47 -36 -50q-49 5 -106 5q-52 0 -122 -5q-23 5 -95 5q-27 12 -27 72q6 131 -8 163q0 90 -9 158q1 19 2 36q-13 17 -13 51z" />
<glyph unicode="\" horiz-adv-x="569" d="M-20 1389q0 18 6 42q-6 10 -6 30v30q0 10 12 12h18q19 -25 54 -30q14 24 24 24h6q21 0 42 -90v-24q0 -3 -12 -18v-24q53 -22 53 -59q0 -34 -5 -66q17 -88 29 -90q20 0 48 -108q0 -27 48 -203q27 -29 84 -228q27 0 72 -263q24 -53 24 -72q66 -153 96 -317q0 -25 -36 -42 h-24q-20 14 -54 18q-22 11 -66 90q-67 223 -84 251q-42 163 -72 228l-60 221q-32 48 -83 180v6l6 12q-12 89 -36 137q6 11 6 24v12q0 32 -36 60q0 6 6 6q-12 33 -12 54q-48 129 -48 197z" />
<glyph unicode="]" horiz-adv-x="539" d="M23 1281v50q1 33 1 36v41q16 47 36 50q49 -5 106 -5q52 0 122 5q23 -5 95 -5q27 -12 27 -72q-6 -131 8 -163q0 -90 9 -158q-1 -19 -2 -36q13 -17 13 -51v-36l-5 -27q-11 -4 -18 -8q-1 -5 -2 -9l14 -58q0 -7 -1 -13q7 -18 7 -29v-59q0 -30 -4 -59q4 -23 9 -91l-14 -58 q8 -32 14 -167q-9 -68 -9 -158q-14 -32 -8 -163q0 -60 -27 -72q-72 0 -95 -5q-70 5 -122 5q-57 0 -106 -5q-20 3 -36 50v41q-10 3 -1 36v50q8 22 41 22h40q4 0 -14 9h9l14 -9h39q18 0 31 67v136l-4 9q7 0 11 29q-9 14 -9 36v4q0 50 -1 115l-1 1v6q0 44 -2 95l4 54 q-4 31 -4 59q9 29 9 36q0 3 -18 50v5q13 19 13 36l-4 63l4 45q-5 41 -13 41l4 9v136q-13 67 -31 67h-59l-14 -9h-9q-32 9 -36 9h30q-33 0 -41 22z" />
<glyph unicode="^" horiz-adv-x="888" d="M143 546v20q0 35 12 65v15q10 43 16 135q36 18 36 25v5q-36 23 -16 45v60q21 19 40 100q-6 28 -6 40q0 23 21 182q15 17 30 148l24 20h24q15 -10 18 -10l72 8q15 10 18 10h18l18 -10h36l-12 10h16q47 -12 47 -55q0 -68 31 -151t31 -96l14 -20q26 -126 56 -246 q0 -18 66 -185q0 -16 24 -64v-20q0 -8 -18 -15h-30q-11 8 -72 -11q0 5 -36 13q0 -5 54 -13q0 5 -6 5q-2 -10 -12 -10h-4q25 0 -48 -2h-35q-36 13 -36 37v90q0 7 -36 110l6 35q-24 25 -60 165q-6 0 -18 5q-22 -16 -36 -145q-6 0 -6 -5q6 -27 6 -45v-15q0 -27 -18 -75 q18 -29 18 -70q-6 -40 -18 -60q6 0 6 -5q-29 -35 -42 -35q-81 13 -52 13q-44 -4 -59 -6h-12q-36 -9 -36 6h-18l-4 2h-12z" />
<glyph unicode="_" horiz-adv-x="863" d="M-39 -152q5 34 4 54l1 18q-6 60 95 57l39 -13l54 -1l41 11l106 -2l39 -13q5 12 28 11h13q40 -1 40 -7q323 4 335 16l120 -3q20 -77 17 -90v-66q-14 -17 -81 -16l-120 3l-41 -11l-147 3q-107 3 -253 0q-14 1 -13 7l-67 -5l-80 2q-133 3 -128 69l4 12q-6 35 5 54z" />
<glyph unicode="`" horiz-adv-x="1024" d="M129 1359l34 31q7 4 14 -3q2 18 11 26l6 5q30 12 33 15l2 10q28 6 35 -1l20 -22q6 -19 19 -39q62 -47 131 -115q3 3 16 -10l24 -27q104 -140 91 -152q-44 -32 -78 -64l-3 -3q-19 -6 -73 22l-4 5q-32 33 -154 151l-5 12l-11 6l-38 47q-38 35 -64 62q-12 17 -6 44z" />
<glyph unicode="a" horiz-adv-x="941" d="M9 26v6q36 144 36 175q8 1 24 28v51q18 140 65 300q0 82 54 226q-6 0 -6 6q15 0 24 68q-6 22 -6 39q24 48 36 192q16 50 48 215q24 125 42 125q110 -6 185 -6h18q48 -16 48 -23q0 -16 12 -56v-45l8 -17v-29q64 -65 64 -147q3 0 18 -22l-6 -12v-11q18 -62 18 -68l-6 -28 q7 -147 48 -147q0 -6 12 -6v-45q0 -24 -42 -51v-5q42 -6 42 -40q30 -48 30 -62l-6 -11q21 -48 36 -108q6 0 6 -5v-40q0 -6 -6 -6l36 -73l12 -74q-6 -37 -6 -73q34 -81 60 -181q0 -85 -48 -85q-27 0 -36 -6q-41 6 -66 6h-84q-25 0 -66 -6l-24 12l6 11v17q-45 237 -95 237h-78 q-54 -38 -54 -45q0 -24 12 -45l-12 -23q-8 -18 -8 -34v-11q0 -78 -40 -102h-24q-28 0 -60 6q-21 -6 -24 -6q-13 0 -24 6q-61 -6 -95 -6h-30q-48 0 -48 34zM248 812q0 -41 132 -51q18 0 18 -5q24 8 24 17q0 11 -18 11l-24 -6q-42 14 -42 23l-12 -6q-15 0 -48 40h-12 q-9 0 -18 -23zM404 654q26 -181 54 -181l12 -6h12q24 2 65 96q-47 108 -95 108q0 -12 -12 -12h-36v-5z" />
<glyph unicode="b" horiz-adv-x="1024" d="M94 1007v120q0 34 24 59v18q-16 0 -24 168q6 37 6 90l12 6h276q8 10 77 18q0 6 6 6h18l18 -12h12l18 12h102l174 -84q0 -11 35 -66q54 -49 54 -84l-12 -60q0 -13 6 -24q-6 -65 -6 -113v-60q-16 -15 -24 -126q-83 -78 -101 -78q-15 0 -48 -6v-12q118 -105 155 -179 q20 -18 48 -84v-78l-18 -78v-29q-6 -28 -6 -54q0 -135 -72 -168q-69 -72 -125 -72q-13 0 -66 6l-78 -42q-49 0 -60 -12h-12l-18 12h-107q-60 0 -60 18h-6q-15 -12 -24 -12q-12 0 -132 -6q-18 24 -18 36q6 72 12 78q0 6 -6 6q6 81 6 120v78l6 35q-6 12 -6 18q6 134 6 216 q-12 141 -36 269q0 13 6 66q-12 45 -12 84zM244 815l36 -42v-47q0 -59 80 -138h12q12 0 -8 12v6q-54 66 -54 132q0 8 24 41q-32 45 -72 54q-12 -6 -18 -6v-12zM304 911q6 -11 6 -18h30l6 30q-6 11 -6 24h-30zM394 91h12q11 0 11 12v6h-11q-12 -2 -12 -12v-6zM400 1186 q0 -41 29 -65v-54q0 -11 -23 -66q0 -144 41 -144q126 34 126 66l6 30v6q0 6 -6 6l6 12v6q0 6 -6 6l30 102l-6 30l6 24q-7 113 -84 113q-9 0 -24 12h-54q-41 -8 -41 -72v-12zM420 396l23 -71v-6q-11 -43 -11 -48v-6q11 -24 35 -36h34l60 24q30 22 30 84v83q0 54 12 102 q0 28 -48 60q0 9 -18 18h-18q-35 0 -64 -48l-29 -12v-36q17 -22 17 -42q-23 -33 -23 -66z" />
<glyph unicode="c" horiz-adv-x="946" d="M94 303v149q0 135 12 168q-6 10 -6 24v24q2 42 12 42q-12 142 -18 335q4 48 12 48l-6 24q0 166 54 227q19 49 108 90q2 9 89 48h18l18 -12h6q0 10 42 30h48q21 -18 72 -18h36q47 -28 60 -48q26 0 53 -20l12 -6q0 8 30 -40h12q10 0 24 -24v-72q28 0 42 -173q18 0 18 -84 q-4 -26 -48 -42h-179q-14 11 -70 18q-12 15 -12 18v42q1 30 12 30q0 6 -6 6l6 24l-14 73q-11 0 -66 36h-6q-21 -18 -50 -18q15 0 10.5 -21.5t-4.5 -32.5v-12q-24 -40 -24 -67v-24l-24 -36v-6h30v-36l-12 -18v-6v-198q6 -118 6 -161l-6 -24q6 -11 12 -54q-18 -101 -18 -108 q10 -6 28 -31l-12 -18v-6q33 -56 52 -76h-2q10 12 64 18q34 38 34 79q0 17 -6 34q13 0 30 12l-18 96v18q0 19 60 30q2 -12 12 -12h191q30 -16 30 -24v-126q0 -84 -18 -185q-7 0 -24 -42q-24 0 -30 -72q-85 -13 -85 -54q0 -26 -124 -36l-66 -24h-12l-18 12q-169 0 -215 54 q-108 48 -126 162v36q-30 27 -30 60zM215 1089q0 -4 54 -84h12q0 45 30 48v36q-63 14 -74 24q-12 -2 -12 -12z" />
<glyph unicode="d" horiz-adv-x="939" d="M94 118q6 85 18 124v47q-12 42 -12 47v12l23 124l-5 30v41q0 18 5 18l-5 29v166q0 40 23 59q-29 37 -29 142q6 56 11 65q-5 13 -11 248q-12 19 -12 35v36q2 12 12 12q-12 19 -12 35v42q0 35 35 53h124q22 0 59 -24l18 12h42q5 0 5 -6l36 18h83l17 -12h59q112 -57 113 -89 q35 0 82 -130q13 0 18 -53q-12 -53 -12 -77v-23q0 -6 -6 -6q36 -48 36 -59h-6l6 -12v-47l-6 -12q6 0 6 -6h-6q12 -19 12 -30q7 -9 7 -26q0 -32 -23 -92v-6q18 0 30 -23q0 -6 -6 -6q-2 -57 -2 -107q0 -20 -6 -29l6 -36v-59q0 -47 -36 -47q-16 -2 -23 -30q0 -28 35 -71v-17 q-18 -108 -41 -189q0 -47 -136 -136q-67 -24 -101 -24h-23l-18 -12h-12q-19 0 -53 18q-59 -6 -89 -6h-112q-22 -18 -83 -18q-35 37 -35 107zM194 803q2 -12 12 -12h71q12 0 12 12v6h-12q-5 0 -47 -12q0 12 -12 12h-24v-6zM354 549q18 -58 18 -242l-6 -12q0 -16 29 -30 q43 12 71 48q20 34 42 94q-6 0 -6 6q15 0 29 107q6 0 6 5q0 6 -6 6l30 71q-16 50 -16 83v47q12 42 12 48q-6 0 -6 5h6q-12 14 -18 95l16 83q-18 160 -59 212q-36 56 -65 77h-18q-59 0 -59 -47q12 -45 12 -83v-41q0 -39 10 -130l-6 -24q12 -21 12 -47v-6l-6 -71q4 -9 4 -18 v-23q0 -18 -6 -18l6 -29q0 -33 -6 -65q6 -39 6 -77zM679 809q0 -8 18 -18h6q8 0 17 18v6q-9 0 -23 12q0 -12 -18 -12v-6z" />
<glyph unicode="e" horiz-adv-x="765" d="M94 35q12 31 12 64q0 20 -6 51q11 129 11 194q-5 82 -5 91l5 28q-5 55 -5 103v51q0 30 5 51q-5 30 -5 58v46q0 55 5 56q-5 49 -5 80v257q0 46 -6 108q6 45 11 45l-5 30v62q33 17 163 17q29 -1 29 -11q19 11 35 11h75l18 12h6q41 -12 46 -12h88l17 12h76q17 0 29 -51v-98 q-29 -34 -29 -40q9 0 23 -22v-29h-221l-23 17h-18q-14 0 -29 -62l12 -41q-24 -102 -24 -113l24 -46v-58q0 -7 40 -28l29 6h187v-34q-23 -25 -23 -29q29 -37 29 -56v-81q0 -65 -29 -74h-76l-18 12h-87q0 -34 -47 -34q-40 -19 -40 -40q0 -24 35 -64v-113q-12 -40 -12 -45v-17 q0 -53 52 -53h53q17 -11 41 -17q68 23 116 23q18 -21 18 -40v-45l-18 -23v-22q23 -31 23 -52v-23q0 -46 -40 -46h-105q-15 -11 -18 -11h-87l-18 11q-13 -9 -46 -17q-64 6 -111 6h-35q-5 0 -46 11q0 -11 -12 -11h-12q-52 18 -52 45zM333 81q10 0 24 -12h36v31q0 8 -18 17h-30 q-12 -2 -12 -12v-24z" />
<glyph unicode="f" horiz-adv-x="753" d="M94 1393q10 39 39 39h147q16 0 16 -6l28 6h289q62 0 77 -28v-5q0 -6 -6 -6q6 -9 17 -65q0 -135 -15 -135q0 -5 -14 -5q-166 5 -254 5q-21 0 -21 -65v-79q1 -53 1 -60v-71q0 -73 39 -82h90q12 0 22 -5q51 6 60 6h43q32 -2 44 -13q5 -149 5 -175q-5 -83 -32 -83h-236 l-16 11h-22l-11 -6v6q10 -14 -10 -55v-49q0 -50 5 -172l-5 -11q6 -41 6 -115q0 -68 -5 -163q0 -15 -42 -15q-16 0 -38 2q0 -6 -17 -6h-12l-16 -9l-60 10l-16 -11h-22q-44 16 -44 67q-1 240 -1 333q-5 11 -5 16h5q-11 18 -11 33q0 28 11 28q-11 17 -11 32l10 131q0 47 -5 99 q5 21 5 43q-5 49 -5 60q0 6 5 17l-5 38q0 42 5 76l-1 246q6 30 6 44q-11 100 -11 147h-6z" />
<glyph unicode="g" horiz-adv-x="980" d="M94 309v158q0 140 17 154l-11 17v39q13 34 17 34l-6 29v57q-11 40 -11 45v130q0 6 6 6q-12 19 -12 34v17q2 11 12 11l-6 12q6 17 11 17q-11 18 -11 34v17l23 136q71 114 107 114q98 63 142 68l23 -12l51 29h45q46 -16 46 -23l11 6h57q108 -63 108 -131q6 0 17 -6 q0 8 28 29h17q9 0 23 -23v-68q21 0 34 -113q9 0 22 -97q6 0 6 -6h-6l6 -11v-11q-11 -29 -23 -29v-51q-7 -22 -51 -22h-22q-13 0 -23 5q-39 -7 -51 -17h-125q-23 8 -23 51v34h23q-11 15 -11 17v40q0 5 11 46v28q-11 10 -17 85q-11 0 -68 40h-11q-22 -17 -63 -17l-39 5 q-23 -8 -23 -17q40 -38 40 -45v-23q-23 -32 -23 -85v-23l-23 -28v-11h29v-17q0 -19 -17 -40v-6q0 -117 -23 -130v-11q23 -29 23 -35q-12 -59 -12 -62q0 -9 23 -91q0 -10 -11 -28q13 0 17 -57q0 -6 -23 -68v-6q0 -25 23 -107v-6q-12 -23 -17 -23q4 -21 45 -39h17q8 9 74 17 v-12h17q71 34 71 114q0 153 -49 153q-31 0 -62 60h-6l-31 -60h-6q-22 9 -22 40v107q0 15 11 51h6q0 -58 11 -90h37q18 119 40 119h125q20 0 51 -6l11 6q49 -6 72 -6h57q28 -17 40 -79l-6 -57q0 -50 17 -74v-51q0 -5 -11 -45v-51q17 -68 17 -91q-6 -55 -6 -108q-11 0 -17 -40 l6 -56q0 -17 -63 -40l-11 6h-28q-92 -46 -186 -46q-72 6 -85 6v-6l-12 6q-188 0 -261 79q-46 0 -68 63q0 45 -22 68v6q0 15 11 34q-40 23 -40 34zM190 259q5 -32 36 -42q35 0 84 72v12q0 8 -18 18h-18q-51 0 -84 -60zM435 187q0 -5 60 -54h12v66h-42l-18 12q-12 -2 -12 -12 v-12z" />
<glyph unicode="h" horiz-adv-x="1030" d="M94 1114q12 180 12 269q26 24 29 24h18l17 -12h41l18 12h12l17 -12h41q6 0 47 12h59q41 -21 41 -65v-35l-12 -41q0 -31 -6 -164q0 -211 53 -211q31 -5 58 -5q59 0 76 41l-5 41v251q0 47 -6 123q0 71 47 71q40 -1 64 -18h100q5 0 46 12h18q14 -12 23 -12l12 -369l-6 -23 q6 -39 6 -76v-65q0 -24 -6 -64q6 -10 6 -30q0 -13 -6 -23q12 -162 12 -345q6 0 6 -6q-18 0 -18 -82q0 -29 6 -217l-6 -29q6 -10 6 -30q0 -58 -29 -58q-24 0 -24 -6l-29 12q-6 0 -17 -6q-77 6 -123 6h-12q-59 21 -59 58q-6 61 -6 71q6 79 6 117h6q-12 21 -12 47v111 q0 24 6 64q-6 6 -11 76q5 12 5 18q0 47 -52 47h-53q-53 0 -53 -53q-6 -23 -6 -47q0 -34 6 -123q-11 -93 -11 -187v-29q-18 -59 -18 -77q0 -15 18 -41v-17q-14 -35 -47 -35q-34 -6 -94 -6h-88q-14 -12 -17 -12h-35q-47 0 -47 287v182q0 5 -12 47v23q12 18 23 64q0 6 -23 76 q12 48 12 59v18l-12 41q0 59 -12 351z" />
<glyph unicode="i" horiz-adv-x="536" d="M104 187q0 3 12 90v113q0 109 -6 306q0 6 6 6l-6 29v90q0 25 6 48l-12 84q6 72 6 108q0 52 -6 287q6 12 6 18q-6 10 -6 30v18q0 60 72 60h12l60 -18q5 0 47 12h30l18 -12h54q10 0 24 -24q0 -33 -6 -84q12 -182 18 -497q-6 -215 -12 -215q6 -33 6 -54v-54q0 -59 6 -144 l-6 -12l6 -36v-29q0 -18 -6 -18l6 -30v-18q0 -70 -12 -96l6 -36q-18 -60 -42 -60h-245q-30 10 -30 42q-6 34 -6 96z" />
<glyph unicode="j" horiz-adv-x="885" d="M7 522q18 78 36 78h179l66 -24q18 0 18 -78v-30q0 -25 -6 -66q32 -137 90 -137h42q60 19 60 48q0 11 24 83q-6 60 -6 90v180l6 36q-6 10 -6 30v6l6 35q-8 41 -18 54v60q0 109 -6 305q6 12 6 18q-11 35 -18 198q9 24 18 24l60 -6l35 6q53 -6 90 -6h48q30 -18 30 -42 q4 -377 24 -377q-12 -22 -12 -54q12 -20 12 -36v-24q0 -13 -6 -24q12 -19 12 -36q0 -30 -12 -30l6 -30v-18q0 -13 -6 -23l6 -12q-12 -25 -12 -36l18 -54q0 -79 -12 -132q12 -19 12 -30q0 -18 -6 -18l6 -60v-107q0 -12 -12 -12l6 -12q-55 -148 -186 -216q-43 -19 -119 -30 q0 -6 -6 -6h-90q-14 14 -78 18q0 9 -48 24q0 -6 -6 -6q-6 9 -125 78q-76 64 -84 138q-20 0 -30 257q-6 0 -6 6z" />
<glyph unicode="k" horiz-adv-x="935" d="M94 1417v12q13 30 60 30h54q14 0 24 -6q11 6 24 6h60q49 0 49 -48v-121q0 -30 -13 -30q13 -19 13 -36v-72l6 -42l6 -40l60 172q18 53 42 169q14 30 36 30q18 0 18 -6l72 6h120l18 12h12q15 -12 25 -12v-36q0 -32 -115 -247q-24 -90 -58 -180q0 -11 -54 -133q0 -6 -6 -18 q0 -25 42 -72q-5 -48 118 -301l55 -96q0 -12 84 -156q32 -97 48 -97v-30q-10 -24 -42 -24t-54 6q-57 -6 -109 -6h-48q-6 0 -6 -6q-42 0 -96 84q0 69 -60 145q0 21 -30 48l6 12q-12 15 -12 30l-34 30q-2 -30 -8 -66q6 -223 24 -223v-6q0 -43 -42 -54v6q-20 -12 -37 -12h-48 l-18 12h-78q-48 0 -48 36q-6 32 -6 60v67q0 30 -12 30l6 12v30q0 5 -12 48v30q0 14 6 24q-6 20 -18 126l6 42q-12 49 -12 79q0 84 30 126l-6 12q6 0 6 6q-9 0 -24 24v30q0 14 6 24l-18 48q6 12 6 18h-6q12 22 12 49q-18 30 -18 48v48q1 30 12 30q-12 20 -12 36v72 q1 30 12 30q-18 21 -18 181z" />
<glyph unicode="l" horiz-adv-x="762" d="M94 546q8 179 18 221l-18 78q6 89 12 120q-6 39 -6 78v78q0 35 48 113v12q0 12 -48 30l-6 36v48q0 90 66 90h48q20 0 29 -6l36 6h42q90 0 90 -78v-6q0 -114 6 -287l-6 -72q6 -40 6 -78q-12 -38 -12 -48q0 -4 24 -66v-6q-18 -25 -18 -48l6 -83l-6 -60q7 -54 18 -54l-6 -12 v-180q18 -89 42 -89h78l18 12h12q42 -12 48 -12h53q44 0 54 -30v-66q12 -43 12 -48v-54q-21 -62 -48 -66q-157 6 -233 6q-69 0 -162 -6q-30 6 -125 6q-36 16 -36 96q-6 173 -24 216q0 119 -12 209z" />
<glyph unicode="m" horiz-adv-x="1365" d="M94 628l24 102q-6 18 -12 18l12 65q0 7 -6 18q6 121 6 168q0 38 -6 156l12 29l-12 196q0 37 54 42q182 14 233 14l36 -24q24 -38 24 -72q22 0 48 -96q36 -64 60 -125q10 0 30 -102q39 -49 60 -132q30 -48 42 -48q38 0 113 264q0 15 12 30q-6 0 -6 6q34 44 66 173 q12 0 24 76q6 0 6 6h-6q0 19 42 42q78 4 126 4h12l18 -12l65 20q23 0 54 -40q6 -121 6 -192v-18l-6 -35q12 -26 12 -96v-6q0 -14 -6 -24l24 -192v-48q-12 -42 -12 -47v-24q0 -6 12 -48v-78q-12 -42 -12 -48q12 -20 12 -36v-6q0 -26 -12 -48q12 -19 12 -36v-101q0 -6 -6 -6 q12 -20 12 -36v-108q0 -30 -12 -30q2 -20 2 -36v-54q-22 -60 -78 -60h-77q-164 0 -164 30q0 6 -6 6q6 74 6 78q0 27 -6 132q6 78 18 78l-6 12l12 41l-12 24q0 6 6 6l-6 30v48q0 6 6 6q15 58 15 76q0 7 -3 7h-12q-24 0 -78 -310q-35 -246 -64 -246h-96l-17 -12h-84 q-42 16 -42 96q-17 49 -26 138q-6 103 -36 173q-6 66 -24 106l-6 -40q-5 0 -18 -18q9 -87 9 -156q0 -77 -11 -131q12 -20 12 -36v-78q-12 -60 -60 -60h-108q-32 0 -83 6q-10 -6 -30 -6q-66 0 -66 132v25q0 206 -16 274v96q0 51 -6 108z" />
<glyph unicode="n" horiz-adv-x="1018" d="M94 1052l12 174q-6 34 -6 50l6 55q-6 44 -6 75l36 25q103 -6 120 -6q74 6 77 6q102 0 102 -62q22 -135 36 -149l54 -131l-6 -12q15 0 42 -143q12 -75 30 -75h18q13 11 42 106q-20 0 -24 161q12 43 12 75q-18 56 -18 93v25q0 89 48 112h101q126 0 126 -44q6 -10 6 -24 q-6 -159 -6 -187q-9 0 -18 -19v-31q30 0 30 -56v-6q0 -80 6 -174l-6 -31l6 -37q0 -10 -18 -69q12 -44 12 -68q0 -28 -6 -37q6 -53 6 -87v-69q0 -26 -18 -68l18 -112q-6 -53 -6 -87v-112q0 -98 -60 -112h-197q-60 0 -78 168q-4 0 -18 56q6 0 6 6q-10 0 -30 100h-6l6 12 q-17 27 -36 156q-44 143 -72 143q-31 -12 -36 -44l6 -31q0 -26 -6 -68q6 -137 6 -243l-6 -43q6 -8 6 -44q0 -21 -6 -31l6 -37q0 -63 -24 -93q-110 -7 -161 -7h-54q-33 0 -48 31v13q0 42 6 74q-6 33 -6 38q6 77 6 81q-6 77 -6 87q6 59 18 111q-18 67 -18 230v7q0 52 12 80 q-12 109 -12 230l6 13q-6 13 -12 56z" />
<glyph unicode="o" horiz-adv-x="886" d="M94 1143q0 242 149 287q36 18 96 30q0 6 6 6h78l18 -12h90q53 0 101 -36q52 0 108 -132q6 -48 18 -48l-6 -12q24 -52 24 -293q6 0 6 -42q0 -6 -6 -6q0 -12 6 -12q-6 -119 -6 -179v-30q0 -56 6 -102l-12 -126l6 -12q0 -346 -96 -371q-60 -48 -131 -72v-5h-192 q-134 27 -138 65q-95 39 -95 84q-6 10 -6 30v42l-18 24v60q0 21 6 54q-6 10 -6 30q12 19 12 35v66q0 6 -12 48v36q18 66 18 72q-6 62 -6 72l6 60l-6 83q6 82 6 102t-18 48v48l12 42q-12 19 -18 66zM345 646q18 -88 18 -132q-6 -18 -12 -18q12 -24 12 -42q-6 -71 -6 -107h-6 q14 -62 48 -78h24l54 24q14 0 30 215q6 0 6 6h-6l6 12q0 6 -6 6l6 12v144q0 34 6 96q-12 24 -12 35q6 0 6 6h-6l6 12v36l-6 12q6 0 6 6h-6q6 12 6 18q-12 20 -12 36v72q2 12 12 12l-6 12l18 24v24q0 30 -66 108q-20 0 -30 5q-62 0 -72 -101q-6 0 -6 -12q6 -12 6 -18h-6 l6 -12q-6 -18 -12 -18q12 -20 12 -36v-168q0 -6 -6 -6l6 -12v-6q-12 -42 -12 -47q12 -58 12 -66q-12 -20 -12 -36v-18z" />
<glyph unicode="p" horiz-adv-x="877" d="M94 1364v18q1 30 12 30l-6 12q19 36 48 36q15 0 48 -6l36 6q27 0 54 -18h17l18 12h42q0 6 30 -10h36q0 12 66 16q103 -36 215 -66q11 -4 42 -42q34 0 66 -60h-6l36 -95h-6q12 -20 12 -36v-48q-17 -25 -17 -80q0 -23 3 -52q8 -42 18 -42l-6 -12l6 -12l-18 -30v-24 q0 -31 18 -53l-6 -12h6q-10 -6 -34 -36q1 -8 1 -18q0 -47 -25 -116q-27 -24 -119 -64q-106 -50 -210 -52q-14 2 -25 2q-43 0 -43 -30q0 -33 6 -65q8 -67 8 -98q0 -26 -6 -26l6 -12v-42q-12 -42 -12 -48v-24q0 -12 12 -60q-12 -19 -12 -46v-47q0 -12 -12 -12h-125l-18 -12 l-6 10q-35 0 -96 -6q-30 8 -30 41v72q0 65 -6 108q6 38 6 102q0 24 -6 108q0 6 6 6l-6 29v24q0 25 6 48l-6 24l12 108l-12 263l6 72q-6 111 -6 162l6 12l-18 72v65q0 6 6 6q-12 22 -12 48zM387 808q0 -36 42 -54q0 -6 24 -18h12q102 51 102 90q-12 47 -12 71q0 49 12 138 l-24 156q-28 30 -96 30q-42 -9 -42 -24v-72l-12 -18v-18q24 -25 24 -48v-12l-12 -18v-54l-18 -24v-30l18 -24v-30q-12 -18 -18 -41z" />
<glyph unicode="q" horiz-adv-x="946" d="M94 349q18 154 18 240v48q18 19 18 29q0 9 -18 70v53l12 18v65q0 5 -6 5q12 20 12 36q0 58 -12 58l6 12v18q0 6 -6 6q12 19 12 35v94q0 257 114 288q55 35 119 35q0 6 6 6h198q14 -12 24 -12v-11q0 -43 30 -53q35 17 60 17q54 0 101 -76q30 0 48 -153q6 0 6 -18v-17 l-12 -18v-35q18 -57 18 -100v-6q0 -12 -12 -12q6 -11 6 -17q-12 -19 -12 -35l12 -18v-71q-24 -26 -24 -29q12 -37 12 -41q-6 -109 -6 -182q-12 -20 -12 -36l12 -41v-41q0 -41 -12 -64q12 -82 12 -106q0 -66 -54 -176q-51 -18 -71 -65q-6 0 -6 -12h-18q-36 -4 -36 -17v-18 q3 -18 48 -18h53q3 0 18 -12h18l12 6l24 -23v-41q-8 -14 -24 -83q-45 -35 -54 -35q-77 0 -257 47q0 6 -6 6h-42q-12 0 -72 35q-9 0 -24 12q-6 0 -6 -6l-12 6h-12q-5 0 -5 -6q-34 8 -48 18q9 52 24 70v42q-54 0 -144 135q-24 23 -30 194zM357 578q2 -41 12 -41l-6 -12v-12 q12 -41 12 -47v-53l-12 -41q34 -100 66 -100q18 -6 18 -12l12 6q6 0 6 -6q66 14 66 65l12 129q-6 23 -6 47q0 49 18 112v12l-12 17v100l12 18v12q0 6 -6 6l6 11v6l-6 12q6 0 6 6q-6 0 -6 6h6q-12 19 -12 35v6q1 29 12 29q-6 88 -6 129v89q1 58 12 58q-16 53 -60 53h-36 q-60 0 -60 -70q-14 -36 -18 -36l6 -29v-94l-12 -18v-23q0 -38 -12 -82q18 -84 30 -112q-9 0 -24 -47q12 -23 12 -65v-17q0 -4 -30 -30v-17z" />
<glyph unicode="r" horiz-adv-x="937" d="M94 86v234q14 19 18 54l-18 84q12 19 12 35q-12 20 -12 36v54q0 6 12 48q-12 20 -12 36v48l24 132l-12 101l6 54q-6 38 -6 84q0 6 6 18l-6 12q0 25 6 48q-6 111 -6 197v72q0 20 18 42q99 -6 150 -6h29q49 0 78 6q38 -6 84 -6h102q14 -12 120 -30q0 -6 17 -12v6 q102 -24 102 -72q12 0 12 -18q0 -111 24 -143q-6 -11 -6 -24q0 -6 6 -6q-12 -20 -12 -36q0 -15 24 -42v-30l-24 -24v-6q0 -18 24 -18v-60q0 -114 -42 -137l-42 -66q-23 -18 -101 -48v-18q33 -180 59 -180v-12l-6 -29q30 -53 48 -132q12 -2 12 -12q0 -6 -6 -6l24 -54v-36 q0 -26 12 -48h-6q6 -35 54 -72v-53q-7 -18 -54 -36h-143q-21 18 -72 18h-12q0 12 -18 42h6q-18 29 -36 161q-18 15 -60 216q-6 0 -6 6v41q0 66 -30 66h-6q-42 0 -48 -197q9 0 18 -18v-108q-36 -43 -36 -54q-7 -24 -12 -24q30 -77 30 -89v-24q0 -9 -18 -18h-131l-18 12h-96 q-24 9 -24 41zM399 1152q12 -32 12 -48q0 -42 6 -132l-12 -24q12 -13 18 -113l66 -30h12q36 27 78 48h24l18 -12q0 12 24 12v24h-18q-17 0 -36 -12q-25 8 -36 29v30q42 45 42 66q-36 59 -36 114q-6 0 -6 6v30q0 85 -66 108h-30q-54 -19 -54 -48q-6 -23 -6 -48z" />
<glyph unicode="s" horiz-adv-x="898" d="M65 405q5 20 36 36h257q18 0 30 -126q-6 -41 -6 -66q59 -30 84 -30h6q50 0 72 60l12 36q-6 12 -6 18h6q-12 20 -12 36v18q0 21 6 54q0 17 -48 65q-50 69 -120 96q0 8 -66 54q0 10 -60 48q0 10 -89 78q-60 100 -60 108q0 11 -30 47v84q0 51 -6 162q24 10 24 42v48l66 113 q112 66 119 66q0 -6 6 -6q0 11 60 24q30 0 210 6q20 0 95 -54q77 0 96 -72q32 -8 54 -65v-6h-6q24 -54 42 -132v-48l-12 -42q12 -20 12 -36v-6q-12 -14 -12 -24h-36l-60 -30h-24q-18 18 -131 18h-12q-30 12 -30 48l12 60q-12 23 -12 66q0 6 6 18q0 38 -96 78h-6 q-28 0 -54 -108v-126q0 -25 24 -66q0 -41 72 -71l137 -132q28 0 66 -66q9 0 48 -42q61 0 96 -132q0 -5 -6 -47h36q12 -2 12 -12v-36l-18 -84l6 -12v-12q0 -138 -30 -174q0 -37 -120 -83q-49 -60 -60 -60h-30l-18 12h-12q-11 -12 -83 -24q0 -6 -6 -6h-84q-54 42 -108 42 q0 98 -66 161q0 24 -60 24l-6 -12q0 -5 24 -36v-24q0 -8 -18 -18h-17q-72 104 -72 114q-24 51 -24 186zM220 76v41h18q18 -2 36 -59l-12 -6h-30q0 9 -12 24zM316 153q2 -12 12 -12h6q0 12 6 12q-6 12 -6 18h-18v-18z" />
<glyph unicode="t" horiz-adv-x="762" d="M23 1243l6 42q-6 81 -6 113q26 44 35 44q16 -3 40 -3t56 3q20 -12 36 -12t36 12q0 -6 6 -6q2 12 12 12l108 -10l18 -12v6q18 -6 18 -2l36 2q21 -2 47 -2l6 2l12 -6h18l12 6q0 1 10 1q24 0 106 -5q0 8 36 4q0 -6 6 -6q0 6 6 6q0 -6 6 -6v6l12 -6h6q6 0 6 6l10 -112 q0 -5 3 -40t3 -61q-12 -28 -24 -30h-36q-68 -4 -84 -4q-18 0 -66 -14q-13 0 -18 -30q36 0 48 -150q-12 -108 -24 -108v-23l18 -24v-72q-24 -141 -24 -186v-30q0 -13 -6 -24q6 -10 6 -30q0 -85 -12 -149q12 -48 12 -102v-215q0 -44 -30 -54q-42 12 -47 12h-42q0 6 -39 3 t-57 -3h-60q-9 0 -18 18v143q0 20 6 30l-6 36v126l-18 72q6 61 6 95v144q0 6 12 48v30q0 5 -12 48q18 29 24 227q-6 24 -6 42q0 6 6 18q0 138 -48 138h-73.5h-52.5q-31 0 -41 42zM382 1249q0 -48 36 -48h6q26 6 35 30q0 14 -53 42h-12q0 -12 -12 -12v-12z" />
<glyph unicode="u" horiz-adv-x="1030" d="M94 507q0 11 12 48q-12 27 -12 78q0 27 12 329q12 0 12 12v72q-12 42 -12 48v60q0 39 -12 84l6 42q-6 71 -6 107q5 30 18 30h12l60 -6l6 12q13 -4 66 -12q52 6 90 6h54q8 0 18 -18v-221q0 -6 6 -6q-12 -20 -12 -36v-84l18 -24v-24l-12 -18v-24l18 -24v-12q0 -66 -36 -191 v-36q2 -42 12 -42q-6 -60 -6 -90q0 -28 6 -137q-11 -26 -42 -54v-6q0 -21 48 -54q25 -102 42 -108q131 19 131 72q6 0 12 30l-6 36l12 18q0 6 -6 6l12 30q-12 19 -12 36q6 0 6 6q-12 0 -12 12v24q0 16 12 35h-6l6 12q-12 20 -12 36v204q18 66 18 78q-12 22 -12 48v71 q0 6 6 6q-6 12 -6 18l12 24l-12 30l6 12l-6 36l12 18v30q0 12 -12 12l6 12l-12 18q1 60 12 60l-6 12v6l6 12q-12 0 -18 36q0 4 6 35q-6 33 -6 54q0 24 84 36h18l18 -12h36l18 12h102q23 0 29 -108q6 0 6 -17v-18q0 -71 6 -144q0 -5 -6 -36q6 -42 6 -72q0 -9 -12 -54 q11 -55 24 -72v-23q-12 -43 -12 -48l12 -42v-18q0 -6 -12 -48v-60q12 -42 12 -48v-131q0 -75 6 -138q-6 -32 -6 -120q-18 -65 -24 -114q-77 -53 -149 -131h-90l-60 -30h-209l-66 24q-6 0 -6 6v18l12 18v12h-30l-30 -42h-6q-126 75 -126 101q-17 157 -30 180l18 30v24 q-24 0 -30 179zM178 382q28 -12 96 -18q30 7 30 18v18q0 12 -12 12h-18q-39 -30 -60 -30q-10 24 -36 30v-30zM184 442l6 -12l42 6h18v18h-24q-13 0 -24 6q-11 -6 -18 -6v-12zM280 226q9 0 66 -30q12 0 12 12q0 24 -60 42q-12 -6 -18 -6v-18zM376 23q30 -8 30 -18 q36 14 36 24q-24 12 -42 12q0 -12 -12 -12q0 6 -6 6zM412 124l6 -12l12 6l12 -6q3 24 30 24v18h-18l-42 -12v-18zM819 244q2 -12 12 -12h18v12q0 12 -12 12h-6q-12 -2 -12 -12z" />
<glyph unicode="v" horiz-adv-x="890" d="M12 1400v23q0 9 18 18h30q10 -11 72 -18q0 -6 6 -6q0 6 6 6q0 -6 6 -6q2 12 12 12h83q6 0 48 12h36q36 -15 36 -53q30 -46 30 -105q0 -8 36 -128l-6 -41q24 -28 60 -192q6 0 18 -6q22 20 36 169q6 0 6 6q-6 32 -6 53v17q0 32 18 87q-18 34 -18 82q6 47 18 70q-6 0 -6 6 q28 40 42 40q81 -5 101 -5q44 4 60 17h12q36 -20 36 -47h18l24 18h12v-23q0 -41 -42 -76v-18q0 -49 -6 -157q-36 -20 -36 -29v-6q36 -26 36 -52v-70q-21 -22 -60 -116q6 -33 6 -47q0 -26 -42 -151l-12 -53v-12q18 -60 18 -87q0 -15 -18 -41v-40l-48 -257q-14 -20 -29 -192 l-24 -23h-24q-15 11 -18 11h-42q-15 -11 -18 -11h-18l-18 11h-36l-18 -11h-66q-48 14 -48 64q0 89 -24 157q-12 82 -30 105q6 0 6 6h-6l6 11v18l-6 12h6q-14 32 -29 122q-18 0 -18 11v53q-12 85 -12 93v53q-24 71 -24 87l6 23q-66 147 -66 286q0 21 -66 215q0 18 -24 105z " />
<glyph unicode="w" horiz-adv-x="1434" d="M12 1408q18 30 18 42h185l18 -12h72q59 0 72 -149q0 -32 18 -54v-42q0 -6 -6 -6q42 -113 66 -240h-6q18 -35 18 -59h24q5 0 24 41q-12 20 -12 36q0 83 18 114q4 383 30 383l29 6h84v-12h102q6 0 48 12h6q42 -26 42 -54q0 -149 30 -185v-6q0 -79 54 -312q6 0 6 -6v-59 q0 -67 29 -72q10 0 30 42q-6 21 -6 24l6 12q-6 11 -6 18q10 24 36 215q14 0 30 102q14 0 18 30q-36 27 -36 42q24 203 48 203l12 6h78q38 0 90 6l36 -6q32 6 54 6q29 -8 29 -42l-41 -227v-66q0 -16 -12 -36l6 -12q-10 -30 -36 -209q-66 -262 -66 -276v-42l6 -12 q-18 0 -24 -125q-11 0 -60 -294v-48l-12 -17h6q-23 -90 -66 -90q-88 6 -131 30h-24q-23 0 -60 -24h-6q-58 12 -66 221q-6 0 -6 12q6 40 6 78q-42 28 -42 72q0 15 6 48q-9 49 -24 66v41q-4 84 -36 84q-10 -6 -24 -6v-18l18 -24v-6q-18 -89 -42 -161q6 -11 6 -24 q-30 -76 -30 -90q0 -13 6 -66l-6 -30q6 -39 6 -78q0 -77 -143 -77h-36q-15 -12 -24 -12q-25 0 -108 -6q-66 0 -66 215q-12 0 -36 156h-6l6 12q-30 73 -30 173q-20 0 -30 108v18q0 15 12 54q0 74 -65 203q-36 66 -36 222q-41 0 -66 221q-12 0 -12 18z" />
<glyph unicode="x" horiz-adv-x="947" d="M21 4v47q54 98 66 161q15 0 42 95q40 54 54 149q8 0 36 65q18 0 30 72q6 0 6 6l-6 11q5 0 36 60l-6 12q12 24 30 107q-18 63 -18 77v6q0 22 6 54q0 6 -48 47l-6 12q18 30 18 42q-53 25 -54 36v11q0 81 -36 149q0 23 -78 101q-30 68 -30 84v29q0 9 24 18q22 0 54 -6 q99 6 150 6q95 0 95 -53q30 -63 54 -167q17 -45 42 -54q32 32 48 90q16 0 24 89l42 89l30 18h30q42 -12 48 -12q1 12 12 12h173q0 -9 24 -24v-6q0 -41 -78 -148q0 -50 -60 -173q-39 -65 -59 -137q-72 -112 -72 -125q-10 -61 -30 -83v-36q26 -27 90 -160q24 -24 35 -107 l-6 -36q26 -5 48 -54l66 -148q19 0 78 -143q9 0 24 -24v-42q0 -17 -24 -17q-20 12 -36 12h-36q-5 0 -48 -12h-48l-18 12h-6q-5 0 -5 -6q-48 11 -66 23q0 -12 -12 -12h-24q-40 0 -96 185q0 11 -48 143h-36q0 -24 -12 -24l6 -12q-12 -19 -30 -149q-10 0 -30 -95 q-29 -11 -71 -65h-156q-48 0 -114 -6q-11 6 -18 6z" />
<glyph unicode="y" horiz-adv-x="798" d="M-11 1420v43q9 0 24 12h48l18 -12q62 0 191 -6q49 -31 90 -206l18 -12h18q16 0 36 97q20 121 42 121h293v-37q-16 -71 -78 -230q0 -30 -42 -115q0 -52 -72 -243q-6 -31 -6 -73v-139q0 -32 12 -128q-7 -72 -18 -72q12 -106 12 -176q0 -47 -24 -73v-18l18 -24v-37 q-31 -52 -47 -54h-114q-48 0 -114 -6q-25 8 -36 30v249q0 25 6 66q-6 49 -18 49q12 45 12 85v24q0 103 -12 103l6 12v18q0 6 -6 6q6 19 12 19q0 67 -54 212q-30 51 -84 218q-5 0 -29 31l6 12z" />
<glyph unicode="z" horiz-adv-x="733" d="M22 208q0 53 71 279q0 15 12 29l-6 12q10 0 30 87q11 0 36 116q18 52 36 70q12 78 30 99l-6 12q8 0 30 75q6 0 6 6h-6q22 51 68 229q-20 -1 -80 -2q-5 0 -144 -6q-48 0 -53 64q-6 0 -18 29l26 41q-6 50 -6 82q0 36 27 40h262v12h87q3 0 18 -12h138q54 0 54 -87 q-9 -35 -2 -35l-6 -11v-6q0 -6 6 -6q-6 -11 -6 -18q6 -11 6 -17q-8 -41 -46 -180q-78 -287 -126 -414q0 -5 6 -5l-36 -88l6 -11q-8 -1 -36 -76q0 -6 6 -6q-12 -15 -29 -110h-6l6 -12q-11 -21 -18 -58q6 -34 -9 -47h264q24 -6 24 -42q0 -26 -12 -68q0 -6 6 -18h-6 q8 -26 18 -122l-36 -17h-112l-18 11l-18 -11h-83l-18 11h-110q-6 0 -6 -5q-24 11 -42 11q-20 0 -48 -17h-12q-110 11 -110 15q-3 120 -9 177z" />
<glyph unicode="{" horiz-adv-x="588" d="M116 642v25q0 30 48 105q0 24 35 104q0 53 36 148q0 13 -6 67q17 253 48 253q80 117 138 117l54 24h18l18 -12h54q13 0 18 -31q-11 -49 -24 -49l6 -12l-6 -13q12 -2 12 -12v-25q0 -9 -78 -73l-60 -203h6l-6 -13v-74q0 -6 6 -6l-24 -49q0 -33 12 -111q-6 -47 -6 -104 q-24 -27 -24 -31v-31q35 -120 42 -123l-24 -123l18 -135l-6 -31q17 -117 66 -117q24 -3 24 -18v-37l-24 -31v-18l12 -19v-37q-4 -18 -42 -18q-204 25 -204 49q-52 43 -71 142q-18 0 -24 332q6 23 6 55q0 87 -48 135zM229 692q7 0 18 -6q12 6 18 6v24q0 32 -18 37 q-8 0 -18 -18v-43zM253 790q6 -18 12 -18q36 9 36 43v24q0 13 -12 13h-6q-15 0 -30 -62zM331 956h30q14 0 24 43q-6 43 -18 43h-18q0 -23 -18 -49v-37z" />
<glyph unicode="|" horiz-adv-x="1035" d="M401 9l3 243q3 61 0 145q1 7 7 7l-5 38l2 46q-6 32 5 50q-1 48 -2 102q0 7 4 7l-4 36v109q0 30 4 58q-11 9 -5 18l3 5l-6 78q0 8 1 16l-5 10l2 63l6 10v17q-5 4 -4 13v8q1 17 4 22q-1 84 -4 319q4 14 4 21q-4 12 -4 37v21q0 20 4 34v7q0 5 7 11q12 21 39 21h8l23 -12 l9 -1h26q2 0 5 -1q6 3 13 6h21l10 -11l35 -1q2 -1 3 -2h2q6 0 17 -29q0 -39 -5 -99l7 -15l-2 -146q5 -184 8 -442q-4 -261 -8 -261q4 -39 4 -65v-65q0 -72 4 -173l-4 -15l4 -43v-37q0 -21 -4 -21l4 -36v-22q0 -85 -8 -116l4 -43q-13 -73 -29 -73h-21q-4 -2 -9 -5l-7 5h-33 l-1 -1q-5 0 -9 1h-92q-2 1 -3 2h-14q-11 0 -11 57v86z" />
<glyph unicode="}" horiz-adv-x="572" d="M31 60q7 36 60 36q0 12 54 95q0 27 -18 90v54q0 16 12 36q-12 20 -12 36q0 5 12 48q0 3 -12 42q18 28 38 89l50 162q0 13 6 24q-6 10 -6 24q-50 34 -44 96q-20 18 -26 42q6 89 6 149v72q-23 162 -48 162q-29 0 -42 30q6 83 18 83l-12 24q12 20 12 30l42 40l18 -12h54 q112 -40 185 -177q48 -31 48 -222v-24q0 -79 -12 -161q3 -10 4 -20q22 -14 22 -28v-36q40 -30 28 -30q28 -35 28 -72q0 -22 -60 -74v-6q-20 -24 -36 -46l4 -6l-6 -12q12 0 12 -18q-32 -36 -20 -36v-23q-6 0 24 -36v-12q-18 -21 -18 -72v-42q-42 -48 -42 -90q0 -26 30 -54 l6 -36v-42q-36 -96 -71 -119q0 -21 -66 -36q-2 -5 -72 -42h-36q-18 12 -42 18l-36 -6q-11 0 -30 36l6 12q-6 0 -6 6h6q-12 27 -12 54zM315 840q12 0 12 12v18h-12v-30z" />
<glyph unicode="~" horiz-adv-x="1048" d="M58 721q-3 3 1 6l27 35l19 1l37 40q46 32 75 28q34 15 67 21q17 -8 53 1q112 5 159 -41q4 5 9 2l29 -21q99 -65 151 -55q33 0 68 11q4 5 5 6l34 31q1 1 22 2l8 7l3 13v-2q8 7 20 20v1l1 1q10 9 21 22l17 -3l1 -1l18 9l5 -33l3 -4q37 -79 51 -84q-16 -24 -2 -58q5 5 13 -3 q5 -14 1 -18l-48 -48l1 -9q-74 -66 -108 -75l-9 -9q-12 -4 -22 -5q-52 -20 -103 -20q-60 0 -177 54q-46 34 -83 49q-45 6 -102 19q-11 -3 -4 -8l-49 3l-2 2q-19 -6 -43 -23q-23 -7 -42 -23q-11 -1 -49 -46l-19 20q-5 -3 -9 -5q-3 -3 -6 10l-38 133q-25 28 -4 47z" />
<glyph unicode="&#xa1;" horiz-adv-x="672" d="M129 333q0 172 60 323q30 138 66 138q23 17 54 17h24q45 0 54 -59v-54q0 -74 48 -150q35 -179 35 -203v-108q0 -38 6 -90q-6 -23 -6 -48l6 -54q0 -12 -6 -12l6 -59v-102q0 -66 -71 -66q0 -6 -6 -6h-204q-35 14 -48 48q-12 268 -12 347q6 43 6 48zM165 1069q0 155 48 155 h6q63 0 192 -6q48 -40 48 -149q5 0 5 -18v-36q-15 -36 -47 -36h-240q-12 76 -12 90z" />
<glyph unicode="&#xa2;" horiz-adv-x="1139" />
<glyph unicode="&#xa3;" horiz-adv-x="966" d="M127 225q-16 38 5 56q-2 4 2 6l29 34l16 -3l30 54q40 146 55 161l-10 18v40q12 36 16 36l-6 30v60q-10 41 -10 47l-40 187q0 7 6 7q-11 19 -11 35v18q2 11 11 11l-6 13q6 17 10 17q-10 19 -10 36v18l21 141q65 119 97 119q89 66 129 71l21 -12l46 30h41q42 -17 42 -24 l10 6h52q68 -65 88 -112h16q8 0 21 -24l52 -103q-55 -28 -108.5 -67.5t-111.5 -44.5q-19 91 -71 132h-10q-20 -17 -57 -17q-20 -53 -20 3v-24q-21 -96 -21 -152v-24l-21 -29v-11h27v-18q28 -116 52 -279l-18 -164q0 -11 -10 -29q12 0 -24 -60q0 -5 -16 -76q58 -2 82 -28 q4 5 8 1l21 -31q24 -34 70 -44q28 -7 60 8q4 5 6 6l34 29q1 1 19 -4l8 7l5 14v-2q8 6 20 19l1 1l1 1q10 8 22 21l14 -7v-2l17 7l-1 -40l2 -5q47 -99 59 -107q-18 17 -12 -25q5 5 10 -48q-28 -17 -32 -21q-1 13 -50 -24v-11q-75 -38 -106 -41l-9 -9q-11 -2 -20 -1 q-48 -11 -92 0q-51 -8 -92 38q-33 28 -62 54q-38 17 -84 2q-10 -1 -5 -8l-42 13l-1 3q-17 -3 -41 -16q-21 -3 -40 -18q-10 1 -50 -42l-13 27q-5 -3 -8 -4q-3 -3 -4 13zM155 731q3 15 3 24v8q-4 27 61 26l25 -6h34l26 4h68l25 -6q3 5 17 5h9q25 -1 25 -3q206 1 214 7l76 -2 q13 -34 11 -40v-29q-9 -8 -52 -7l-76 1l-26 -5l-94 2q-68 1 -161 0q-9 0 -8 3l-43 -3l-51 1q-85 2 -82 31l3 5q-4 16 3 24z" />
<glyph unicode="&#xa4;" horiz-adv-x="896" d="M-3 1227q6 17 10 17h34q24 0 24 -17v-24q0 -37 26 -37q18 0 22 37v80q0 2 -5 19v46q0 28 -2 85h56q7 0 7 -10q0 -32 5 -97h-3l5 -29q-3 -27 -5 -34q5 -9 5 -22l-2 -21q2 -5 2 -10h-2l2 -5v-19q0 -54 -63 -75l-24 -3q-82 19 -82 58q-5 0 -10 61zM7 805l5 51q0 5 -5 17 q5 17 5 29v63q0 7 -5 15l3 14l-3 29q0 45 44 61l17 5q75 0 87 -41q7 -34 10 -92h-3q0 -3 3 -3q-3 -24 -3 -36q0 -20 3 -32q0 -118 -24 -118q-15 -16 -37 -20h-26q-41 0 -66 37q0 16 -5 21zM18 633v5q0 20 2 65l7 5l12 -3q3 0 8 3l9 -3q21 3 34 3l8 -15q-5 -33 -5 -60 q0 -44 19 -44h2q16 0 22 10l-2 5v97q0 2 10 9q8 -5 19 -5h7l29 3l3 -5v-7q0 -31 2 -75l-2 -5l2 -15v-17l-2 -14l2 -5q0 -7 -2 -7q2 -25 2 -37v-41q0 -2 3 -2q-3 -5 -5 -22q2 -33 2 -49l-2 -4q2 -5 2 -8q0 -14 -14 -14l-5 2q-3 0 -3 -2q-46 0 -46 22v33q0 3 3 3l-3 5v48 l-2 17h2q-3 12 -7 12h-22q-6 0 -9 -24l2 -24q-2 -55 -7 -68q5 -8 5 -12q0 -15 -66 -15q-10 0 -12 126q5 10 5 15q-5 10 -5 14l2 13q-4 36 -4 87zM25 19l3 10l-3 12q11 75 30 75q0 7 58 73l9 34l-2 12v17q0 41 -15 53q-19 -6 -19 -31v-5q0 -11 5 -20q-5 -14 -27 -14h-26 q-4 0 -8 7q0 24 -2 58q18 56 58 56q0 2 10 2h14q56 -9 56 -26q8 0 12 -37q0 -10 -2 -31q2 -23 2 -46q-11 -62 -41 -87q-26 -20 -39 -54q0 -9 22 -14q6 0 36 5q11 -5 12 -10q0 -48 -21 -48h-3q-6 0 -22 4q-21 -1 -21 -4q-9 4 -20 4q-5 0 -5 -4q-14 1 -14 4q-8 -4 -15 -4h-9 q-2 0 -13 9zM65 832q6 -17 15 -17q22 0 22 48q0 49 2 66q-5 44 -5 56l8 14q-12 29 -25 29q-9 0 -17 -26l3 -5q0 -3 -3 -3l3 -24v-24q0 -3 -3 -3q0 -2 3 -2l-3 -12v-5q0 -5 3 -10q-3 -4 -3 -9q3 -31 3 -34t-3 -3l3 -12v-22q0 -2 -3 -2zM228 999v5q0 21 2 65l7 5l13 -2 q2 0 7 2l9 -2q21 2 34 2l8 -14q-5 -34 -5 -61q0 -43 19 -43h3q16 0 21 9l-2 5v97q0 2 10 10q9 -5 19 -5h7l29 2l3 -5v-7q0 -30 2 -75l-2 -5l2 -14v-17l-2 -15l2 -5q0 -7 -2 -7q2 -24 2 -36v-42q0 -2 3 -2q-3 -4 -5 -22q2 -32 2 -48l-2 -5q2 -5 2 -7q0 -15 -14 -15l-5 3 q-3 0 -3 -3q-46 0 -46 22v34q0 2 3 2l-3 5v49l-2 17h2q-3 12 -7 12h-22q-6 0 -9 -25l2 -24q-2 -54 -7 -68q5 -7 5 -12q0 -14 -66 -14q-9 0 -12 126q5 10 5 14q-5 10 -5 15l3 12q-5 36 -5 87zM231 1220l2 12q0 10 -2 19q2 23 2 44v29l5 7l-7 58q2 4 2 10q0 3 -2 24q2 5 2 7 h15l5 -2v5q14 -3 14 -5l12 2h22q5 0 5 -5v-26q0 -17 -3 -53q5 -1 5 -5l-2 -17l5 -3q-3 -24 -10 -46q2 -24 2 -38v-27q0 -13 -9 -17q0 -3 14 -19q0 -4 5 -20q36 0 36 36h-2l2 5l-2 22q0 5 2 5l-2 17v22q0 20 2 43q-2 10 -2 20q2 4 2 7h-2l2 5v5q0 2 -2 2l2 5v2q0 3 -2 3l2 5 v7l-2 5h2l-2 5v4l2 13q-2 0 -2 2h2l-4 10l2 12q-2 4 -2 9q11 8 19 8q5 0 10 -3q16 3 26 3h8q9 0 9 -61v-22q0 -8 -2 -21q5 -12 5 -22q0 -3 -3 -8l3 -9q0 -8 -3 -17l5 -85q0 -52 -19 -65l-27 -20q-16 0 -36 -7h-32q-26 4 -26 10q2 4 2 9h-7q0 -9 -7 -9q-32 9 -32 51 q-2 4 -2 12l2 12q-4 9 -7 39zM250 1193l24 -3q5 0 5 5v5h-7l-7 -5h-8l-7 5v-7zM253 48q0 20 7 56q0 6 -4 32q0 4 2 4q-2 29 -2 42v48q0 15 2 36q-2 9 -2 22l14 32q20 21 75 21q40 -8 46 -19q19 0 24 -41v-29q0 -12 -7 -39q4 0 7 -7v-3q-5 -7 -9 -19q5 -12 5 -19l-3 -5l5 -10 q0 -6 -7 -19q9 -25 9 -44v-39q0 -34 -48 -53h-56q-58 13 -58 53zM253 1205h2l12 2v3l-12 2l-2 -5v-2zM260 393l2 12q0 11 3 73q-3 4 -3 7q3 4 3 10q0 5 -3 26l3 17l-3 24q0 9 3 13q-3 24 -3 38v63l3 15q-3 4 -3 12v2q0 8 32 8h5q5 0 9 -3l29 5l15 -2q4 0 39 2q4 -8 4 -14 v-20l-4 -7v-3l4 -7v-5h-43q-2 0 -19 5q0 -12 -5 -12l2 -10q0 -6 -5 -26q7 -27 10 -27l5 -5l5 3h43v-3l-2 -14q5 -8 5 -15v-17q0 -12 -8 -14h-41q-19 -10 -19 -15q7 -12 7 -19v-20l-2 -14q0 -15 31 -15q0 -2 3 -2q15 5 21 5h3q7 -3 7 -15v-2l-5 -7q5 -18 5 -20l-2 -12 q-21 0 -83 -5q-29 2 -29 5l-5 -2q-8 0 -14 7zM274 1161q0 -4 17 -9v2q-4 10 -17 10v-3zM290 1111q3 0 7 -3q5 3 8 3q0 4 -5 4h-10v-4zM303 1137q1 -5 5 -5q6 5 10 5v5h-2l-13 -2v-3zM311 242q5 -17 5 -19v-5q0 -31 3 -70q-3 -22 -5 -27l2 -15v-4q0 -10 -2 -27q6 -24 26 -24 q15 0 17 43v39l22 5v2q-19 0 -19 5v17q0 2 5 20l-8 33q2 39 5 39q-11 33 -19 34h-3q-29 -16 -29 -39h3l-3 -4v-3zM316 407q0 -4 4 -4h8v7q0 5 -5 5h-3q-4 -1 -4 -5v-3zM343 303h7v2q0 5 -5 5l-2 -5v-2zM360 303l12 -3v7q0 5 -5 5q-3 0 -7 -7v-2zM386 261q0 -13 10 -16v16 q0 4 -7 8l-3 -5v-3zM394 228h5v7q-5 -1 -5 -5v-2zM448 757q17 62 17 80q15 66 22 87q0 4 7 32q-2 4 -2 7q19 97 29 121q58 0 58 -12q0 -18 17 -54q5 -17 12 -72l10 -3v-4q0 -9 -10 -20q11 0 24 -58q0 -2 -2 -2q10 -17 12 -37l-2 -12q14 -43 14 -51q-5 -14 -17 -14 q-20 2 -34 2l-17 -2q-4 2 -7 2l2 5q-10 56 -21 56h-12q-17 0 -17 -22l-10 -36h-66q-3 0 -7 7zM471 403v38q0 14 2 39q-2 4 -2 15q0 2 2 2l-2 12v12q0 6 2 10q-2 4 -2 10v5q0 29 4 29q-2 24 -2 36v99l2 12h95q65 -6 65 -38l5 -29l-2 -10q5 -8 5 -15l-5 -7l5 -7v-20 q0 -16 -22 -41q-12 -2 -20 -9q0 -16 29 -102q0 -24 15 -34v-10q-4 -10 -17 -10h-14q-39 0 -39 20q-20 90 -27 106q-9 0 -12 -29q2 -32 2 -48q-4 0 -9 -17q7 -14 7 -24q-5 -3 -7 -3q-58 0 -58 8zM473 1113l2 12v41q0 23 3 41q-3 11 -3 37v12q0 2 -2 2q2 20 5 20l-3 17 q0 39 -2 55q2 24 2 61v19l13 3h46q21 0 21 -41q13 -23 29 -88l5 -2h3l7 22q-5 30 -5 34l3 21q-3 19 -3 39q6 15 10 15h31q22 0 22 -17v-39l-5 -7v-5q8 -9 8 -22v-24q0 -19 -3 -51q3 -5 3 -7l-3 -5q3 -21 3 -32q0 -4 -5 -19q1 -24 5 -24l-3 -12v-41q0 -20 -17 -20h-48 q-10 21 -32 124l-12 21q-10 -2 -10 -14q0 -2 3 -2l-3 -5v-32q0 -13 3 -34q-3 -3 -3 -14l3 -5q-3 -4 -3 -10v-5q0 -2 3 -2q-5 -22 -10 -22h-51zM495 298v17q31 30 56 34h32q3 0 12 -12q2 -159 2 -209q0 -14 -2 -60q2 -5 2 -8q-2 -9 -2 -19v-17q0 -3 -12 -12q-5 0 -5 2l-17 -2 h-32q0 3 -2 7q0 6 2 20q-2 25 -2 29l2 21q-2 5 -2 8q5 9 5 26v131q0 27 -34 27zM504 931q20 -7 39 -7v5q-19 0 -34 12h-5v-10zM538 652q5 -11 5 -31v-5l-2 -15q3 -31 19 -31q21 12 24 12l5 -3q5 3 8 3v5h-3l-12 -3q0 5 -7 5v7q9 12 9 17q-6 16 -14 51l-10 7h-2 q-20 -1 -20 -19zM538 902q7 -43 14 -43h5q3 0 15 19q-6 16 -20 27q-3 -3 -14 -3zM693 338l10 7h2l29 -5q8 5 15 5h7q9 0 22 -2q4 2 9 2l10 -10q9 8 34 10q12 -10 17 -41v-10q0 -3 -7 -7h-10q-9 0 -22 -3l-5 3l-5 -3q-20 3 -33 3q-17 0 -22 -15l5 -43h2l24 7h24q51 0 59 -46 q4 -25 7 -31l-3 -30q0 -15 3 -63q0 -55 -68 -65h-36q-49 10 -49 29q-4 0 -17 20q0 2 3 2l-3 12v22q0 18 8 19h38q16 0 25 -19q-3 -5 -3 -7q6 -25 17 -25q22 0 22 29q-5 39 -5 51l2 12q-7 27 -24 27q-15 -19 -22 -19q-20 -3 -31 -3q-24 0 -24 12v25q0 62 -5 150zM693 759 l2 12v42q0 22 3 41q-3 10 -3 36v12q0 3 -2 3q2 19 5 19l-3 17q0 39 -2 56q2 24 2 60v20l12 2h46q22 0 22 -41q13 -23 29 -87l5 -3h3q7 19 7 22q-5 30 -5 34l2 22q-2 19 -2 39q6 14 10 14h31q22 0 22 -17v-39l-5 -7v-5q7 -9 7 -22v-24q0 -19 -2 -51q2 -4 2 -7l-2 -5 q2 -20 2 -31q0 -4 -4 -20q1 -24 4 -24l-2 -12v-41q0 -20 -17 -20h-48q-10 21 -32 124l-12 22q-10 -3 -10 -15q0 -2 3 -2l-3 -5v-32q0 -13 3 -33q-3 -4 -3 -15l3 -5q-3 -4 -3 -9v-5q0 -3 3 -3q-5 -22 -10 -22h-51zM708 439l5 51q0 4 -5 17q5 17 5 29v63q0 6 -5 14l2 15l-2 29 q0 45 44 61l17 4q75 0 87 -41q7 -33 9 -92h-2q0 -2 2 -2q-2 -24 -2 -37q0 -19 2 -31q0 -119 -24 -119q-14 -15 -36 -19h-27q-40 0 -65 36q0 17 -5 22zM708 1433l10 7h19q2 0 2 -2l5 2h12q15 0 15 -19v-15q0 -8 -2 -12l2 -15v-19q1 -5 5 -5l24 80h39l24 3l2 -5v-3 q0 -5 -33 -80q0 -6 -20 -55q10 -18 24 -61l56 -106v-3q0 -2 -7 -7q-2 0 -15 2q-28 -2 -41 -2t-24 36q-19 41 -24 41q-3 -12 -3 -14q0 -4 5 -58q-11 -8 -19 -8q-41 0 -41 15q-3 9 -3 22v7q0 2 -2 2q0 3 2 3q-5 50 -7 99q5 17 7 17l-7 12l2 12l-5 10q3 0 3 2h-3l3 5 q-3 24 -3 37h3l-3 4v25q0 2 3 2q-5 12 -5 44zM766 466q6 -17 15 -17q21 0 21 48t3 65q-5 45 -5 56l7 15q-11 29 -24 29q-10 0 -17 -27l3 -5q0 -2 -3 -2l3 -24v-25q0 -2 -3 -2q0 -2 3 -2l-3 -13v-4q0 -6 3 -10q-3 -4 -3 -10q3 -30 3 -34q0 -2 -3 -2l3 -12v-22q0 -2 -3 -2z " />
<glyph unicode="&#xa5;" horiz-adv-x="980" d="M103 1349v54q9 0 23 12h48l18 -12q63 0 192 -6q52 -36 78 -167q18 -48 30 -48h18q15 0 35 96q21 119 42 119h294v-42l6 -12q-10 -2 -96 -239q6 -12 6 -18q-24 -24 -78 -233q-30 -56 -30 -72q0 -9 18 -18h150q0 -11 12 -30q0 -33 -42 -54h-144v-54q81 -6 120 -6h30 q0 -9 12 -24v-30q-16 -30 -48 -30h-114q12 -56 12 -89q-9 -78 -18 -78q12 -93 12 -180q0 -13 -24 -78l18 -24v-35q-23 -45 -48 -54h-113q-49 0 -114 -6q-25 8 -36 30v245q0 25 6 66q-6 48 -18 48q12 26 12 96v65h-90q-6 0 -48 12h-72l-12 36q6 36 18 36h54q43 12 48 12h18 l18 -12h6q13 11 60 18q-5 60 -18 60h-24q-6 0 -6 -6q-25 12 -36 12q-53 -6 -66 -6q-36 0 -36 36v18q12 14 12 24h84l60 -6q-24 97 -54 137q-59 186 -84 186l6 12q-55 141 -107 239z" />
<glyph unicode="&#xa6;" d="M401 9l3 243q3 61 0 145q1 7 7 7l-5 38l2 46q-8 46 17 63q4 19 -10 29h78q10 0 24 -6q9 4 16 8l7 -4q2 4 7 8l18 -11q60 -13 57 -27l-3 -66l-1 -30l11 -24l-2 -60l-13 -23q12 -2 11 -15v-8q-1 -22 -7 -22q-16 -344 -4 -350l-3 -68q0 -10 -37 -29l-11 8l-28 -7q-8 0 8 12 l-10 -9q-16 1 -26 6q-11 -3 -92 -3q-11 0 -11 57v86zM403 977l2 63l13 24q-12 2 -11 16v8q1 24 7 24q6 360 -6 367l3 70q0 11 37 31l11 -8l38 -4h26q6 0 18 -10l24 4l42 -1q17 -8 16 -49l-3 -71l11 -25l-3 -254q-3 -64 0 -152q-1 -8 -7 -8l5 -40l-2 -102q-3 -24 -69 -21 l-12 8h-2q-14 -17 -46 -6q-3 -1 -6 -3l-7 4q-2 -3 -7 -8l-18 1q-60 14 -47 33l13 22l-9 63zM555 1491h5l4 2q-2 -1 -9 -2z" />
<glyph unicode="&#xa7;" horiz-adv-x="841" d="M110 808l19 70l51 89q30 17 50 29q-14 10 -34 24q-47 78 -47 84q0 9 -24 37v66q0 40 -4 126l19 71l51 88q88 52 93 52q0 -5 13 -5q0 9 47 19q23 0 164 4q15 0 74 -42q68 0 83 -56q25 -6 42 -51v-5h-4q18 -42 32 -103v-37l-9 -33q9 -16 9 -28v-5q-9 -11 -9 -19l-28 -31 l-47 8h-19q-14 14 -110 14h-9q-24 9 -24 37l9 47q-9 18 -9 52q0 5 5 14q0 30 -50 77l-46 -16q-22 0 -42 -84v-99q0 -20 19 -52q0 -32 72 -55l65 -62q20 -10 59 -38q68 0 83 -57q25 -6 42 -50v-5h-4q18 -42 32 -103v-13h18q9 -1 9 -9v-28l-6 -66l4 -9v-10q-7 -108 -31 -136 q0 -29 -70 -88l-40 -15q10 -8 24 -24q48 0 75 -103q0 -4 -4 -37h28q9 -2 9 -10v-28l-6 -65l4 -10v-9q-7 -108 -31 -136q0 -29 -70 -89q-62 -23 -71 -23h-23l-14 9h-9q-9 -9 -65 -26q0 -5 -5 -5l-66 8q-42 33 -76 33l-75 144l-29 -9q0 -4 19 -47q0 -6 -14 -14h-13 q-33 81 -33 89q-19 40 -19 146q4 15 28 28h194q14 0 23 -99q-5 -32 -5 -51q23 -24 42 -24h5q39 0 56 47l10 28q-5 10 -5 14h5q-10 16 -10 28v14q0 17 5 43q0 13 -37 51q-39 53 -94 75q0 6 -52 42q0 8 -47 37q0 8 -77 61q-47 79 -47 85q0 8 -24 37v65q0 40 -4 127zM242 -26 h14l28 -46l-9 -4h-24q0 7 -9 18v32zM345 677q0 -20 19 -52l31 -22q23 -23 42 -23h5q39 0 56 46l8 22h-4l-15 85q-9 18 -9 51q0 2 1 6q-6 6 -13 14q-28 38 -64 60l-15 -5q-21 0 -42 -84v-98z" />
<glyph unicode="&#xa8;" horiz-adv-x="1024" />
<glyph unicode="&#xa9;" horiz-adv-x="2177" d="M70 45v78q0 29 4 79q-4 7 -4 29q0 5 4 5l-4 25v24q0 11 4 20q-4 8 -4 19v10q1 59 9 59q-5 49 -5 74v201l5 24h192q132 -12 132 -78l10 -59q0 -3 -5 -20q10 -16 10 -29l-10 -15l10 -15v-39q0 -32 -44 -83q-25 -5 -40 -20q0 -31 59 -206q0 -49 30 -68v-20q-8 -20 -35 -20 h-29q-79 0 -79 40q-39 182 -53 215q-19 0 -25 -59q5 -66 5 -98q-10 0 -20 -34q15 -29 15 -49q-10 -5 -15 -5q-117 0 -117 15zM207 550q10 -22 10 -64v-10l-5 -29q6 -64 39 -64q42 25 49 25l10 -5q9 5 15 5v10h-5l-25 -5q0 10 -15 10v14q20 25 20 35q-14 32 -29 103l-20 14 h-5q-39 -2 -39 -39zM428 864v103q0 20 5 54l-5 10q5 24 10 24l-5 20q0 36 -5 113q0 147 44 186q69 39 84 39q9 -5 14 -5q5 15 30 15q56 -11 73 -20l64 -44q25 -42 25 -171l-15 -10h-69q-24 0 -49 14q5 49 5 74q0 32 -34 44q-40 -4 -40 -19q10 -2 10 -10v-5q-10 -67 -19 -79 v-5h14q-11 -73 -19 -98l10 -19q-5 -26 -5 -30q9 -34 9 -54h-4q4 -24 9 -24l-14 -49q5 0 5 -5q-5 0 -5 -5q13 0 19 -49h-5l10 -20q54 0 54 64q4 0 15 15l-5 10v44q0 7 24 14l10 -4h84q7 0 14 -15v-74q0 -29 -34 -98l5 -24q-16 0 -34 -30l-89 -19q-123 0 -166 68 q-12 61 -25 74zM536 35l4 167q0 9 -4 118h4l-4 9v40q0 19 4 19l-4 35v220q0 35 34 35q20 -10 29 -10l25 5q54 -4 54 -15q5 -235 10 -265q-5 -47 -5 -103v-93q0 -11 5 -20q-5 -9 -5 -14l5 -25l-5 -10q0 -5 5 -15q0 -98 -35 -98h-88q-25 0 -29 20zM781 158v78q0 27 5 69 q-5 9 -5 15q10 16 10 29v5q-10 71 -10 78v15q0 11 5 20l-5 9q5 27 5 40l-5 10q0 61 49 117l78 35l10 -5q25 14 39 14q95 -17 108 -44q40 -16 40 -34q0 -13 24 -93q0 -13 5 -40q-11 -49 -34 -49h-5q-5 0 -15 5q-20 -9 -29 -9q-64 0 -64 34v5h10l-5 10l5 44l-5 49 q-13 0 -35 14q-44 0 -44 -44q-11 -49 -19 -63v-5q14 0 14 -5l-9 -20q4 -105 4 -152q0 -5 -4 -15l9 -24q-9 -35 -14 -35l14 -58l-9 -5q4 -20 24 -20l34 5l10 -5q32 11 44 39v35q0 54 -24 54q-22 0 -49 14q10 89 24 89h59l30 -5l9 5q69 0 69 -40q0 -32 5 -83q-5 -26 -5 -44 l10 -44q-10 -108 -25 -108q-5 0 -14 -5q-10 5 -15 5q-49 -25 -93 -25l-30 5v-5q-105 0 -157 69q-9 54 -24 69zM879 834l10 103q0 10 -10 35q10 34 10 59v127q0 13 -10 30l5 29l-5 59q0 90 89 122l34 10q152 0 176 -83q15 -67 20 -186h-5q0 -5 5 -5q-5 -49 -5 -74 q0 -40 5 -64q0 -240 -49 -240q-29 -31 -74 -39h-53q-82 0 -133 73q0 35 -10 44zM997 888q12 -34 29 -34q45 0 45 98t4 133q-9 89 -9 112l14 30q-22 59 -49 59q-19 0 -34 -54l5 -10q0 -5 -5 -5l5 -49v-49q0 -5 -5 -5q0 -5 5 -5l-5 -24v-10q0 -11 5 -20q-5 -8 -5 -19 q5 -62 5 -69q0 -5 -5 -5l5 -25v-44q0 -5 -5 -5zM1036 506q0 -7 29 -25h5v30q-15 0 -34 5v-10zM1286 202q5 60 5 118v191q0 49 5 147q5 0 5 5l59 -5q49 0 49 10q24 -10 24 -30q-5 -64 -5 -103v-93q8 -19 35 -19h14q35 0 35 68q0 22 5 30q-4 25 -10 117q8 25 24 25q11 0 54 -5 q5 0 15 5l29 -5l25 5l10 -15q0 -55 5 -127l-10 -197q5 -9 5 -14q-10 -18 -10 -44q5 -15 10 -15l-5 -59v-59q0 -112 -20 -137q-114 6 -132 19l5 30q-10 90 -10 162v39q0 39 -30 39h-29q-12 0 -20 -59l5 -24v-20q0 -38 -5 -69q5 -25 5 -58q0 -49 -59 -49q-22 0 -29 -5l-10 5 l-29 -5l-10 14v94q0 75 -5 93zM1331 1330q0 5 4 5l-4 10v29l4 10q-4 0 -4 5l19 14h30q9 0 49 -9q1 9 9 9l35 -5q4 0 39 5q157 -32 157 -108q5 0 10 -14h-5l5 -10q-5 -67 -5 -83q0 -15 10 -40q-10 -1 -10 -9q0 -13 10 -45q-16 0 -30 -78q-95 -54 -176 -54l-5 -10q5 -68 5 -88 q-5 -61 -5 -64l5 -24q-5 -19 -5 -45h-5q-109 -5 -118 -5l-10 15v59q0 16 -5 25l5 29v49q0 11 -5 20l5 9l-5 10l5 35q0 5 -5 5l5 24v108q0 20 -5 39q5 19 5 39q0 27 -5 69q5 10 5 15q-9 19 -9 54zM1463 1104q6 -22 29 -34q28 0 54 34l-5 44q0 3 5 64q0 79 -39 79h-24 q-12 0 -15 -64q10 -2 10 -10q-5 -49 -15 -59v-10l10 -14v-5q0 -25 -10 -25zM1718 1384v14q74 -4 108 -4h25q15 0 39 -138h5q34 138 54 138h44q26 0 83 4v-9q0 -20 -49 -133q5 0 5 -5q-15 0 -59 -137q-19 -34 -19 -78h5l-5 -10q0 -5 5 -5l-5 -25v-24q0 -21 5 -54 q-4 -20 -10 -20l5 -24v-123q0 -7 -15 -15h-93q-25 0 -34 25q0 16 4 24l-9 177q5 54 5 93q0 28 -40 167q-54 137 -54 162zM1737 584v64q3 30 15 30h54q5 0 5 -5q25 9 39 9q49 -9 88 -9h118l5 -59v-49q-103 -4 -103 -20q20 -22 20 -69v-19q0 -10 -10 -49q10 0 10 -15 q0 -24 -15 -142l5 -10l-5 -49q5 -93 5 -157q0 -21 -15 -34l-24 5h-89q-10 0 -10 9v74q0 5 5 5l-5 10v49q0 49 -9 49l5 24v40q0 39 4 93l-4 10q9 39 9 93v59q0 49 -34 49h-49q-7 0 -15 14zM1904 579q2 -9 10 -9h10q7 0 14 14l-19 15h-15v-20z" />
<glyph unicode="&#xaa;" horiz-adv-x="648" />
<glyph unicode="&#xab;" horiz-adv-x="944" />
<glyph unicode="&#xac;" />
<glyph unicode="&#xad;" horiz-adv-x="629" d="M48 758l1 18q12 60 67 57l20 -13l29 -1l22 11l57 -2l21 -13q2 12 14 11h8q21 -1 21 -7q173 4 179 16l64 -3q9 0 27 -37l-8 -11l-2 -48q0 -14 -8 -24q7 -11 6 -24l-1 -24q-1 -20 -8 -30l5 -36l-1 -42q-8 -17 -44 -16l-64 3l-22 -11l-78 3q-58 3 -136 0q-7 1 -7 7l-36 -5 l-43 2q-71 3 -68 69l8 12q-9 35 -19 54l15 30q-3 34 -19 54z" />
<glyph unicode="&#xae;" horiz-adv-x="889" d="M-3 1227q6 17 10 17h34q24 0 24 -17v-24q0 -37 26 -37q18 0 22 37v80q0 2 -5 19v46q0 28 -2 85h56q7 0 7 -10q0 -32 5 -97h-3l5 -29q-3 -27 -5 -34q5 -9 5 -22l-2 -21q2 -5 2 -10h-2l2 -5v-19q0 -54 -63 -75l-24 -3q-82 19 -82 58q-5 0 -10 61zM7 805l5 51q0 5 -5 17 q5 17 5 29v63q0 7 -5 15l3 14l-3 29q0 45 44 61l17 5q75 0 87 -41q7 -34 10 -92h-3q0 -3 3 -3q-3 -24 -3 -36q0 -20 3 -32q0 -118 -24 -118q-15 -16 -37 -20h-26q-41 0 -66 37q0 16 -5 21zM18 633v5q0 20 2 65l7 5l12 -3q3 0 8 3l9 -3q21 3 34 3l8 -15q-5 -33 -5 -60 q0 -44 19 -44h2q16 0 22 10l-2 5v97q0 2 10 9q8 -5 19 -5h7l29 3l3 -5v-7q0 -31 2 -75l-2 -5l2 -15v-17l-2 -14l2 -5q0 -7 -2 -7q2 -25 2 -37v-41q0 -2 3 -2q-3 -5 -5 -22q2 -33 2 -49l-2 -4q2 -5 2 -8q0 -14 -14 -14l-5 2q-3 0 -3 -2q-46 0 -46 22v33q0 3 3 3l-3 5v48 l-2 17h2q-3 12 -7 12h-22q-6 0 -9 -24l2 -24q-2 -55 -7 -68q5 -8 5 -12q0 -15 -66 -15q-10 0 -12 126q5 10 5 15q-5 10 -5 14l2 13q-4 36 -4 87zM25 19l3 10l-3 12q11 75 30 75q0 7 58 73l9 34l-2 12v17q0 41 -15 53q-19 -6 -19 -31v-5q0 -11 5 -20q-5 -14 -27 -14h-26 q-4 0 -8 7q0 24 -2 58q18 56 58 56q0 2 10 2h14q56 -9 56 -26q8 0 12 -37q0 -10 -2 -31q2 -23 2 -46q-11 -62 -41 -87q-26 -20 -39 -54q0 -9 22 -14q6 0 36 5q11 -5 12 -10q0 -48 -21 -48h-3q-6 0 -22 4q-21 -1 -21 -4q-9 4 -20 4q-5 0 -5 -4q-14 1 -14 4q-8 -4 -15 -4h-9 q-2 0 -13 9zM65 832q6 -17 15 -17q22 0 22 48q0 49 2 66q-5 44 -5 56l8 14q-12 29 -25 29q-9 0 -17 -26l3 -5q0 -3 -3 -3l3 -24v-24q0 -3 -3 -3q0 -2 3 -2l-3 -12v-5q0 -5 3 -10q-3 -4 -3 -9q3 -31 3 -34t-3 -3l3 -12v-22q0 -2 -3 -2zM228 999v5q0 21 2 65l7 5l13 -2 q2 0 7 2l9 -2q21 2 34 2l8 -14q-5 -34 -5 -61q0 -43 19 -43h3q16 0 21 9l-2 5v97q0 2 10 10q9 -5 19 -5h7l29 2l3 -5v-7q0 -30 2 -75l-2 -5l2 -14v-17l-2 -15l2 -5q0 -7 -2 -7q2 -24 2 -36v-42q0 -2 3 -2q-3 -4 -5 -22q2 -32 2 -48l-2 -5q2 -5 2 -7q0 -15 -14 -15l-5 3 q-3 0 -3 -3q-46 0 -46 22v34q0 2 3 2l-3 5v49l-2 17h2q-3 12 -7 12h-22q-6 0 -9 -25l2 -24q-2 -54 -7 -68q5 -7 5 -12q0 -14 -66 -14q-9 0 -12 126q5 10 5 14q-5 10 -5 15l3 12q-5 36 -5 87zM231 1220l2 12q0 10 -2 19q2 23 2 44v29l5 7l-7 58q2 4 2 10q0 3 -2 24q2 5 2 7 h15l5 -2v5q14 -3 14 -5l12 2h22q5 0 5 -5v-26q0 -17 -3 -53q5 -1 5 -5l-2 -17l5 -3q-3 -24 -10 -46q2 -24 2 -38v-27q0 -13 -9 -17q0 -3 14 -19q0 -4 5 -20q36 0 36 36h-2l2 5l-2 22q0 5 2 5l-2 17v22q0 20 2 43q-2 10 -2 20q2 4 2 7h-2l2 5v5q0 2 -2 2l2 5v2q0 3 -2 3l2 5 v7l-2 5h2l-2 5v4l2 13q-2 0 -2 2h2l-4 10l2 12q-2 4 -2 9q11 8 19 8q5 0 10 -3q16 3 26 3h8q9 0 9 -61v-22q0 -8 -2 -21q5 -12 5 -22q0 -3 -3 -8l3 -9q0 -8 -3 -17l5 -85q0 -52 -19 -65l-27 -20q-16 0 -36 -7h-32q-26 4 -26 10q2 4 2 9h-7q0 -9 -7 -9q-32 9 -32 51 q-2 4 -2 12l2 12q-4 9 -7 39zM250 1193l24 -3q5 0 5 5v5h-7l-7 -5h-8l-7 5v-7zM253 48q0 20 7 56q0 6 -4 32q0 4 2 4q-2 29 -2 42v48q0 15 2 36q-2 9 -2 22l14 32q20 21 75 21q40 -8 46 -19q19 0 24 -41v-29q0 -12 -7 -39q4 0 7 -7v-3q-5 -7 -9 -19q5 -12 5 -19l-3 -5l5 -10 q0 -6 -7 -19q9 -25 9 -44v-39q0 -34 -48 -53h-56q-58 13 -58 53zM253 1205h2l12 2v3l-12 2l-2 -5v-2zM260 393l2 12q0 11 3 73q-3 4 -3 7q3 4 3 10q0 5 -3 26l3 17l-3 24q0 9 3 13q-3 24 -3 38v63l3 15q-3 4 -3 12v2q0 8 32 8h5q5 0 9 -3l29 5l15 -2q4 0 39 2q4 -8 4 -14 v-20l-4 -7v-3l4 -7v-5h-43q-2 0 -19 5q0 -12 -5 -12l2 -10q0 -6 -5 -26q7 -27 10 -27l5 -5l5 3h43v-3l-2 -14q5 -8 5 -15v-17q0 -12 -8 -14h-41q-19 -10 -19 -15q7 -12 7 -19v-20l-2 -14q0 -15 31 -15q0 -2 3 -2q15 5 21 5h3q7 -3 7 -15v-2l-5 -7q5 -18 5 -20l-2 -12 q-21 0 -83 -5q-29 2 -29 5l-5 -2q-8 0 -14 7zM274 1161q0 -4 17 -9v2q-4 10 -17 10v-3zM290 1111q3 0 7 -3q5 3 8 3q0 4 -5 4h-10v-4zM303 1137q1 -5 5 -5q6 5 10 5v5h-2l-13 -2v-3zM311 242q5 -17 5 -19v-5q0 -31 3 -70q-3 -22 -5 -27l2 -15v-4q0 -10 -2 -27q6 -24 26 -24 q15 0 17 43v39l22 5v2q-19 0 -19 5v17q0 2 5 20l-8 33q2 39 5 39q-11 33 -19 34h-3q-29 -16 -29 -39h3l-3 -4v-3zM316 407q0 -4 4 -4h8v7q0 5 -5 5h-3q-4 -1 -4 -5v-3zM343 303h7v2q0 5 -5 5l-2 -5v-2zM360 303l12 -3v7q0 5 -5 5q-3 0 -7 -7v-2zM386 261q0 -13 10 -16v16 q0 4 -7 8l-3 -5v-3zM394 228h5v7q-5 -1 -5 -5v-2zM448 757q17 62 17 80q15 66 22 87q0 4 7 32q-2 4 -2 7q19 97 29 121q58 0 58 -12q0 -18 17 -54q5 -17 12 -72l10 -3v-4q0 -9 -10 -20q11 0 24 -58q0 -2 -2 -2q10 -17 12 -37l-2 -12q14 -43 14 -51q-5 -14 -17 -14 q-20 2 -34 2l-17 -2q-4 2 -7 2l2 5q-10 56 -21 56h-12q-17 0 -17 -22l-10 -36h-66q-3 0 -7 7zM471 403v38q0 14 2 39q-2 4 -2 15q0 2 2 2l-2 12v12q0 6 2 10q-2 4 -2 10v5q0 29 4 29q-2 24 -2 36v99l2 12h95q65 -6 65 -38l5 -29l-2 -10q5 -8 5 -15l-5 -7l5 -7v-20 q0 -16 -22 -41q-12 -2 -20 -9q0 -16 29 -102q0 -24 15 -34v-10q-4 -10 -17 -10h-14q-39 0 -39 20q-20 90 -27 106q-9 0 -12 -29q2 -32 2 -48q-4 0 -9 -17q7 -14 7 -24q-5 -3 -7 -3q-58 0 -58 8zM473 1113l2 12v41q0 23 3 41q-3 11 -3 37v12q0 2 -2 2q2 20 5 20l-3 17 q0 39 -2 55q2 24 2 61v19l13 3h46q21 0 21 -41q13 -23 29 -88l5 -2h3l7 22q-5 30 -5 34l3 21q-3 19 -3 39q6 15 10 15h31q22 0 22 -17v-39l-5 -7v-5q8 -9 8 -22v-24q0 -19 -3 -51q3 -5 3 -7l-3 -5q3 -21 3 -32q0 -4 -5 -19q1 -24 5 -24l-3 -12v-41q0 -20 -17 -20h-48 q-10 21 -32 124l-12 21q-10 -2 -10 -14q0 -2 3 -2l-3 -5v-32q0 -13 3 -34q-3 -3 -3 -14l3 -5q-3 -4 -3 -10v-5q0 -2 3 -2q-5 -22 -10 -22h-51zM495 298v17q31 30 56 34h32q3 0 12 -12q2 -159 2 -209q0 -14 -2 -60q2 -5 2 -8q-2 -9 -2 -19v-17q0 -3 -12 -12q-5 0 -5 2l-17 -2 h-32q0 3 -2 7q0 6 2 20q-2 25 -2 29l2 21q-2 5 -2 8q5 9 5 26v131q0 27 -34 27zM504 931q20 -7 39 -7v5q-19 0 -34 12h-5v-10zM538 652q5 -11 5 -31v-5l-2 -15q3 -31 19 -31q21 12 24 12l5 -3q5 3 8 3v5h-3l-12 -3q0 5 -7 5v7q9 12 9 17q-6 16 -14 51l-10 7h-2 q-20 -1 -20 -19zM538 902q7 -43 14 -43h5q3 0 15 19q-6 16 -20 27q-3 -3 -14 -3zM693 338l10 7h2l29 -5q8 5 15 5h7q9 0 22 -2q4 2 9 2l10 -10q9 8 34 10q12 -10 17 -41v-10q0 -3 -7 -7h-10q-9 0 -22 -3l-5 3l-5 -3q-20 3 -33 3q-17 0 -22 -15l5 -43h2l24 7h24q51 0 59 -46 q4 -25 7 -31l-3 -30q0 -15 3 -63q0 -55 -68 -65h-36q-49 10 -49 29q-4 0 -17 20q0 2 3 2l-3 12v22q0 18 8 19h38q16 0 25 -19q-3 -5 -3 -7q6 -25 17 -25q22 0 22 29q-5 39 -5 51l2 12q-7 27 -24 27q-15 -19 -22 -19q-20 -3 -31 -3q-24 0 -24 12v25q0 62 -5 150zM693 759 l2 12v42q0 22 3 41q-3 10 -3 36v12q0 3 -2 3q2 19 5 19l-3 17q0 39 -2 56q2 24 2 60v20l12 2h46q22 0 22 -41q13 -23 29 -87l5 -3h3q7 19 7 22q-5 30 -5 34l2 22q-2 19 -2 39q6 14 10 14h31q22 0 22 -17v-39l-5 -7v-5q7 -9 7 -22v-24q0 -19 -2 -51q2 -4 2 -7l-2 -5 q2 -20 2 -31q0 -4 -4 -20q1 -24 4 -24l-2 -12v-41q0 -20 -17 -20h-48q-10 21 -32 124l-12 22q-10 -3 -10 -15q0 -2 3 -2l-3 -5v-32q0 -13 3 -33q-3 -4 -3 -15l3 -5q-3 -4 -3 -9v-5q0 -3 3 -3q-5 -22 -10 -22h-51zM708 439l5 51q0 4 -5 17q5 17 5 29v63q0 6 -5 14l2 15l-2 29 q0 45 44 61l17 4q75 0 87 -41q7 -33 9 -92h-2q0 -2 2 -2q-2 -24 -2 -37q0 -19 2 -31q0 -119 -24 -119q-14 -15 -36 -19h-27q-40 0 -65 36q0 17 -5 22zM708 1433l10 7h19q2 0 2 -2l5 2h12q15 0 15 -19v-15q0 -8 -2 -12l2 -15v-19q1 -5 5 -5l24 80h39l24 3l2 -5v-3 q0 -5 -33 -80q0 -6 -20 -55q10 -18 24 -61l56 -106v-3q0 -2 -7 -7q-2 0 -15 2q-28 -2 -41 -2t-24 36q-19 41 -24 41q-3 -12 -3 -14q0 -4 5 -58q-11 -8 -19 -8q-41 0 -41 15q-3 9 -3 22v7q0 2 -2 2q0 3 2 3q-5 50 -7 99q5 17 7 17l-7 12l2 12l-5 10q3 0 3 2h-3l3 5 q-3 24 -3 37h3l-3 4v25q0 2 3 2q-5 12 -5 44zM766 466q6 -17 15 -17q21 0 21 48t3 65q-5 45 -5 56l7 15q-11 29 -24 29q-10 0 -17 -27l3 -5q0 -2 -3 -2l3 -24v-25q0 -2 -3 -2q0 -2 3 -2l-3 -13v-4q0 -6 3 -10q-3 -4 -3 -10q3 -30 3 -34q0 -2 -3 -2l3 -12v-22q0 -2 -3 -2z " />
<glyph unicode="&#xaf;" horiz-adv-x="670" />
<glyph unicode="&#xb0;" horiz-adv-x="674" />
<glyph unicode="&#xb1;" />
<glyph unicode="&#xb2;" />
<glyph unicode="&#xb3;" />
<glyph unicode="&#xb4;" horiz-adv-x="988" d="M442 1098l28 40q24 39 107 187l9 8l3 13l35 48q-11 48 44 79q14 15 40 17l39 -25q7 -6 1 -14q18 2 28 -4l7 -4q19 -26 22 -28h10q14 -25 9 -33l-16 -26q-16 -11 -32 -29q-30 -71 -77 -156q3 -2 -6 -18l-19 -30q-108 -137 -124 -128q-46 15 -101 53l-3 2q-12 16 -4 48z " />
<glyph unicode="&#xb5;" horiz-adv-x="1180" />
<glyph unicode="&#xb6;" horiz-adv-x="1024" />
<glyph unicode="&#xb7;" horiz-adv-x="508" />
<glyph unicode="&#xb8;" horiz-adv-x="1024" />
<glyph unicode="&#xb9;" />
<glyph unicode="&#xba;" horiz-adv-x="718" />
<glyph unicode="&#xbb;" horiz-adv-x="944" />
<glyph unicode="&#xbc;" horiz-adv-x="1851" d="M33 1277v18q0 9 78 60q116 65 131 65q0 6 6 6h174q48 -28 48 -53q-6 -161 -6 -198q12 -201 12 -257v-318q0 -37 6 -89q-4 -36 -12 -258l6 -42q-12 -102 -12 -161q-32 -42 -42 -42h-24q-15 12 -18 12l-18 -12q-110 -6 -138 -6q-54 0 -54 30q0 59 12 102q-6 32 -6 53v90 q0 17 12 36q-12 20 -12 36v18q0 5 12 48q0 82 6 114q-6 79 -6 167v90q0 20 6 30l-6 36v215q0 46 -54 66h-47q-48 0 -48 36q-6 57 -6 108zM481 -56q30 164 96 317q0 19 24 72q44 263 72 263q57 199 83 228q48 176 48 203q28 108 48 108q12 2 30 90q-6 32 -6 66q0 37 54 59v24 q-12 15 -12 18v24q20 90 42 90h6q9 0 24 -4q34 5 54 10h18q12 -2 12 -12v-30q0 -20 -6 -30q6 -24 6 -42q0 -68 -48 -197q0 -21 -12 -54q6 0 6 -6q-36 -28 -36 -60v-12q0 -13 6 -24q-24 -48 -36 -137l6 -12v-6q-52 -132 -84 -180l-60 -221q-30 -65 -72 -228q-16 -28 -83 -251 q-44 -79 -66 -90q-35 -4 -54 -18h-24q-36 17 -36 42zM907 497q0 59 64 181q0 21 34 81q24 30 35 88q6 0 6 6q-6 0 -6 6q11 0 65 152l76 168q40 129 105 240h151l18 -12h111q35 -8 35 -70q6 -46 6 -140v-53q0 -19 -6 -29l6 -35v-104q0 -14 -6 -24q10 -76 17 -76l-6 -11v-41 l6 -12q-6 0 -6 -6h6q-6 -29 -11 -29l11 -35q-6 -10 -6 -24h6q-6 -29 -11 -29q15 -133 46 -133h6l18 11h29q75 -17 75 -46q-6 -92 -6 -135q0 -23 -12 -23l6 -12v-12q-7 -23 -51 -23h-53q-29 -8 -41 -52q6 -58 6 -87v-187q0 -9 -23 -24h-268q-33 0 -47 29v135q-12 14 -12 23 q0 20 -6 100q6 10 6 17q0 34 -41 34h-279q-41 22 -41 41q0 37 -12 152zM1122 591q6 -26 30 -35h93q35 10 35 70q-6 52 -6 63l12 24q-12 19 -12 35v82q1 29 12 29q-10 11 -18 99h-5q-20 0 -65 -175q0 -11 -46 -88q0 -17 -30 -104z" />
<glyph unicode="&#xbd;" horiz-adv-x="1964" d="M44 1287v18q0 9 78 60q116 65 131 65q0 6 6 6h174q48 -28 48 -53q-6 -161 -6 -198q12 -201 12 -257v-318q0 -37 6 -89q-4 -36 -12 -258l6 -42q-12 -102 -12 -161q-32 -42 -42 -42h-24q-15 12 -18 12l-18 -12q-110 -6 -138 -6q-54 0 -54 30q0 59 12 102q-6 32 -6 53v90 q0 17 12 36q-12 20 -12 36v18q0 5 12 48q0 82 6 114q-6 79 -6 167v90q0 20 6 30l-6 36v215q0 46 -54 66h-47q-48 0 -48 36q-6 57 -6 108zM492 -46q30 164 96 317q0 19 24 72q44 263 72 263q57 199 83 228q48 176 48 203q28 108 48 108q12 2 30 90q-6 32 -6 66q0 37 54 59v24 q-12 15 -12 18v24q20 90 42 90h6q9 0 24 -4q34 5 54 10h18q12 -2 12 -12v-30q0 -20 -6 -30q6 -24 6 -42q0 -68 -48 -197q0 -21 -12 -54q6 0 6 -6q-36 -28 -36 -60v-12q0 -13 6 -24q-24 -48 -36 -137l6 -12v-6q-52 -132 -84 -180l-60 -221q-30 -65 -72 -228q-16 -28 -83 -251 q-44 -79 -66 -90q-35 -4 -54 -18h-24q-36 17 -36 42zM1088 18v12q0 19 6 29l-6 35v23q0 67 18 111h-6l6 11l-6 12q12 0 30 81q6 0 6 6h-6q6 30 95 111q0 13 114 151q0 6 60 59q102 114 102 209q6 0 6 6h-6l6 12q0 5 -12 46v111q0 151 -54 181l-12 5q-72 -19 -72 -75l-12 -53 v-29q24 -76 24 -81q0 -40 -72 -53q0 -6 -6 -6h-155q-9 0 -36 35l6 29v94q0 5 -12 46v70l48 122q88 111 155 111q50 13 66 23h126q10 -13 137 -35q6 -17 66 -58q54 -65 54 -128q0 -30 12 -70v-23q-12 -41 -12 -47v-99q12 -41 12 -46v-88q-32 -135 -72 -221q6 0 6 -6 q-11 -1 -36 -58q-47 -63 -179 -181q-67 -108 -72 -151q24 -41 54 -41q36 0 48 -12q37 12 125 18q0 6 6 6v-6q12 6 18 6q54 -15 54 -47q0 -192 -60 -192q0 -6 -6 -6h-84q-35 14 -35 18q-77 -6 -120 -18q-20 12 -36 12h-48l-18 -12h-12q-42 12 -48 12h-12l-18 -12h-89 q0 7 -36 41z" />
<glyph unicode="&#xbe;" horiz-adv-x="2113" d="M81 286v18q0 16 12 35h-6q10 26 35 41h29l18 -12l16 12h35l18 -12q2 12 12 12h58q14 -11 64 -18q0 -192 70 -192q0 -6 12 -6q66 0 82 122l-6 53l12 58q-31 140 -53 140q-67 41 -117 47l-6 12v57q0 152 30 152q117 41 117 88q23 6 23 64q0 21 -6 52q6 39 6 76 q-11 105 -88 105q-82 0 -82 -111v-29q0 -8 -17 -18h-76q-23 0 -47 6q-22 -6 -46 -6h-52q-9 0 -18 18v35q0 19 6 29q-12 67 -12 105q24 112 71 141q0 34 145 51q0 6 6 6h52q32 0 82 6q11 -6 17 -6q31 6 59 6q192 -41 192 -81q38 -29 58 -88v-122q0 -30 -11 -30q17 -27 17 -87 v-87q0 -29 -12 -29l6 -12l-41 -105q-46 -51 -46 -76q0 -30 64 -116q25 -54 35 -152q-6 -51 -6 -88v-64q0 -29 -12 -29l6 -12q-11 -20 -11 -46q17 -31 17 -81q0 -95 -117 -147q-52 -16 -70 -35l-12 6q-61 -29 -116 -29q-18 0 -111 6l-29 -6q-47 13 -47 29h-5l-12 -6 q-63 41 -151 117q-23 50 -35 216q-6 0 -6 17zM810 -91q30 164 96 317q0 19 24 72q44 263 72 263q57 199 83 228q48 176 48 203q28 108 48 108q12 2 30 90q-6 32 -6 66q0 37 54 59v24q-12 15 -12 18v24q20 90 42 90h6q9 0 24 -4q34 5 54 10h18q12 -2 12 -12v-30q0 -20 -6 -30 q6 -24 6 -42q0 -68 -48 -197q0 -21 -12 -54q6 0 6 -6q-36 -28 -36 -60v-12q0 -13 6 -24q-24 -48 -36 -137l6 -12v-6q-52 -132 -84 -180l-60 -221q-30 -65 -72 -228q-16 -28 -83 -251q-44 -79 -66 -90q-35 -4 -54 -18h-24q-36 17 -36 42zM1225 481q0 59 64 181q0 21 34 81 q24 30 35 88q6 0 6 6q-6 0 -6 6q11 0 65 152l76 168q40 129 105 240h111l18 -12h111q35 -8 35 -70q6 -46 6 -140v-53q0 -19 -6 -29l6 -35v-104q0 -14 -6 -24q10 -76 17 -76l-6 -11v-41l6 -12q-6 0 -6 -6h6q-6 -29 -11 -29l11 -35q-6 -10 -6 -24h6q-6 -29 -11 -29 q15 -133 46 -133h6l18 11h29q75 -17 75 -46q-6 -92 -6 -135q0 -23 -12 -23l6 -12v-12q-7 -23 -51 -23h-53q-29 -8 -41 -52q6 -58 6 -87v-187q0 -9 -23 -24h-228q-33 0 -47 29v135q-12 14 -12 23q0 20 -6 100q6 10 6 17q0 34 -41 34h-279q-41 22 -41 41q0 37 -12 152z M1440 575q6 -26 30 -35h93q35 10 35 70q-6 52 -6 63l12 24q-12 19 -12 35v82q1 29 12 29q-10 11 -18 99h-5q-20 0 -65 -175q0 -11 -46 -88q0 -17 -30 -104z" />
<glyph unicode="&#xbf;" horiz-adv-x="923" d="M62 169q0 15 18 42v42q-18 57 -18 72v30q0 5 6 5q0 6 -6 6q6 99 6 150v36q24 132 84 168q43 52 143 71q18 37 18 114v18q10 0 24 12h210q0 -14 24 -24l-6 -30v-96q0 -6 12 -65v-72q0 -66 -78 -66q-114 -58 -114 -84q-6 -11 -6 -18q0 -6 6 -18q-12 -41 -12 -72v-173 q0 -90 78 -90h12v-12h42q54 23 54 108q6 0 6 6l-6 36v12q0 11 42 36h203l18 -24q10 0 18 -78q0 -150 -60 -228q-40 -71 -167 -71q0 -6 -18 -6h-42q-51 0 -72 -18h-18q-6 0 -48 12l-12 -6q-13 10 -84 18q-141 33 -167 77q-66 22 -66 114q-6 36 -24 66zM295 1186q6 60 6 90v48 q0 60 60 60q28 0 186 -6l54 -36l-6 -12v-132q0 -21 -18 -59h-102q-180 0 -180 47z" />
<glyph unicode="&#xc0;" horiz-adv-x="1540" />
<glyph unicode="&#xc1;" horiz-adv-x="1540" />
<glyph unicode="&#xc2;" horiz-adv-x="1540" />
<glyph unicode="&#xc3;" horiz-adv-x="1540" />
<glyph unicode="&#xc4;" horiz-adv-x="940" d="M11 56q26 100 60 181q0 36 -6 73l12 74q51 184 72 232l-6 11q0 14 10 62q0 34 42 40v5q-12 27 -12 51l50 198l-6 28q0 6 18 68v11l-6 12q15 22 18 22q0 82 44 147v29l-12 17l40 45q12 50 12 66q0 7 48 23h18q75 -10 185 -4q18 0 42 -125q32 -165 48 -215l16 -192 q0 -17 -6 -39q29 -68 44 -68q0 -6 -6 -6q54 -144 54 -226q47 -160 65 -300v-51q16 -27 24 -28q0 -31 36 -175v-6q0 -34 -48 -34h-30q-34 0 -95 6q-11 -6 -24 -6q-3 0 -24 6q-32 -6 -60 -6h-24q-43 25 -60 113q0 16 2 34l-12 23q12 21 12 45q0 7 -44 45h-108q-40 0 -65 -237 v3l6 -11l-24 -12q-41 6 -66 6l-84 -10q-25 0 -66 -6q-9 -4 -36 -4q-48 0 -48 85zM67 1647v9q6 46 46 46h16q38 -10 43 -10h84q54 0 54 -41l-6 -161q0 -4 6 -39q-11 -32 -27 -36h-90q-37 -10 -43 -10h-21q-47 17 -47 25v55q0 50 -5 151q-10 2 -10 11zM304 1081q0 1 24 -7 q0 5 18 5q162 50 162 71q-9 23 -18 23h-12q-33 -40 -48 -40l-42 -24q0 -9 -42 -23l-24 6q-18 0 -18 -11zM411 553q1 -94 25 -96h12l52 6q28 0 14 181v5l-36 30q-32 0 -32 12q-48 -30 -35 -138zM610 1593l6 10l-4 32l3 47q1 19 64 22q64 -9 125 -13h5q10 -3 19 -27l-8 -47 q0 -66 11 -79l-1 -26l-12 -15q13 -1 12 -63q-5 -18 -33 -29l-16 1q-36 12 -41 12l-57 3q-57 4 -64 57l2 36q-15 23 -11 79z" />
<glyph unicode="&#xc5;" horiz-adv-x="941" d="M9 46q26 100 60 181q0 36 -6 73l12 74q51 184 72 232l-6 11q0 14 10 62q0 34 42 40v5q-12 27 -12 51l50 198l-6 28q0 6 18 68v11l-6 12q15 22 18 22q0 82 44 127v29l-12 17l40 45q12 50 12 66q0 7 48 23h18q75 -10 185 -4q18 0 42 -125q32 -145 48 -195l16 -192 q0 -17 -6 -39q29 -68 44 -68q0 -6 -6 -6q54 -144 54 -226q47 -160 65 -300v-51q16 -27 24 -28q0 -31 36 -175v-6q0 -34 -48 -34h-30q-34 0 -95 6q-11 -6 -24 -6q-3 0 -24 6q-32 -6 -60 -6h-24q-43 25 -60 113q0 16 2 34l-12 23q12 21 12 45q0 7 -44 45h-108q-40 0 -65 -237 v3l6 -11l-24 -12q-41 6 -66 6l-84 -10q-25 0 -66 -6q-9 -4 -36 -4q-48 0 -48 85zM321 1693v9q7 46 53 46h18q43 -10 48 -10h97q61 0 61 -41l-7 -161q0 -4 7 -39q-13 -32 -31 -36h-102q-43 -10 -49 -10h-24q-54 17 -54 25v55q0 50 -5 151q-12 2 -12 11zM409 543q1 -94 25 -96 h12l52 6q28 0 14 181v5l-36 30q-32 0 -32 12q-48 -30 -35 -138z" />
<glyph unicode="&#xc6;" horiz-adv-x="2118" />
<glyph unicode="&#xc7;" horiz-adv-x="1399" />
<glyph unicode="&#xc8;" horiz-adv-x="1151" />
<glyph unicode="&#xc9;" horiz-adv-x="1151" />
<glyph unicode="&#xca;" horiz-adv-x="1151" />
<glyph unicode="&#xcb;" horiz-adv-x="1151" />
<glyph unicode="&#xcc;" horiz-adv-x="657" />
<glyph unicode="&#xcd;" horiz-adv-x="657" />
<glyph unicode="&#xce;" horiz-adv-x="657" />
<glyph unicode="&#xcf;" horiz-adv-x="657" />
<glyph unicode="&#xd0;" horiz-adv-x="1518" />
<glyph unicode="&#xd1;" horiz-adv-x="1029" d="M111 157q16 77 16 81q-6 77 -6 87q-14 59 -2 111q-18 67 -8 230v7q0 52 12 80q-12 109 -2 230l6 13q-6 13 -12 56l2 174q-6 34 -6 50l6 55q-6 44 -6 75l36 25q103 -6 120 -6q74 6 77 6q102 0 82 -22q42 -175 56 -189l54 -131l-6 -12q15 0 42 -143q12 -75 30 -75l18 -70 q13 11 12 176q10 0 6 161q12 43 12 75q-18 56 -18 93v115q0 9 48 22h101q126 0 126 -4q6 -10 6 -24q-6 -199 -6 -227q-9 0 12 -19v-31v-56v-6q0 -80 6 -174l-6 -31l6 -37q0 -10 -18 -69q12 -44 12 -68q0 -28 -6 -37q6 -53 6 -87v-69q0 -26 2 -68l-2 -112q-6 -53 -6 -87v-112 q-10 -98 -20 -102l-267 -10q-30 0 -48 168q-4 0 -18 56q6 0 6 6q-10 0 -30 100h-6l6 12q-17 27 -36 156q-44 143 -72 203q-31 -12 -36 -104l6 -31q0 -26 -6 -68q6 -137 6 -243l-6 -43q6 -8 6 -44q0 -21 -6 -31l6 -37q20 -63 -4 -93q-110 -7 -161 -7h-54q-33 0 -48 31v13 q-20 42 -14 74q-6 33 -6 38zM184 1573q-17 21 0 34q-2 3 1 5l21 24h14l30 27q35 21 56 17q26 9 50 12q12 -7 39 -3q82 -2 114 -38q3 4 7 1l20 -17q69 -53 108 -48q24 -2 50 5l4 4l27 21h16l6 5l3 9v-1q6 4 16 13v1v1q8 6 17 15l12 -3l1 -1l14 5l2 -24l2 -3q11 -15 21 -19 q3 -3 11 -29q4 3 10 -3q3 -10 -1 -13q-23 -21 -37 -33v-6q-58 -45 -83 -50l-7 -6q-9 -2 -16 -2q-40 -12 -77 -10q-44 3 -127 49q-32 27 -58 40q-33 7 -74 19q-8 -1 -3 -5l-36 5l-1 1q-14 -3 -33 -14q-17 -4 -33 -25q-8 0 -38 -31l-13 15q-3 -2 -7 -3q-2 -2 -3 8z" />
<glyph unicode="&#xd2;" horiz-adv-x="1614" />
<glyph unicode="&#xd3;" horiz-adv-x="1614" />
<glyph unicode="&#xd4;" horiz-adv-x="1614" />
<glyph unicode="&#xd5;" horiz-adv-x="1614" />
<glyph unicode="&#xd6;" horiz-adv-x="888" d="M101 1093v90q0 84 66 182q79 69 240 69q2 12 12 12h12q40 -12 131 -24q44 0 108 -71q50 -27 78 -90l-6 -12q14 0 18 -60q0 -56 -6 -114l12 -341l-6 -36q6 -32 6 -71v-60v-132l12 -42q0 -38 6 -156q-16 -132 -72 -191q-105 -69 -192 -78l-41 6l-54 -6q-21 0 -48 18 q0 -12 -12 -12h-18q-12 12 -72 18q0 10 -48 24q-77 77 -102 198q-12 44 -12 59q0 14 6 24q0 14 -6 24v252v47q0 129 -6 282q6 51 6 84q-12 59 -12 107zM137 1588l1 23l11 14q-13 0 -12 47q6 16 32 26l14 9q35 -11 39 -11l54 7q54 -4 61 -51l-2 -43q13 -20 10 -61l-6 -9 l4 -29l-3 -42q-1 -18 -60 -20q-61 8 -118 11h-5q-9 3 -18 25l8 42q0 50 -10 62zM353 974q12 -179 12 -521v-6q0 -14 -6 -24q6 -11 6 -24v-62q0 -16 12 -36q-6 0 -6 -6l42 -4l60 -40q39 11 59 52v54q0 5 -12 48v168q0 5 12 47q-12 15 -12 18v30l12 42q-12 20 -12 36 q0 11 12 30q-10 0 -24 204l6 12q-6 10 -6 23v6q0 14 6 24q-14 126 -65 126q-7 0 -18 6q-78 10 -78 -108l6 -54q0 -18 -6 -41zM494 1495l5 135q0 3 -5 33q9 27 24 30h79q33 9 38 9h19q42 -15 42 -22v-46q0 -42 -6 -127q9 -1 9 -9v-8q-5 -28 -31 -28h-14q-34 -2 -38 -2h-75 q-47 0 -47 35z" />
<glyph unicode="&#xd7;" />
<glyph unicode="&#xd8;" horiz-adv-x="1614" />
<glyph unicode="&#xd9;" horiz-adv-x="1501" />
<glyph unicode="&#xda;" horiz-adv-x="1501" />
<glyph unicode="&#xdb;" horiz-adv-x="1501" />
<glyph unicode="&#xdc;" horiz-adv-x="1029" d="M91 352q6 63 6 138v131q0 6 12 48v60q-12 42 -12 48v18l12 42q0 5 -12 48v23q13 17 24 72q-12 45 -12 54q0 30 6 72q-6 31 -6 36q6 73 6 144v18q0 17 6 17q6 108 29 108h102l18 -12h36l18 12h18q84 -12 84 -36q0 -21 -6 -54q6 -31 6 -35q-6 -36 -18 -36l6 -12v-6l-6 -12 q11 0 12 -60l-12 -18l6 -12q-12 0 -12 -12v-30l12 -18l-6 -36l6 -12l-12 -30l12 -24q0 -6 -6 -18q6 0 6 -6v-71q0 -26 -12 -48q0 -12 18 -78v-204q0 -16 -12 -36l6 -12h-6q12 -19 12 -35v-24q0 -12 -12 -12q0 -6 6 -6q0 -17 -12 -36l12 -30q-6 0 -6 -6l12 -18l-6 -36 q6 -30 12 -30q0 -53 131 -72q17 6 42 108q48 33 48 54v6q-31 28 -42 54q6 109 6 137q0 30 -6 90q10 0 12 42v36q-36 125 -36 191v12l18 24v24l-12 18v24l18 24v84q0 16 -12 36q6 0 6 6v221q10 18 18 18h54q38 0 90 -6q53 8 66 12l6 -12l60 6h12q13 0 18 -30q0 -36 -6 -107 l6 -42q-12 -45 -12 -84v-60q0 -6 -12 -48v-72q0 -12 12 -12q12 -302 12 -329q0 -51 -12 -78q12 -37 12 -48q-6 -179 -30 -179v-24l18 -30q-13 -23 -30 -180q0 -26 -126 -101h-6l-48 -6q0 -6 -6 -6l-66 -24h-209l-60 30h-90q-72 78 -149 131q-6 49 -24 114q0 88 -6 120z M130 1127h18q10 0 12 12q0 10 -12 12h-6q-12 0 -12 -12v-12zM202 1317q27 0 30 -24l12 6l12 -6l6 12v18l-42 12h-18v-18zM230 1587l1 23l11 14q-13 0 -12 47q6 16 32 26l14 9q35 -11 39 -11l54 7q54 -4 61 -51l-2 -43q13 -20 10 -61l-6 -9l4 -29l-3 -42q-1 -18 -60 -20 q-61 8 -118 11h-5q-9 3 -18 25l8 42q0 50 -10 62zM232 1210q0 -10 36 -24q0 10 30 18l-6 12q-6 0 -6 -6q-12 0 -12 12q-18 0 -42 -12zM587 1494l5 135q0 3 -5 33q9 27 24 30h79q33 9 38 9h19q42 -15 42 -22v-46q0 -42 -6 -127q9 -1 9 -9v-8q-5 -28 -31 -28h-14 q-34 -2 -38 -2h-75q-47 0 -47 35zM607 63q0 -12 12 -12q57 30 66 30v18q-6 0 -18 6q-60 -18 -60 -42zM661 237q0 -11 30 -18q68 6 96 18v30q-26 -6 -36 -30q-21 0 -60 30h-18q-12 0 -12 -12v-18zM715 291h18l42 -6l6 12v12q-7 0 -18 6q-11 -6 -24 -6h-24v-18z" />
<glyph unicode="&#xdd;" horiz-adv-x="1233" />
<glyph unicode="&#xde;" horiz-adv-x="1120" />
<glyph unicode="&#xdf;" horiz-adv-x="1251" />
<glyph unicode="&#xe0;" horiz-adv-x="922" />
<glyph unicode="&#xe1;" horiz-adv-x="922" />
<glyph unicode="&#xe2;" horiz-adv-x="922" />
<glyph unicode="&#xe3;" horiz-adv-x="922" />
<glyph unicode="&#xe4;" horiz-adv-x="969" d="M24 16v6q36 144 36 175q8 1 24 28v51q18 140 65 300q0 82 54 226q-6 0 -6 6q15 0 44 68q-6 22 -6 39l16 192q16 50 48 215q24 125 42 125q110 -6 185 4h18q48 -16 48 -23q0 -16 12 -66l40 -45l-12 -17v-29q44 -65 44 -147q3 0 18 -22l-6 -12v-11q18 -62 18 -68l-6 -28 l50 -198q0 -24 -12 -51v-5q42 -6 42 -40q10 -48 10 -62l-6 -11q21 -48 72 -232l12 -74q-6 -37 -6 -73q34 -81 60 -181q0 -85 -48 -85q-27 0 -36 4q-41 6 -66 6l-84 10q-25 0 -66 -6l-24 12l6 11v-3q-25 237 -65 237h-108q-44 -38 -44 -45q0 -24 12 -45l-12 -23q2 -18 2 -34 q-17 -88 -60 -113h-24q-28 0 -60 6q-21 -6 -24 -6q-13 0 -24 6q-61 -6 -95 -6h-30q-48 0 -48 34zM102 1538q11 13 11 79l-8 47q9 24 19 27h5q61 4 125 13q63 -3 64 -22l3 -47l-4 -32l6 -10q4 -56 -11 -79l2 -36q-7 -53 -64 -57l-57 -3q-5 0 -41 -12l-16 -1q-28 11 -33 29 q-1 62 12 63l-12 15zM419 644q-14 -181 14 -181l52 -6h12q24 2 25 96q13 108 -35 138q0 -12 -32 -12l-36 -30v-5zM425 1150q0 -21 162 -71q18 0 18 -5q24 8 24 7q0 11 -18 11l-24 -6q-42 14 -42 23l-42 24q-15 0 -48 40h-12q-9 0 -18 -23zM624 1451q5 35 5 39l-5 161 q0 41 53 41h84q5 0 43 10h16q40 0 47 -46v-9q0 -9 -11 -11q-5 -101 -5 -151v-55q0 -8 -47 -25h-21q-6 0 -43 10h-90q-16 4 -26 36z" />
<glyph unicode="&#xe5;" horiz-adv-x="936" d="M4 19v6q36 144 36 175q8 1 24 28v51q18 140 65 300q0 82 102 531q16 50 48 185q24 125 42 125q110 -6 185 4h18q48 -16 48 -23q0 -16 42 -119t42 -155q3 0 18 -22l-6 -12v-11q18 -62 18 -68l-6 -28q90 -342 90 -356l-6 -11q21 -48 72 -232l12 -74q-6 -37 -6 -73 q34 -81 60 -181q0 -55 -48 -55q-27 0 -36 4q-41 6 -66 6l-84 -20q-25 0 -66 -6l-24 12l6 11v-3q-25 237 -65 237h-108q-44 -38 -44 -45q0 -24 12 -45l-12 -23q2 -18 2 -34q-17 -88 -60 -113h-24q-28 0 -60 6q-21 -6 -24 -6q-13 0 -24 6q-61 -6 -95 -6h-30q-48 0 -48 34z M299 1613l6 8l-4 26l4 38q1 15 79 18q69 -7 134 -10l6 -1q11 -2 21 -22l-9 -37q-1 -54 12 -94l-2 -21l-12 -13q14 0 13 -51q-6 -14 -36 -23l-17 1q-40 9 -44 10l-62 2q-62 3 -80 46l3 29q-16 19 -12 94zM390 553q1 -94 25 -96h12l52 6q28 0 14 151v5l-36 60q-32 0 -32 12 q-48 -30 -35 -138zM599 146q0 -21 162 -71q18 0 18 -5q24 8 24 7q0 11 -18 11l-24 -6q-42 14 -42 23l-42 24q-15 0 -48 40h-12q-9 0 -18 -23z" />
<glyph unicode="&#xe6;" horiz-adv-x="1454" />
<glyph unicode="&#xe7;" horiz-adv-x="905" />
<glyph unicode="&#xe8;" horiz-adv-x="909" />
<glyph unicode="&#xe9;" horiz-adv-x="909" />
<glyph unicode="&#xea;" horiz-adv-x="909" />
<glyph unicode="&#xeb;" horiz-adv-x="909" />
<glyph unicode="&#xec;" horiz-adv-x="514" />
<glyph unicode="&#xed;" horiz-adv-x="514" />
<glyph unicode="&#xee;" horiz-adv-x="514" />
<glyph unicode="&#xef;" horiz-adv-x="514" />
<glyph unicode="&#xf0;" horiz-adv-x="1139" />
<glyph unicode="&#xf1;" horiz-adv-x="1108" />
<glyph unicode="&#xf2;" horiz-adv-x="1010" />
<glyph unicode="&#xf3;" horiz-adv-x="1010" />
<glyph unicode="&#xf4;" horiz-adv-x="1010" />
<glyph unicode="&#xf5;" horiz-adv-x="1010" />
<glyph unicode="&#xf6;" horiz-adv-x="886" d="M104 1143q0 242 149 287q36 18 96 30q0 6 6 6h78l18 -12h90q53 0 101 -36q52 0 108 -132q6 -48 18 -48l-6 -12q24 -52 24 -293q6 0 6 -42q0 -6 -6 -6q0 -12 6 -12q-6 -119 -6 -179v-30q0 -56 6 -102l-12 -126l6 -12q0 -346 -96 -371q-60 -48 -131 -72v-5h-192 q-134 27 -138 65q-95 39 -95 84q-6 10 -6 30v42l-18 24v60q0 21 6 54q-6 10 -6 30q12 19 12 35v66q0 6 -12 48v36q18 66 18 72q-6 62 -6 72l6 60l-6 83q6 82 6 102t-18 48v48l12 42q-12 19 -18 66zM124 1653v9q5 40 41 40h14q34 -9 38 -9h75q47 0 47 -36l-5 -142q0 -4 5 -36 q-10 -28 -24 -31h-80q-33 -9 -37 -9h-19q-42 15 -42 22v49q0 45 -4 134q-9 1 -9 9zM355 646q18 -88 18 -132q-6 -18 -12 -18q12 -24 12 -42q-6 -71 -6 -107h-6q14 -62 48 -78h24l54 24q14 0 30 215q6 0 6 6h-6l6 12q0 6 -6 6l6 12v144q0 34 6 96q-12 24 -12 35q6 0 6 6h-6 l6 12v36l-6 12q6 0 6 6h-6q6 12 6 18q-12 20 -12 36v72q2 12 12 12l-6 12l18 24v24q0 30 -66 108q-20 0 -30 5q-62 0 -72 -101q-6 0 -6 -12q6 -12 6 -18h-6l6 -12q-6 -18 -12 -18q12 -20 12 -36v-168q0 -6 -6 -6l6 -12v-6q-12 -42 -12 -47q12 -58 12 -66q-12 -20 -12 -36 v-18zM488 1612l5 9l-3 30l3 44q1 18 60 21q60 -9 117 -12h5q10 -3 18 -26l-7 -44q-1 -62 10 -74l-1 -25l-11 -14q12 -1 11 -60q-5 -16 -31 -26h-15q-34 12 -38 12l-54 3q-54 3 -61 53l2 34q-13 21 -10 75z" />
<glyph unicode="&#xf7;" />
<glyph unicode="&#xf8;" horiz-adv-x="1010" />
<glyph unicode="&#xf9;" horiz-adv-x="1059" />
<glyph unicode="&#xfa;" horiz-adv-x="1059" />
<glyph unicode="&#xfb;" horiz-adv-x="1059" />
<glyph unicode="&#xfc;" horiz-adv-x="1048" d="M111 507q0 11 12 48q-12 27 -12 78q0 27 12 329q12 0 12 12v72q-12 42 -12 48v60q0 39 -12 84l6 42q-6 71 -6 107q5 30 18 30h12l60 -6l6 12q13 -4 66 -12q52 6 90 6h54q8 0 18 -18v-221q0 -6 6 -6q-12 -20 -12 -36v-84l18 -24v-24l-12 -18v-24l18 -24v-12 q0 -66 -36 -191v-36q2 -42 12 -42q-6 -60 -6 -90q0 -28 6 -137q-11 -26 -42 -54v-6q0 -21 48 -54q25 -102 42 -108q131 19 131 72q6 0 12 30l-6 36l12 18q0 6 -6 6l12 30q-12 19 -12 36q6 0 6 6q-12 0 -12 12v24q0 16 12 35h-6l6 12q-12 20 -12 36v204q18 66 18 78 q-12 22 -12 48v71q0 6 6 6q-6 12 -6 18l12 24l-12 30l6 12l-6 36l12 18v30q0 12 -12 12l6 12l-12 18q1 60 12 60l-6 12v6l6 12q-12 0 -18 36q0 4 6 35q-6 33 -6 54q0 24 84 36h18l18 -12h36l18 12h102q23 0 29 -108q6 0 6 -17v-18q0 -71 6 -144q0 -5 -6 -36q6 -42 6 -72 q0 -9 -12 -54q11 -55 24 -72v-23q-12 -43 -12 -48l12 -42v-18q0 -6 -12 -48v-60q12 -42 12 -48v-131q0 -75 6 -138q-6 -32 -6 -120q-18 -65 -24 -114q-77 -53 -149 -131h-90l-60 -30h-209l-66 24q-6 0 -6 6l-48 6h-6q-126 75 -126 101q-17 157 -30 180l18 30v24 q-24 0 -30 179zM173 932q22 -11 76 -16q23 6 23 16v17q0 11 -9 11h-14q-31 -28 -48 -28q-8 23 -28 28v-28zM178 988l4 -11l34 6h14v16h-19q-10 0 -19 6q-9 -6 -14 -6v-11zM232 1479v8q0 8 9 9q-6 85 -6 127v46q0 7 42 22h19q5 0 38 -9h79q15 -3 24 -30q-5 -30 -5 -33l5 -135 q0 -35 -47 -35h-75q-4 0 -38 2h-14q-26 0 -31 28zM253 787q7 0 52 -28q10 0 10 11q0 23 -48 40q-9 -6 -14 -6v-17zM575 148q24 -8 24 -17q28 13 28 22q-19 12 -33 12q0 -12 -9 -12q0 6 -5 6zM586 1557q-3 41 10 61l-2 43q7 47 61 51l54 -7q4 0 39 11l14 -9q26 -10 32 -26 q1 -47 -12 -47l11 -14l2 -23q-11 -12 -11 -62l8 -42q-9 -22 -18 -25h-5q-57 -3 -118 -11q-59 2 -60 20l-3 42l4 29zM604 242l4 -11l10 5l9 -5q3 22 24 22v17h-14l-33 -11v-17zM678 804q1 -11 9 -11h14v11q0 11 -9 11h-5q-9 -2 -9 -11z" />
<glyph unicode="&#xfd;" horiz-adv-x="868" />
<glyph unicode="&#xfe;" horiz-adv-x="1010" />
<glyph unicode="&#xff;" horiz-adv-x="868" />
<glyph unicode="&#x2c6;" horiz-adv-x="1024" />
<glyph unicode="&#x2dc;" horiz-adv-x="1024" />
<glyph unicode="&#x2000;" horiz-adv-x="874" />
<glyph unicode="&#x2001;" horiz-adv-x="1748" />
<glyph unicode="&#x2002;" horiz-adv-x="874" />
<glyph unicode="&#x2003;" horiz-adv-x="1748" />
<glyph unicode="&#x2004;" horiz-adv-x="582" />
<glyph unicode="&#x2005;" horiz-adv-x="437" />
<glyph unicode="&#x2006;" horiz-adv-x="291" />
<glyph unicode="&#x2007;" horiz-adv-x="291" />
<glyph unicode="&#x2008;" horiz-adv-x="218" />
<glyph unicode="&#x2009;" horiz-adv-x="349" />
<glyph unicode="&#x200a;" horiz-adv-x="97" />
<glyph unicode="&#x2010;" horiz-adv-x="629" d="M48 758l1 18q12 60 67 57l20 -13l29 -1l22 11l57 -2l21 -13q2 12 14 11h8q21 -1 21 -7q173 4 179 16l64 -3q9 0 27 -37l-8 -11l-2 -48q0 -14 -8 -24q7 -11 6 -24l-1 -24q-1 -20 -8 -30l5 -36l-1 -42q-8 -17 -44 -16l-64 3l-22 -11l-78 3q-58 3 -136 0q-7 1 -7 7l-36 -5 l-43 2q-71 3 -68 69l8 12q-9 35 -19 54l15 30q-3 34 -19 54z" />
<glyph unicode="&#x2011;" horiz-adv-x="629" d="M48 758l1 18q12 60 67 57l20 -13l29 -1l22 11l57 -2l21 -13q2 12 14 11h8q21 -1 21 -7q173 4 179 16l64 -3q9 0 27 -37l-8 -11l-2 -48q0 -14 -8 -24q7 -11 6 -24l-1 -24q-1 -20 -8 -30l5 -36l-1 -42q-8 -17 -44 -16l-64 3l-22 -11l-78 3q-58 3 -136 0q-7 1 -7 7l-36 -5 l-43 2q-71 3 -68 69l8 12q-9 35 -19 54l15 30q-3 34 -19 54z" />
<glyph unicode="&#x2012;" horiz-adv-x="629" d="M48 758l1 18q12 60 67 57l20 -13l29 -1l22 11l57 -2l21 -13q2 12 14 11h8q21 -1 21 -7q173 4 179 16l64 -3q9 0 27 -37l-8 -11l-2 -48q0 -14 -8 -24q7 -11 6 -24l-1 -24q-1 -20 -8 -30l5 -36l-1 -42q-8 -17 -44 -16l-64 3l-22 -11l-78 3q-58 3 -136 0q-7 1 -7 7l-36 -5 l-43 2q-71 3 -68 69l8 12q-9 35 -19 54l15 30q-3 34 -19 54z" />
<glyph unicode="&#x2013;" horiz-adv-x="1108" />
<glyph unicode="&#x2014;" horiz-adv-x="2048" />
<glyph unicode="&#x2018;" horiz-adv-x="557" />
<glyph unicode="&#x2019;" horiz-adv-x="557" />
<glyph unicode="&#x201a;" horiz-adv-x="557" />
<glyph unicode="&#x201c;" horiz-adv-x="910" />
<glyph unicode="&#x201d;" horiz-adv-x="910" />
<glyph unicode="&#x201e;" horiz-adv-x="910" />
<glyph unicode="&#x2022;" horiz-adv-x="1024" />
<glyph unicode="&#x2026;" horiz-adv-x="2048" />
<glyph unicode="&#x202f;" horiz-adv-x="349" />
<glyph unicode="&#x2039;" horiz-adv-x="631" />
<glyph unicode="&#x203a;" horiz-adv-x="631" />
<glyph unicode="&#x205f;" horiz-adv-x="437" />
<glyph unicode="&#x20ac;" horiz-adv-x="1018" d="M7 644v42q16 30 48 30h78q10 0 30 30q-6 26 -30 36h-48q-32 0 -42 24v47q10 0 24 12h36q46 0 54 24v60q-12 42 -12 48v12q8 10 18 48l-6 24q0 219 108 287q109 72 161 72l12 -6q46 24 60 24h12q135 -20 168 -30q78 -65 78 -114h23l24 18h12q15 -18 24 -18v-36l-6 -42 q32 0 54 -215q12 -2 12 -12v-12q0 -60 -66 -60h-83q-150 0 -150 30v24q0 52 12 84q-18 108 -30 114q-51 30 -60 30q-27 0 -54 -18h-12q-5 0 -48 12q0 -12 -18 -12v-6l42 -48v-24q-30 -51 -30 -132q-6 0 -6 -12q9 0 18 -18v-30l-18 -24h6l-12 -24q23 -33 48 -42q2 12 12 12 h24q12 -1 12 -12l12 6h180l12 -6v6l24 -12q19 12 36 12h24q6 0 29 -35q-16 -40 -35 -48q-20 0 -30 6q-15 0 -48 -6q-154 6 -264 6q-36 0 -36 -24q7 -27 42 -42h138q63 0 192 -6l17 -24v-24q-29 -29 -29 -36h-108l-18 12h-24l-18 -12h-24l-18 12h-108q-15 -12 -30 -12v-72 q0 -6 -6 -6q12 -18 18 -66q0 -39 -24 -65v-48l12 -18q0 -6 -6 -6q18 -29 18 -78l-18 -12q5 -23 48 -42h18q14 8 84 24q48 48 48 108q10 0 24 42q-12 84 -12 119q9 0 18 18q81 -6 120 -6h137q0 -10 18 -30v-155q-11 -16 -30 -126l-54 -66q-8 0 -18 -18v-6q0 -6 6 -6 q0 -52 -83 -60q-22 -65 -78 -65q-13 0 -90 -30h-18q-14 12 -24 12q-177 0 -233 77q-84 14 -84 108q-18 31 -18 36q6 43 6 48q-25 8 -36 30v233q18 95 18 102q0 42 -54 42h-78q-14 12 -24 12zM235 189q12 -42 42 -42q24 0 72 72v12q0 9 -18 18h-12q-53 0 -84 -60zM468 111 q9 0 48 -42l12 -6l36 24v30q-69 18 -96 18v-24z" />
<glyph unicode="&#x2122;" horiz-adv-x="1497" />
<glyph unicode="&#x25fc;" horiz-adv-x="1465" d="M0 0v1465h1465v-1465h-1465z" />
</font>
</defs>
</svg>
